M48
; DRILL file {KiCad (6.0.5)} date Tue Jun 21 11:01:25 2022
; FORMAT={-:-/ absolute / inch / decimal}
; #@! TF.CreationDate,2022-06-21T11:01:25-04:00
; #@! TF.GenerationSoftware,Kicad,Pcbnew,(6.0.5)
; #@! TF.FileFunction,Plated,1,2,PTH
FMAT,2
INCH
; #@! TA.AperFunction,Plated,PTH,ViaDrill
T1C0.0157
; #@! TA.AperFunction,Plated,PTH,ComponentDrill
T2C0.0157
; #@! TA.AperFunction,Plated,PTH,ComponentDrill
T3C0.0236
; #@! TA.AperFunction,Plated,PTH,ComponentDrill
T4C0.0276
; #@! TA.AperFunction,Plated,PTH,ComponentDrill
T5C0.0315
; #@! TA.AperFunction,Plated,PTH,ComponentDrill
T6C0.0354
; #@! TA.AperFunction,Plated,PTH,ComponentDrill
T7C0.0400
; #@! TA.AperFunction,Plated,PTH,ComponentDrill
T8C0.0433
; #@! TA.AperFunction,Plated,PTH,ComponentDrill
T9C0.0591
; #@! TA.AperFunction,Plated,PTH,ComponentDrill
T10C0.0866
%
G90
G05
T1
X3.1555Y-2.989
X3.9706Y-3.6636
X4.4607Y-2.9811
X4.4819Y-5.3323
X4.4909Y-3.7253
X4.6629Y-3.2293
X4.7749Y-5.3333
X5.8327Y-5.1481
X6.7138Y-7.261
X6.7649Y-3.4241
X7.2611Y-3.4241
X7.7971Y-3.4241
X8.2587Y-3.4241
X8.7117Y-3.4241
X9.3361Y-3.4241
X9.6473Y-3.4241
X9.9701Y-3.4241
X10.0666Y-7.272
X10.2875Y-3.4241
X10.6039Y-2.9509
X10.8173Y-3.4241
X10.9567Y-2.8376
X11.0228Y-2.9887
X11.0909Y-2.9891
X11.1013Y-2.9223
X11.3093Y-3.4241
X11.514Y-2.9068
X11.5436Y-7.0784
X11.5486Y-2.9549
X11.5533Y-2.8582
X11.5636Y-2.9157
X11.7269Y-5.0441
X11.8308Y-2.7141
X12.0298Y-2.6309
X12.0587Y-2.7921
X12.2403Y-2.6454
X12.4057Y-2.7645
X12.5363Y-5.0613
X12.5901Y-2.9157
X12.5928Y-7.0702
X12.6011Y-2.7015
X12.6189Y-2.9443
X12.6391Y-3.3002
X12.667Y-3.3281
X12.6803Y-2.9679
X12.6978Y-3.1404
X12.7307Y-3.1823
X12.8615Y-7.0736
X12.9722Y-2.8334
X13.1088Y-7.0791
X13.2429Y-2.7013
X13.4061Y-3.2805
X13.5007Y-3.158
X13.5111Y-3.3595
X13.5442Y-2.9429
X13.5727Y-3.1745
X13.6046Y-2.8623
X13.6167Y-3.3403
X13.6416Y-2.9429
X13.6523Y-3.7614
X13.6598Y-3.3402
X13.6701Y-3.1745
X13.7051Y-2.8623
X13.7313Y-3.3402
X13.7545Y-3.1745
X13.7884Y-3.3402
X13.8057Y-2.8623
X13.8232Y-2.9421
X13.8543Y-3.1745
X13.8598Y-3.3402
X13.8831Y-3.0567
X13.9063Y-2.8623
X13.9547Y-3.3402
X14.0039Y-2.8091
X14.0069Y-2.8623
X14.0994Y-3.0621
X14.1039Y-2.8091
X14.1075Y-2.8623
X14.1543Y-3.161
X14.1552Y-3.3398
X14.1828Y-3.7235
X14.1945Y-6.0726
X14.2043Y-2.8091
X14.208Y-2.8623
X14.208Y-3.0649
X14.299Y-3.0649
X14.3982Y-3.0649
X14.4149Y-2.7397
X14.4763Y-3.9081
X14.5529Y-4.8983
X14.8262Y-6.9331
X15.19Y-3.9538
T2
X12.5127Y-2.821
X12.5129Y-2.8731
X12.5462Y-2.821
X12.5463Y-2.8731
X12.5796Y-2.821
X12.5798Y-2.8731
X12.6131Y-2.821
X12.6133Y-2.8731
X12.6465Y-2.821
X12.6467Y-2.8731
X12.68Y-2.821
X12.6802Y-2.8731
X12.7135Y-2.821
X12.7137Y-2.8731
X12.7471Y-2.821
X12.7471Y-2.8731
T3
X12.9028Y-2.9721
X12.9028Y-3.0311
T4
X12.3347Y-2.5959
X12.3347Y-2.7967
X13.1213Y-2.7425
X13.1213Y-2.8407
X13.1213Y-2.9388
X13.1213Y-3.038
X13.1213Y-3.1393
X13.1213Y-3.2375
X13.1213Y-3.3356
X13.3213Y-2.7425
X13.3213Y-2.8407
X13.3213Y-2.9388
X13.3213Y-3.038
X13.3213Y-3.1393
X13.3213Y-3.2375
X13.3213Y-3.3356
T5
X1.2598Y-2.915
X1.2598Y-3.115
X1.3846Y-2.9801
X1.3846Y-3.1801
X1.5094Y-3.0452
X1.5094Y-3.2452
X1.6342Y-3.1103
X1.6342Y-3.3103
X1.7681Y-2.9154
X1.7681Y-3.1154
X1.8929Y-2.9805
X1.8929Y-3.1805
X2.0177Y-3.0456
X2.0177Y-3.2456
X2.1425Y-3.1107
X2.1425Y-3.3107
X2.2736Y-2.9158
X2.2736Y-3.1158
X2.3984Y-2.9809
X2.3984Y-3.1809
X2.5232Y-3.046
X2.5232Y-3.246
X2.648Y-3.1111
X2.648Y-3.3111
X2.7846Y-2.9154
X2.7846Y-3.1154
X2.9094Y-2.9805
X2.9094Y-3.1805
X3.0342Y-3.0456
X3.0342Y-3.2456
X3.159Y-3.1107
X3.159Y-3.3107
X3.2921Y-2.9158
X3.2921Y-3.1158
X3.4169Y-2.9809
X3.4169Y-3.1809
X3.5417Y-3.046
X3.5417Y-3.246
X3.6665Y-3.1111
X3.6665Y-3.3111
X4.2069Y-2.9158
X4.2069Y-3.1158
X4.3316Y-2.9809
X4.3316Y-3.1809
X4.4564Y-3.046
X4.4564Y-3.246
X4.5812Y-3.1111
X4.5812Y-3.3111
X4.706Y-2.9158
X4.706Y-3.1158
X4.8308Y-2.9809
X4.8308Y-3.1809
X4.9555Y-3.046
X4.9555Y-3.246
X5.0803Y-3.1111
X5.0803Y-3.3111
X5.2051Y-2.9158
X5.2051Y-3.1158
X5.3299Y-2.9809
X5.3299Y-3.1809
X5.4547Y-3.046
X5.4547Y-3.246
X5.5092Y-6.0953
X5.5092Y-6.2953
X5.5795Y-3.1111
X5.5795Y-3.3111
X5.7042Y-2.9158
X5.7042Y-3.1158
X5.829Y-2.9809
X5.829Y-3.1809
X5.9538Y-3.046
X5.9538Y-3.246
X6.0786Y-3.1111
X6.0786Y-3.3111
X6.2034Y-2.9158
X6.2034Y-3.1158
X6.3281Y-2.9809
X6.3281Y-3.1809
X6.4529Y-3.046
X6.4529Y-3.246
X6.5777Y-3.1111
X6.5777Y-3.3111
X6.7025Y-2.9158
X6.7025Y-3.1158
X6.8273Y-2.9809
X6.8273Y-3.1809
X6.9521Y-3.046
X6.9521Y-3.246
X7.0768Y-3.1111
X7.0768Y-3.3111
X7.2016Y-2.9158
X7.2016Y-3.1158
X7.3264Y-2.9809
X7.3264Y-3.1809
X7.4512Y-3.046
X7.4512Y-3.246
X7.576Y-3.1111
X7.576Y-3.3111
X7.7007Y-2.9158
X7.7007Y-3.1158
X7.8255Y-2.9809
X7.8255Y-3.1809
X7.9503Y-3.046
X7.9503Y-3.246
X8.0751Y-3.1111
X8.0751Y-3.3111
X8.1999Y-2.9158
X8.1999Y-3.1158
X8.3247Y-2.9809
X8.3247Y-3.1809
X8.4494Y-3.046
X8.4494Y-3.246
X8.5742Y-3.1111
X8.5742Y-3.3111
X8.699Y-2.9158
X8.699Y-3.1158
X8.8238Y-2.9809
X8.8238Y-3.1809
X8.9486Y-3.046
X8.9486Y-3.246
X9.0734Y-3.1111
X9.0734Y-3.3111
X9.1981Y-2.9158
X9.1981Y-3.1158
X9.3229Y-2.9809
X9.3229Y-3.1809
X9.4477Y-3.046
X9.4477Y-3.246
X9.5725Y-3.1111
X9.5725Y-3.3111
X9.6973Y-2.9158
X9.6973Y-3.1158
X9.822Y-2.9809
X9.822Y-3.1809
X9.9468Y-3.046
X9.9468Y-3.246
X10.0716Y-3.1111
X10.0716Y-3.3111
X10.1964Y-2.9158
X10.1964Y-3.1158
X10.3205Y-2.9809
X10.3205Y-3.1809
X10.4446Y-3.046
X10.4446Y-3.246
X10.5687Y-3.1111
X10.5687Y-3.3111
X10.6928Y-2.9158
X10.6928Y-3.1158
X10.8168Y-2.9809
X10.8168Y-3.1809
X10.9409Y-3.046
X10.9409Y-3.246
X11.0649Y-3.1111
X11.0649Y-3.3111
X11.1889Y-2.9158
X11.1889Y-3.1158
X11.313Y-2.9809
X11.313Y-3.1809
X11.4346Y-3.046
X11.4346Y-3.246
X11.5586Y-3.1111
X11.5586Y-3.3111
X11.6827Y-2.9158
X11.6827Y-3.1158
X11.8067Y-2.9809
X11.8067Y-3.1809
X11.9308Y-3.046
X11.9308Y-3.246
X12.0548Y-3.1111
X12.0548Y-3.3111
X12.1789Y-2.9158
X12.1789Y-3.1158
X12.3078Y-2.9809
X12.3078Y-3.1809
X12.4294Y-3.046
X12.4294Y-3.246
X12.551Y-3.1111
X12.551Y-3.3111
X12.8567Y-3.1397
X12.8567Y-3.3397
X12.9696Y-3.1397
X12.9696Y-3.3397
X13.5042Y-2.6667
X13.5042Y-3.2667
X13.6042Y-2.6667
X13.6042Y-3.2667
X13.7042Y-2.6667
X13.7042Y-3.2667
X13.8042Y-2.6667
X13.8042Y-3.2667
X13.9042Y-2.6667
X13.9042Y-3.2667
X14.0042Y-2.6667
X14.0042Y-3.2667
X14.1042Y-2.6667
X14.1042Y-3.2667
X14.2042Y-2.6667
X14.2042Y-3.2667
X14.3042Y-2.6667
X14.3042Y-3.2667
X14.3199Y-3.3584
X14.4042Y-2.6667
X14.4042Y-3.2667
X14.5031Y-2.5792
X14.5042Y-2.6667
X14.5042Y-3.2667
X14.5167Y-3.3584
X14.6037Y-3.3895
X14.6037Y-3.4879
X14.6042Y-2.6667
X14.6042Y-3.2667
X14.7Y-2.5792
X14.7042Y-2.6667
X14.7042Y-3.2667
X14.7884Y-3.419
X14.8042Y-2.6667
X14.8042Y-3.2667
X14.9042Y-2.6667
X14.9042Y-3.2667
X14.9805Y-3.419
X15.0042Y-2.6667
X15.0042Y-3.2667
X15.1042Y-2.6667
X15.1042Y-3.2667
X15.1638Y-3.3895
X15.1638Y-3.4879
X15.2042Y-2.6667
X15.2042Y-3.2667
X15.3042Y-2.6667
X15.3042Y-3.2667
X15.4042Y-2.6667
X15.4042Y-3.2667
T6
X12.889Y-2.6991
X12.989Y-2.6991
T7
X11.5538Y-2.6353
X11.5538Y-2.7353
X11.6538Y-2.6353
X11.6538Y-2.7353
X11.7538Y-2.6353
X11.7538Y-2.7353
T8
X10.6197Y-2.6151
X10.6197Y-2.7922
X10.8756Y-2.6151
X10.8756Y-2.7922
X11.0921Y-2.6151
X11.0921Y-2.7922
X11.348Y-2.6151
X11.348Y-2.7922
T9
X1.0471Y-3.8906
X1.0471Y-4.6406
X1.0471Y-5.3906
X1.0471Y-6.1406
X1.0471Y-6.8902
X1.2971Y-3.7906
X1.2971Y-4.5406
X1.2971Y-5.2906
X1.2971Y-6.0406
X1.2971Y-6.7902
X1.7969Y-3.8906
X1.7969Y-4.6408
X1.7969Y-5.3908
X1.7969Y-6.1408
X1.7969Y-6.8904
X2.0469Y-3.7906
X2.0469Y-4.5408
X2.0469Y-5.2908
X2.0469Y-6.0408
X2.0469Y-6.7904
X2.5469Y-3.8906
X2.5469Y-4.6406
X2.5469Y-5.3906
X2.5469Y-6.1406
X2.5469Y-6.8902
X2.7969Y-3.7906
X2.7969Y-4.5406
X2.7969Y-5.2906
X2.7969Y-6.0406
X2.7969Y-6.7902
X3.2966Y-3.8906
X3.2966Y-4.6408
X3.2966Y-5.3908
X3.2966Y-6.1408
X3.2966Y-6.8904
X3.5466Y-3.7906
X3.5466Y-4.5408
X3.5466Y-5.2908
X3.5466Y-6.0408
X3.5466Y-6.7904
X4.0467Y-3.8906
X4.1404Y-6.8902
X4.1404Y-5.3902
X4.1404Y-6.1406
X4.2342Y-6.8902
X4.2342Y-4.6406
X4.2967Y-3.7906
X4.3279Y-5.3902
X4.3904Y-6.7902
X4.3904Y-5.2902
X4.3904Y-6.0406
X4.4842Y-6.7902
X4.4842Y-4.5406
X4.5154Y-6.1406
X4.5779Y-5.2902
X4.7654Y-6.0406
X4.7967Y-3.8906
X4.9842Y-6.1406
X5.0467Y-3.7906
X5.0779Y-6.8906
X5.1717Y-4.6406
X5.2342Y-6.0406
X5.3279Y-6.7906
X5.3592Y-5.3906
X5.3601Y-6.8904
X5.4217Y-4.5406
X5.5467Y-3.8906
X5.6092Y-5.2906
X5.6101Y-6.7904
X5.7342Y-6.1406
X5.7967Y-3.7906
X5.9217Y-4.6406
X5.9842Y-6.0406
X6.0154Y-6.8902
X6.1092Y-5.3906
X6.1717Y-4.5406
X6.2654Y-6.7902
X6.2967Y-3.8906
X6.3592Y-5.2906
X6.4842Y-6.1406
X6.5467Y-3.7906
X6.6717Y-4.6406
X6.7342Y-6.0406
X6.8592Y-5.3906
X6.9217Y-4.5406
X7.0467Y-3.8906
X7.1092Y-5.2906
X7.2342Y-6.1406
X7.2967Y-3.7906
X7.4217Y-4.6406
X7.4842Y-6.0406
X7.6091Y-5.3906
X7.6717Y-4.5406
X7.7967Y-3.8906
X7.8591Y-5.2906
X7.9842Y-6.1406
X8.0467Y-3.7906
X8.1717Y-4.6406
X8.2342Y-6.0406
X8.3591Y-5.3906
X8.4217Y-4.5406
X8.5467Y-3.8906
X8.5477Y-6.8909
X8.6091Y-5.2906
X8.7342Y-6.1406
X8.7967Y-3.7906
X8.7977Y-6.7909
X8.8279Y-6.8906
X8.9217Y-4.6406
X8.9842Y-6.0406
X9.0779Y-6.7906
X9.1091Y-5.3906
X9.1717Y-4.5406
X9.2967Y-3.8906
X9.3591Y-5.2906
X9.4842Y-6.1406
X9.5467Y-3.7906
X9.6717Y-4.6406
X9.7342Y-6.0406
X9.8591Y-5.3906
X9.9217Y-4.5406
X10.0467Y-3.8906
X10.1091Y-5.2906
X10.2342Y-6.1406
X10.2967Y-3.7906
X10.4217Y-4.6406
X10.4842Y-6.0406
X10.6091Y-5.3906
X10.6717Y-4.5406
X10.7967Y-3.8906
X10.8591Y-5.2906
X10.9842Y-6.1406
X11.0467Y-3.7906
X11.1717Y-4.6406
X11.2342Y-6.0406
X11.3591Y-5.3906
X11.4217Y-4.5406
X11.5467Y-3.8906
X11.5478Y-6.8902
X11.6091Y-5.2906
X11.7342Y-6.1406
X11.7357Y-6.8906
X11.7967Y-3.7906
X11.7978Y-6.7902
X11.9217Y-4.6406
X11.9842Y-6.0406
X11.9857Y-6.7906
X12.1091Y-5.3906
X12.1717Y-4.5406
X12.2967Y-3.8906
X12.298Y-6.8906
X12.3591Y-5.2906
X12.4842Y-6.1406
X12.5467Y-3.7906
X12.548Y-6.7906
X12.6717Y-4.6406
X12.7342Y-6.0406
X12.8591Y-5.3906
X12.86Y-6.8906
X12.9217Y-4.5406
X13.0467Y-3.8906
X13.0482Y-6.8902
X13.1091Y-5.2906
X13.11Y-6.7906
X13.2967Y-3.7906
X13.2982Y-6.7902
X13.4217Y-4.6406
X13.5154Y-6.1406
X13.6092Y-5.3906
X13.6717Y-4.5406
X13.7654Y-6.0406
X13.7967Y-6.8906
X13.8592Y-5.2906
X14.0467Y-6.7906
X14.0779Y-5.3906
X14.1717Y-3.8906
X14.3279Y-5.2906
X14.3591Y-4.6406
X14.4217Y-3.7906
X14.4529Y-5.0156
X14.5467Y-6.1406
X14.5467Y-6.8906
X14.6091Y-4.5406
X14.7029Y-4.9156
X14.7967Y-6.0406
X14.7967Y-6.7906
X15.2967Y-3.8906
X15.2967Y-4.6406
X15.2967Y-5.3906
X15.2967Y-6.1406
X15.2967Y-6.8906
X15.5467Y-3.7906
X15.5467Y-4.5406
X15.5467Y-5.2906
X15.5467Y-6.0406
X15.5467Y-6.7906
T10
X0.9795Y-2.6882
X0.9795Y-3.4264
X2.5071Y-6.6037
X3.1838Y-4.3657
X3.9772Y-2.6882
X3.9772Y-3.4264
X5.5047Y-6.6037
X6.1814Y-4.3657
X9.8215Y-2.6882
X9.8215Y-3.4264
X9.8215Y-4.3657
X9.8215Y-6.8325
X13.4616Y-4.3657
X14.1384Y-6.6037
X15.6659Y-2.6882
X15.6659Y-3.4264
T3
G00X12.4597Y-2.7172
M15
G01X12.4597Y-2.6857
M16
G05
G00X12.4597Y-2.8641
M15
G01X12.4597Y-2.805
M16
G05
G00X12.8003Y-2.7172
M15
G01X12.8003Y-2.6857
M16
G05
G00X12.8003Y-2.8641
M15
G01X12.8003Y-2.805
M16
G05
T0
M30
