M48
; DRILL file {KiCad (6.0.5)} date Tue Jun 21 11:01:25 2022
; FORMAT={-:-/ absolute / inch / decimal}
; #@! TF.CreationDate,2022-06-21T11:01:25-04:00
; #@! TF.GenerationSoftware,Kicad,Pcbnew,(6.0.5)
; #@! TF.FileFunction,NonPlated,1,2,NPTH
FMAT,2
INCH
; #@! TA.AperFunction,NonPlated,NPTH,ComponentDrill
T1C0.0669
; #@! TA.AperFunction,NonPlated,NPTH,ComponentDrill
T2C0.1200
; #@! TA.AperFunction,NonPlated,NPTH,ComponentDrill
T3C0.1201
; #@! TA.AperFunction,NonPlated,NPTH,ComponentDrill
T4C0.1570
; #@! TA.AperFunction,NonPlated,NPTH,ComponentDrill
T5C0.1575
%
G90
G05
T1
X0.9971Y-3.9906
X0.9971Y-4.7406
X0.9971Y-5.4906
X0.9971Y-6.2406
X0.9971Y-6.9902
X1.3971Y-3.9906
X1.3971Y-4.7406
X1.3971Y-5.4906
X1.3971Y-6.2406
X1.3971Y-6.9902
X1.7469Y-3.9906
X1.7469Y-4.7408
X1.7469Y-5.4908
X1.7469Y-6.2408
X1.7469Y-6.9904
X2.1469Y-3.9906
X2.1469Y-4.7408
X2.1469Y-5.4908
X2.1469Y-6.2408
X2.1469Y-6.9904
X2.4969Y-3.9906
X2.4969Y-4.7406
X2.4969Y-5.4906
X2.4969Y-6.2406
X2.4969Y-6.9902
X2.8969Y-3.9906
X2.8969Y-4.7406
X2.8969Y-5.4906
X2.8969Y-6.2406
X2.8969Y-6.9902
X3.2466Y-3.9906
X3.2466Y-4.7408
X3.2466Y-5.4908
X3.2466Y-6.2408
X3.2466Y-6.9904
X3.6466Y-3.9906
X3.6466Y-4.7408
X3.6466Y-5.4908
X3.6466Y-6.2408
X3.6466Y-6.9904
X3.9967Y-3.9906
X4.0904Y-6.9902
X4.0904Y-5.4902
X4.0904Y-6.2406
X4.1842Y-6.9902
X4.1842Y-4.7406
X4.2779Y-5.4902
X4.3967Y-3.9906
X4.4654Y-6.2406
X4.4904Y-6.9902
X4.4904Y-5.4902
X4.4904Y-6.2406
X4.5842Y-6.9902
X4.5842Y-4.7406
X4.6779Y-5.4902
X4.7467Y-3.9906
X4.8654Y-6.2406
X4.9342Y-6.2406
X5.0279Y-6.9906
X5.1217Y-4.7406
X5.1467Y-3.9906
X5.3092Y-5.4906
X5.3101Y-6.9904
X5.3342Y-6.2406
X5.4279Y-6.9906
X5.4967Y-3.9906
X5.5217Y-4.7406
X5.6842Y-6.2406
X5.7092Y-5.4906
X5.7101Y-6.9904
X5.8717Y-4.7406
X5.8967Y-3.9906
X5.9654Y-6.9902
X6.0592Y-5.4906
X6.0842Y-6.2406
X6.2467Y-3.9906
X6.2717Y-4.7406
X6.3654Y-6.9902
X6.4342Y-6.2406
X6.4592Y-5.4906
X6.6217Y-4.7406
X6.6467Y-3.9906
X6.8092Y-5.4906
X6.8342Y-6.2406
X6.9967Y-3.9906
X7.0217Y-4.7406
X7.1842Y-6.2406
X7.2092Y-5.4906
X7.3717Y-4.7406
X7.3967Y-3.9906
X7.5591Y-5.4906
X7.5842Y-6.2406
X7.7467Y-3.9906
X7.7717Y-4.7406
X7.9342Y-6.2406
X7.9591Y-5.4906
X8.1217Y-4.7406
X8.1467Y-3.9906
X8.3091Y-5.4906
X8.3342Y-6.2406
X8.4967Y-3.9906
X8.4977Y-6.9909
X8.5217Y-4.7406
X8.6842Y-6.2406
X8.7091Y-5.4906
X8.7779Y-6.9906
X8.8717Y-4.7406
X8.8967Y-3.9906
X8.8977Y-6.9909
X9.0591Y-5.4906
X9.0842Y-6.2406
X9.1779Y-6.9906
X9.2467Y-3.9906
X9.2717Y-4.7406
X9.4342Y-6.2406
X9.4591Y-5.4906
X9.6217Y-4.7406
X9.6467Y-3.9906
X9.8091Y-5.4906
X9.8342Y-6.2406
X9.9967Y-3.9906
X10.0217Y-4.7406
X10.1842Y-6.2406
X10.2091Y-5.4906
X10.3717Y-4.7406
X10.3967Y-3.9906
X10.5591Y-5.4906
X10.5842Y-6.2406
X10.7467Y-3.9906
X10.7717Y-4.7406
X10.9342Y-6.2406
X10.9591Y-5.4906
X11.1217Y-4.7406
X11.1467Y-3.9906
X11.3091Y-5.4906
X11.3342Y-6.2406
X11.4967Y-3.9906
X11.4978Y-6.9902
X11.5217Y-4.7406
X11.6842Y-6.2406
X11.6857Y-6.9906
X11.7091Y-5.4906
X11.8717Y-4.7406
X11.8967Y-3.9906
X11.8978Y-6.9902
X12.0591Y-5.4906
X12.0842Y-6.2406
X12.0857Y-6.9906
X12.2467Y-3.9906
X12.248Y-6.9906
X12.2717Y-4.7406
X12.4342Y-6.2406
X12.4591Y-5.4906
X12.6217Y-4.7406
X12.6467Y-3.9906
X12.648Y-6.9906
X12.8091Y-5.4906
X12.81Y-6.9906
X12.8342Y-6.2406
X12.9967Y-3.9906
X12.9982Y-6.9902
X13.0217Y-4.7406
X13.2091Y-5.4906
X13.21Y-6.9906
X13.3717Y-4.7406
X13.3967Y-3.9906
X13.3982Y-6.9902
X13.4654Y-6.2406
X13.5592Y-5.4906
X13.7467Y-6.9906
X13.7717Y-4.7406
X13.8654Y-6.2406
X13.9592Y-5.4906
X14.0279Y-5.4906
X14.1217Y-3.9906
X14.1467Y-6.9906
X14.3091Y-4.7406
X14.4029Y-5.1156
X14.4279Y-5.4906
X14.4967Y-6.2406
X14.4967Y-6.9906
X14.5217Y-3.9906
X14.7091Y-4.7406
X14.8029Y-5.1156
X14.8967Y-6.2406
X14.8967Y-6.9906
X15.2467Y-3.9906
X15.2467Y-4.7406
X15.2467Y-5.4906
X15.2467Y-6.2406
X15.2467Y-6.9906
X15.6467Y-3.9906
X15.6467Y-4.7406
X15.6467Y-5.4906
X15.6467Y-6.2406
X15.6467Y-6.9906
T2
X6.4477Y-7.2659
X7.0104Y-7.2659
X10.9474Y-7.2659
X10.9477Y-7.2659
T3
X4.1969Y-5.965
X5.1339Y-5.965
X13.7594Y-5.215
X13.8531Y-3.715
X14.6964Y-5.215
X14.7902Y-3.715
X14.8785Y-4.647
X14.8785Y-5.5841
T4
X6.4477Y-6.6659
X7.0104Y-6.6659
X10.9474Y-6.6659
X10.9477Y-6.6659
T5
X1.1971Y-3.9906
X1.1971Y-4.7406
X1.1971Y-5.4906
X1.1971Y-6.2406
X1.1971Y-6.9902
X1.9469Y-3.9906
X1.9469Y-4.7408
X1.9469Y-5.4908
X1.9469Y-6.2408
X1.9469Y-6.9904
X2.6969Y-3.9906
X2.6969Y-4.7406
X2.6969Y-5.4906
X2.6969Y-6.2406
X2.6969Y-6.9902
X3.4466Y-3.9906
X3.4466Y-4.7408
X3.4466Y-5.4908
X3.4466Y-6.2408
X3.4466Y-6.9904
X4.1967Y-3.9906
X4.1969Y-6.565
X4.2904Y-6.9902
X4.2904Y-5.4902
X4.2904Y-6.2406
X4.3842Y-6.9902
X4.3842Y-4.7406
X4.4779Y-5.4902
X4.6654Y-6.2406
X4.9467Y-3.9906
X5.1339Y-6.565
X5.1342Y-6.2406
X5.2279Y-6.9906
X5.3217Y-4.7406
X5.5092Y-5.4906
X5.5101Y-6.9904
X5.6967Y-3.9906
X5.8842Y-6.2406
X6.0717Y-4.7406
X6.1654Y-6.9902
X6.2592Y-5.4906
X6.4467Y-3.9906
X6.6342Y-6.2406
X6.8217Y-4.7406
X7.0092Y-5.4906
X7.1967Y-3.9906
X7.3842Y-6.2406
X7.5717Y-4.7406
X7.7591Y-5.4906
X7.9467Y-3.9906
X8.1342Y-6.2406
X8.3217Y-4.7406
X8.5091Y-5.4906
X8.6967Y-3.9906
X8.6977Y-6.9909
X8.8842Y-6.2406
X8.9779Y-6.9906
X9.0717Y-4.7406
X9.2591Y-5.4906
X9.4467Y-3.9906
X9.6342Y-6.2406
X9.8217Y-4.7406
X10.0091Y-5.4906
X10.1967Y-3.9906
X10.3842Y-6.2406
X10.5717Y-4.7406
X10.7591Y-5.4906
X10.9467Y-3.9906
X11.1342Y-6.2406
X11.3217Y-4.7406
X11.5091Y-5.4906
X11.6967Y-3.9906
X11.6978Y-6.9902
X11.8842Y-6.2406
X11.8857Y-6.9906
X12.0717Y-4.7406
X12.2591Y-5.4906
X12.4467Y-3.9906
X12.448Y-6.9906
X12.6342Y-6.2406
X12.8217Y-4.7406
X13.0091Y-5.4906
X13.01Y-6.9906
X13.1967Y-3.9906
X13.1982Y-6.9902
X13.5717Y-4.7406
X13.6654Y-6.2406
X13.7592Y-5.4906
X13.7594Y-5.815
X13.8531Y-4.315
X13.9467Y-6.9906
X14.2279Y-5.4906
X14.2785Y-4.647
X14.2785Y-5.5841
X14.3217Y-3.9906
X14.5091Y-4.7406
X14.6029Y-5.1156
X14.6964Y-5.815
X14.6967Y-6.2406
X14.6967Y-6.9906
X14.7902Y-4.315
X15.4467Y-3.9906
X15.4467Y-4.7406
X15.4467Y-5.4906
X15.4467Y-6.2406
X15.4467Y-6.9906
T0
M30
