G04 #@! TF.GenerationSoftware,KiCad,Pcbnew,(6.0.5)*
G04 #@! TF.CreationDate,2022-06-28T17:29:57-04:00*
G04 #@! TF.ProjectId,discipline-pcb,64697363-6970-46c6-996e-652d7063622e,rev?*
G04 #@! TF.SameCoordinates,Original*
G04 #@! TF.FileFunction,Soldermask,Top*
G04 #@! TF.FilePolarity,Negative*
%FSLAX46Y46*%
G04 Gerber Fmt 4.6, Leading zero omitted, Abs format (unit mm)*
G04 Created by KiCad (PCBNEW (6.0.5)) date 2022-06-28 17:29:57*
%MOMM*%
%LPD*%
G01*
G04 APERTURE LIST*
%ADD10C,0.010000*%
%ADD11C,4.502000*%
G04 APERTURE END LIST*
G36*
X334220179Y-132963920D02*
G01*
X335071079Y-132963920D01*
X335071079Y-133268720D01*
X334220179Y-133268720D01*
X334220179Y-133795770D01*
X334753579Y-133795770D01*
X334753579Y-134100570D01*
X334220179Y-134100570D01*
X334220179Y-134621270D01*
X335071079Y-134621270D01*
X335071079Y-134907020D01*
X334220179Y-134907020D01*
X334220179Y-135351520D01*
X333915379Y-135351520D01*
X333915379Y-134907020D01*
X333058129Y-134907020D01*
X333058129Y-134621270D01*
X333915379Y-134621270D01*
X333915379Y-134106920D01*
X333375629Y-134106920D01*
X333375629Y-133802120D01*
X333915379Y-133802120D01*
X333915379Y-133275070D01*
X333058129Y-133275070D01*
X333058129Y-132970270D01*
X333915379Y-132970270D01*
X333915379Y-132506720D01*
X334220179Y-132506720D01*
X334220179Y-132963920D01*
G37*
D10*
X334220179Y-132963920D02*
X335071079Y-132963920D01*
X335071079Y-133268720D01*
X334220179Y-133268720D01*
X334220179Y-133795770D01*
X334753579Y-133795770D01*
X334753579Y-134100570D01*
X334220179Y-134100570D01*
X334220179Y-134621270D01*
X335071079Y-134621270D01*
X335071079Y-134907020D01*
X334220179Y-134907020D01*
X334220179Y-135351520D01*
X333915379Y-135351520D01*
X333915379Y-134907020D01*
X333058129Y-134907020D01*
X333058129Y-134621270D01*
X333915379Y-134621270D01*
X333915379Y-134106920D01*
X333375629Y-134106920D01*
X333375629Y-133802120D01*
X333915379Y-133802120D01*
X333915379Y-133275070D01*
X333058129Y-133275070D01*
X333058129Y-132970270D01*
X333915379Y-132970270D01*
X333915379Y-132506720D01*
X334220179Y-132506720D01*
X334220179Y-132963920D01*
G36*
X348520520Y-132904707D02*
G01*
X348564650Y-132907757D01*
X348601830Y-132913431D01*
X348609409Y-132915245D01*
X348674040Y-132938769D01*
X348729189Y-132972745D01*
X348774855Y-133017168D01*
X348811034Y-133072037D01*
X348837723Y-133137347D01*
X348843794Y-133158653D01*
X348850909Y-133198443D01*
X348854749Y-133247445D01*
X348855325Y-133301145D01*
X348852645Y-133355032D01*
X348846719Y-133404593D01*
X348843222Y-133423236D01*
X348834662Y-133460540D01*
X348824988Y-133496523D01*
X348813618Y-133532362D01*
X348799969Y-133569235D01*
X348783459Y-133608319D01*
X348763505Y-133650790D01*
X348739526Y-133697825D01*
X348710938Y-133750603D01*
X348677159Y-133810298D01*
X348637606Y-133878089D01*
X348591698Y-133955153D01*
X348538852Y-134042666D01*
X348527255Y-134061764D01*
X348340730Y-134368681D01*
X348597065Y-134370531D01*
X348853401Y-134372382D01*
X348853401Y-134520375D01*
X348140790Y-134520375D01*
X348140852Y-134389847D01*
X348349676Y-134037070D01*
X348389185Y-133970129D01*
X348427568Y-133904727D01*
X348464027Y-133842244D01*
X348497767Y-133784064D01*
X348527989Y-133731568D01*
X348553897Y-133686139D01*
X348574695Y-133649159D01*
X348589585Y-133622010D01*
X348595759Y-133610208D01*
X348633366Y-133527565D01*
X348661797Y-133447937D01*
X348680639Y-133372913D01*
X348689480Y-133304082D01*
X348688849Y-133251913D01*
X348683389Y-133208343D01*
X348674996Y-133174004D01*
X348662151Y-133144086D01*
X348646836Y-133118892D01*
X348616950Y-133085051D01*
X348580385Y-133063026D01*
X348536012Y-133052259D01*
X348509278Y-133050924D01*
X348461924Y-133055093D01*
X348422987Y-133068223D01*
X348388885Y-133091847D01*
X348370420Y-133110393D01*
X348344988Y-133144200D01*
X348325864Y-133183117D01*
X348311996Y-133229949D01*
X348302327Y-133287498D01*
X348301617Y-133293383D01*
X348293418Y-133363264D01*
X348133734Y-133363264D01*
X348133827Y-133315639D01*
X348136788Y-133269434D01*
X348144753Y-133217844D01*
X348156584Y-133166046D01*
X348171143Y-133119213D01*
X348183392Y-133090010D01*
X348217570Y-133034918D01*
X348261348Y-132987141D01*
X348312415Y-132948591D01*
X348368460Y-132921183D01*
X348398317Y-132912086D01*
X348432166Y-132906794D01*
X348474630Y-132904360D01*
X348520520Y-132904707D01*
G37*
X348520520Y-132904707D02*
X348564650Y-132907757D01*
X348601830Y-132913431D01*
X348609409Y-132915245D01*
X348674040Y-132938769D01*
X348729189Y-132972745D01*
X348774855Y-133017168D01*
X348811034Y-133072037D01*
X348837723Y-133137347D01*
X348843794Y-133158653D01*
X348850909Y-133198443D01*
X348854749Y-133247445D01*
X348855325Y-133301145D01*
X348852645Y-133355032D01*
X348846719Y-133404593D01*
X348843222Y-133423236D01*
X348834662Y-133460540D01*
X348824988Y-133496523D01*
X348813618Y-133532362D01*
X348799969Y-133569235D01*
X348783459Y-133608319D01*
X348763505Y-133650790D01*
X348739526Y-133697825D01*
X348710938Y-133750603D01*
X348677159Y-133810298D01*
X348637606Y-133878089D01*
X348591698Y-133955153D01*
X348538852Y-134042666D01*
X348527255Y-134061764D01*
X348340730Y-134368681D01*
X348597065Y-134370531D01*
X348853401Y-134372382D01*
X348853401Y-134520375D01*
X348140790Y-134520375D01*
X348140852Y-134389847D01*
X348349676Y-134037070D01*
X348389185Y-133970129D01*
X348427568Y-133904727D01*
X348464027Y-133842244D01*
X348497767Y-133784064D01*
X348527989Y-133731568D01*
X348553897Y-133686139D01*
X348574695Y-133649159D01*
X348589585Y-133622010D01*
X348595759Y-133610208D01*
X348633366Y-133527565D01*
X348661797Y-133447937D01*
X348680639Y-133372913D01*
X348689480Y-133304082D01*
X348688849Y-133251913D01*
X348683389Y-133208343D01*
X348674996Y-133174004D01*
X348662151Y-133144086D01*
X348646836Y-133118892D01*
X348616950Y-133085051D01*
X348580385Y-133063026D01*
X348536012Y-133052259D01*
X348509278Y-133050924D01*
X348461924Y-133055093D01*
X348422987Y-133068223D01*
X348388885Y-133091847D01*
X348370420Y-133110393D01*
X348344988Y-133144200D01*
X348325864Y-133183117D01*
X348311996Y-133229949D01*
X348302327Y-133287498D01*
X348301617Y-133293383D01*
X348293418Y-133363264D01*
X348133734Y-133363264D01*
X348133827Y-133315639D01*
X348136788Y-133269434D01*
X348144753Y-133217844D01*
X348156584Y-133166046D01*
X348171143Y-133119213D01*
X348183392Y-133090010D01*
X348217570Y-133034918D01*
X348261348Y-132987141D01*
X348312415Y-132948591D01*
X348368460Y-132921183D01*
X348398317Y-132912086D01*
X348432166Y-132906794D01*
X348474630Y-132904360D01*
X348520520Y-132904707D01*
G36*
X342146428Y-133360953D02*
G01*
X342175075Y-133363466D01*
X342198816Y-133368324D01*
X342222236Y-133376193D01*
X342224349Y-133377019D01*
X342271013Y-133402378D01*
X342312389Y-133438299D01*
X342344668Y-133481307D01*
X342350479Y-133491983D01*
X342358077Y-133507469D01*
X342364653Y-133522507D01*
X342370294Y-133538218D01*
X342375086Y-133555723D01*
X342379114Y-133576146D01*
X342382465Y-133600606D01*
X342385226Y-133630227D01*
X342387482Y-133666130D01*
X342389320Y-133709437D01*
X342390826Y-133761269D01*
X342392086Y-133822748D01*
X342393186Y-133894996D01*
X342394214Y-133979135D01*
X342395232Y-134074111D01*
X342399850Y-134520375D01*
X342235792Y-134520375D01*
X342233777Y-134077639D01*
X342233365Y-133983852D01*
X342232964Y-133903094D01*
X342232453Y-133834282D01*
X342231710Y-133776336D01*
X342230614Y-133728172D01*
X342229043Y-133688710D01*
X342226876Y-133656867D01*
X342223992Y-133631561D01*
X342220269Y-133611711D01*
X342215585Y-133596234D01*
X342209820Y-133584050D01*
X342202852Y-133574075D01*
X342194558Y-133565229D01*
X342184819Y-133556428D01*
X342174239Y-133547233D01*
X342138315Y-133523035D01*
X342096326Y-133509157D01*
X342046270Y-133505049D01*
X342023700Y-133506007D01*
X341973009Y-133515639D01*
X341930873Y-133536423D01*
X341897744Y-133567955D01*
X341874076Y-133609833D01*
X341862509Y-133649246D01*
X341860504Y-133665367D01*
X341858794Y-133692560D01*
X341857371Y-133731263D01*
X341856228Y-133781912D01*
X341855356Y-133844948D01*
X341854748Y-133920808D01*
X341854395Y-134009930D01*
X341854290Y-134105274D01*
X341854290Y-134520375D01*
X341692012Y-134520375D01*
X341692012Y-133377375D01*
X341854290Y-133377375D01*
X341854290Y-133514193D01*
X341874562Y-133482826D01*
X341914410Y-133433517D01*
X341962959Y-133395155D01*
X341991873Y-133379513D01*
X342012782Y-133370404D01*
X342031191Y-133364631D01*
X342051409Y-133361477D01*
X342077743Y-133360223D01*
X342108290Y-133360116D01*
X342146428Y-133360953D01*
G37*
X342146428Y-133360953D02*
X342175075Y-133363466D01*
X342198816Y-133368324D01*
X342222236Y-133376193D01*
X342224349Y-133377019D01*
X342271013Y-133402378D01*
X342312389Y-133438299D01*
X342344668Y-133481307D01*
X342350479Y-133491983D01*
X342358077Y-133507469D01*
X342364653Y-133522507D01*
X342370294Y-133538218D01*
X342375086Y-133555723D01*
X342379114Y-133576146D01*
X342382465Y-133600606D01*
X342385226Y-133630227D01*
X342387482Y-133666130D01*
X342389320Y-133709437D01*
X342390826Y-133761269D01*
X342392086Y-133822748D01*
X342393186Y-133894996D01*
X342394214Y-133979135D01*
X342395232Y-134074111D01*
X342399850Y-134520375D01*
X342235792Y-134520375D01*
X342233777Y-134077639D01*
X342233365Y-133983852D01*
X342232964Y-133903094D01*
X342232453Y-133834282D01*
X342231710Y-133776336D01*
X342230614Y-133728172D01*
X342229043Y-133688710D01*
X342226876Y-133656867D01*
X342223992Y-133631561D01*
X342220269Y-133611711D01*
X342215585Y-133596234D01*
X342209820Y-133584050D01*
X342202852Y-133574075D01*
X342194558Y-133565229D01*
X342184819Y-133556428D01*
X342174239Y-133547233D01*
X342138315Y-133523035D01*
X342096326Y-133509157D01*
X342046270Y-133505049D01*
X342023700Y-133506007D01*
X341973009Y-133515639D01*
X341930873Y-133536423D01*
X341897744Y-133567955D01*
X341874076Y-133609833D01*
X341862509Y-133649246D01*
X341860504Y-133665367D01*
X341858794Y-133692560D01*
X341857371Y-133731263D01*
X341856228Y-133781912D01*
X341855356Y-133844948D01*
X341854748Y-133920808D01*
X341854395Y-134009930D01*
X341854290Y-134105274D01*
X341854290Y-134520375D01*
X341692012Y-134520375D01*
X341692012Y-133377375D01*
X341854290Y-133377375D01*
X341854290Y-133514193D01*
X341874562Y-133482826D01*
X341914410Y-133433517D01*
X341962959Y-133395155D01*
X341991873Y-133379513D01*
X342012782Y-133370404D01*
X342031191Y-133364631D01*
X342051409Y-133361477D01*
X342077743Y-133360223D01*
X342108290Y-133360116D01*
X342146428Y-133360953D01*
G36*
X343759290Y-134520375D02*
G01*
X343597012Y-134520375D01*
X343597012Y-133377375D01*
X343759290Y-133377375D01*
X343759290Y-134520375D01*
G37*
X343759290Y-134520375D02*
X343597012Y-134520375D01*
X343597012Y-133377375D01*
X343759290Y-133377375D01*
X343759290Y-134520375D01*
G36*
X346320456Y-133377375D02*
G01*
X346539179Y-133377375D01*
X346539179Y-133525542D01*
X346320456Y-133525542D01*
X346320456Y-133895071D01*
X346320507Y-133978937D01*
X346320682Y-134049864D01*
X346321011Y-134109027D01*
X346321527Y-134157599D01*
X346322260Y-134196752D01*
X346323243Y-134227660D01*
X346324508Y-134251495D01*
X346326085Y-134269432D01*
X346328006Y-134282642D01*
X346330303Y-134292300D01*
X346331225Y-134295124D01*
X346347451Y-134328751D01*
X346370012Y-134352981D01*
X346400641Y-134368786D01*
X346441073Y-134377140D01*
X346480970Y-134379109D01*
X346539179Y-134379264D01*
X346539179Y-134527431D01*
X346466859Y-134526601D01*
X346432076Y-134525685D01*
X346398714Y-134523915D01*
X346371792Y-134521596D01*
X346361877Y-134520252D01*
X346306105Y-134505002D01*
X346259664Y-134479456D01*
X346222115Y-134443208D01*
X346193022Y-134395850D01*
X346174565Y-134346388D01*
X346171922Y-134335945D01*
X346169664Y-134323402D01*
X346167749Y-134307561D01*
X346166138Y-134287225D01*
X346164788Y-134261197D01*
X346163660Y-134228280D01*
X346162714Y-134187278D01*
X346161907Y-134136993D01*
X346161199Y-134076228D01*
X346160550Y-134003786D01*
X346159919Y-133918471D01*
X346159898Y-133915361D01*
X346157220Y-133525542D01*
X346045290Y-133525542D01*
X346045290Y-133377375D01*
X346158179Y-133377375D01*
X346158179Y-133045764D01*
X346320456Y-133045764D01*
X346320456Y-133377375D01*
G37*
X346320456Y-133377375D02*
X346539179Y-133377375D01*
X346539179Y-133525542D01*
X346320456Y-133525542D01*
X346320456Y-133895071D01*
X346320507Y-133978937D01*
X346320682Y-134049864D01*
X346321011Y-134109027D01*
X346321527Y-134157599D01*
X346322260Y-134196752D01*
X346323243Y-134227660D01*
X346324508Y-134251495D01*
X346326085Y-134269432D01*
X346328006Y-134282642D01*
X346330303Y-134292300D01*
X346331225Y-134295124D01*
X346347451Y-134328751D01*
X346370012Y-134352981D01*
X346400641Y-134368786D01*
X346441073Y-134377140D01*
X346480970Y-134379109D01*
X346539179Y-134379264D01*
X346539179Y-134527431D01*
X346466859Y-134526601D01*
X346432076Y-134525685D01*
X346398714Y-134523915D01*
X346371792Y-134521596D01*
X346361877Y-134520252D01*
X346306105Y-134505002D01*
X346259664Y-134479456D01*
X346222115Y-134443208D01*
X346193022Y-134395850D01*
X346174565Y-134346388D01*
X346171922Y-134335945D01*
X346169664Y-134323402D01*
X346167749Y-134307561D01*
X346166138Y-134287225D01*
X346164788Y-134261197D01*
X346163660Y-134228280D01*
X346162714Y-134187278D01*
X346161907Y-134136993D01*
X346161199Y-134076228D01*
X346160550Y-134003786D01*
X346159919Y-133918471D01*
X346159898Y-133915361D01*
X346157220Y-133525542D01*
X346045290Y-133525542D01*
X346045290Y-133377375D01*
X346158179Y-133377375D01*
X346158179Y-133045764D01*
X346320456Y-133045764D01*
X346320456Y-133377375D01*
G36*
X344775290Y-133810011D02*
G01*
X344775311Y-133903958D01*
X344775433Y-133984876D01*
X344775740Y-134053847D01*
X344776317Y-134111954D01*
X344777248Y-134160279D01*
X344778617Y-134199904D01*
X344780511Y-134231911D01*
X344783012Y-134257382D01*
X344786207Y-134277400D01*
X344790179Y-134293047D01*
X344795014Y-134305405D01*
X344800797Y-134315556D01*
X344807611Y-134324583D01*
X344815541Y-134333567D01*
X344816333Y-134334434D01*
X344839052Y-134355704D01*
X344863569Y-134370136D01*
X344893485Y-134379093D01*
X344932395Y-134383935D01*
X344949889Y-134384961D01*
X344982021Y-134386069D01*
X345004681Y-134385346D01*
X345022465Y-134382087D01*
X345039968Y-134375587D01*
X345053968Y-134368998D01*
X345081883Y-134352559D01*
X345101540Y-134333064D01*
X345112202Y-134317004D01*
X345131595Y-134284014D01*
X345133558Y-133830695D01*
X345135521Y-133377375D01*
X345297401Y-133377375D01*
X345297401Y-134520375D01*
X345135694Y-134520375D01*
X345133644Y-134463300D01*
X345131595Y-134406225D01*
X345109411Y-134437753D01*
X345074332Y-134475942D01*
X345029698Y-134505954D01*
X344987241Y-134523165D01*
X344951310Y-134530257D01*
X344908145Y-134533475D01*
X344863483Y-134532808D01*
X344823064Y-134528248D01*
X344802546Y-134523431D01*
X344751100Y-134500388D01*
X344706678Y-134465194D01*
X344669475Y-134418042D01*
X344639944Y-134359774D01*
X344623595Y-134319292D01*
X344621549Y-133848333D01*
X344619503Y-133377375D01*
X344775290Y-133377375D01*
X344775290Y-133810011D01*
G37*
X344775290Y-133810011D02*
X344775311Y-133903958D01*
X344775433Y-133984876D01*
X344775740Y-134053847D01*
X344776317Y-134111954D01*
X344777248Y-134160279D01*
X344778617Y-134199904D01*
X344780511Y-134231911D01*
X344783012Y-134257382D01*
X344786207Y-134277400D01*
X344790179Y-134293047D01*
X344795014Y-134305405D01*
X344800797Y-134315556D01*
X344807611Y-134324583D01*
X344815541Y-134333567D01*
X344816333Y-134334434D01*
X344839052Y-134355704D01*
X344863569Y-134370136D01*
X344893485Y-134379093D01*
X344932395Y-134383935D01*
X344949889Y-134384961D01*
X344982021Y-134386069D01*
X345004681Y-134385346D01*
X345022465Y-134382087D01*
X345039968Y-134375587D01*
X345053968Y-134368998D01*
X345081883Y-134352559D01*
X345101540Y-134333064D01*
X345112202Y-134317004D01*
X345131595Y-134284014D01*
X345133558Y-133830695D01*
X345135521Y-133377375D01*
X345297401Y-133377375D01*
X345297401Y-134520375D01*
X345135694Y-134520375D01*
X345133644Y-134463300D01*
X345131595Y-134406225D01*
X345109411Y-134437753D01*
X345074332Y-134475942D01*
X345029698Y-134505954D01*
X344987241Y-134523165D01*
X344951310Y-134530257D01*
X344908145Y-134533475D01*
X344863483Y-134532808D01*
X344823064Y-134528248D01*
X344802546Y-134523431D01*
X344751100Y-134500388D01*
X344706678Y-134465194D01*
X344669475Y-134418042D01*
X344639944Y-134359774D01*
X344623595Y-134319292D01*
X344621549Y-133848333D01*
X344619503Y-133377375D01*
X344775290Y-133377375D01*
X344775290Y-133810011D01*
G36*
X340775766Y-134066228D02*
G01*
X340795319Y-134009048D01*
X340823498Y-133959570D01*
X340849358Y-133927920D01*
X340875526Y-133902517D01*
X340902774Y-133882117D01*
X340933081Y-133866120D01*
X340968425Y-133853930D01*
X341010786Y-133844947D01*
X341062142Y-133838574D01*
X341124473Y-133834211D01*
X341165264Y-133832411D01*
X341305189Y-133827164D01*
X341302690Y-133720450D01*
X341301463Y-133677783D01*
X341299850Y-133646501D01*
X341297497Y-133623880D01*
X341294047Y-133607193D01*
X341289146Y-133593716D01*
X341285081Y-133585514D01*
X341257976Y-133546335D01*
X341223906Y-133518221D01*
X341181483Y-133500355D01*
X341129319Y-133491921D01*
X341125685Y-133491687D01*
X341078393Y-133492061D01*
X341040416Y-133500209D01*
X341008630Y-133517245D01*
X340980772Y-133543297D01*
X340953163Y-133584362D01*
X340939042Y-133629385D01*
X340937067Y-133655124D01*
X340937067Y-133680764D01*
X340781845Y-133680764D01*
X340781949Y-133654306D01*
X340783679Y-133633018D01*
X340788054Y-133605016D01*
X340792720Y-133582597D01*
X340813608Y-133521798D01*
X340845137Y-133469866D01*
X340886630Y-133427240D01*
X340937412Y-133394358D01*
X340996806Y-133371660D01*
X341064136Y-133359584D01*
X341138151Y-133358534D01*
X341211433Y-133367822D01*
X341274608Y-133386714D01*
X341328240Y-133415584D01*
X341372895Y-133454805D01*
X341409138Y-133504750D01*
X341432595Y-133553021D01*
X341435776Y-133561055D01*
X341438510Y-133568988D01*
X341440835Y-133577909D01*
X341442790Y-133588911D01*
X341444415Y-133603083D01*
X341445749Y-133621515D01*
X341446831Y-133645299D01*
X341447700Y-133675524D01*
X341448395Y-133713282D01*
X341448956Y-133759662D01*
X341449420Y-133815755D01*
X341449828Y-133882652D01*
X341450219Y-133961443D01*
X341450631Y-134053218D01*
X341450645Y-134056472D01*
X341452695Y-134520375D01*
X341303956Y-134520375D01*
X341303956Y-134419480D01*
X341283087Y-134448289D01*
X341252523Y-134479679D01*
X341211459Y-134505549D01*
X341163057Y-134523925D01*
X341161180Y-134524432D01*
X341131535Y-134529632D01*
X341093054Y-134532649D01*
X341050514Y-134533484D01*
X341008692Y-134532136D01*
X340972364Y-134528607D01*
X340951179Y-134524413D01*
X340896137Y-134503281D01*
X340850795Y-134472920D01*
X340814924Y-134432954D01*
X340788298Y-134383007D01*
X340770688Y-134322703D01*
X340761868Y-134251666D01*
X340760679Y-134209577D01*
X340761000Y-134202875D01*
X340906219Y-134202875D01*
X340908690Y-134261846D01*
X340917871Y-134309561D01*
X340934302Y-134347457D01*
X340958522Y-134376968D01*
X340977039Y-134391260D01*
X341011553Y-134407004D01*
X341054394Y-134416214D01*
X341101293Y-134418718D01*
X341147982Y-134414345D01*
X341190192Y-134402923D01*
X341197030Y-134400086D01*
X341234848Y-134378502D01*
X341262863Y-134350183D01*
X341283956Y-134313171D01*
X341289195Y-134300744D01*
X341293223Y-134288319D01*
X341296236Y-134273802D01*
X341298430Y-134255100D01*
X341299999Y-134230121D01*
X341301139Y-134196773D01*
X341302045Y-134152963D01*
X341302682Y-134112359D01*
X341305105Y-133947760D01*
X341172239Y-133950082D01*
X341125743Y-133950957D01*
X341090995Y-133951934D01*
X341065632Y-133953322D01*
X341047293Y-133955434D01*
X341033615Y-133958581D01*
X341022236Y-133963072D01*
X341010795Y-133969221D01*
X341006098Y-133971963D01*
X340969651Y-133999668D01*
X340941911Y-134035355D01*
X340922410Y-134080112D01*
X340910676Y-134135024D01*
X340906239Y-134201180D01*
X340906219Y-134202875D01*
X340761000Y-134202875D01*
X340764373Y-134132580D01*
X340775766Y-134066228D01*
G37*
X340775766Y-134066228D02*
X340795319Y-134009048D01*
X340823498Y-133959570D01*
X340849358Y-133927920D01*
X340875526Y-133902517D01*
X340902774Y-133882117D01*
X340933081Y-133866120D01*
X340968425Y-133853930D01*
X341010786Y-133844947D01*
X341062142Y-133838574D01*
X341124473Y-133834211D01*
X341165264Y-133832411D01*
X341305189Y-133827164D01*
X341302690Y-133720450D01*
X341301463Y-133677783D01*
X341299850Y-133646501D01*
X341297497Y-133623880D01*
X341294047Y-133607193D01*
X341289146Y-133593716D01*
X341285081Y-133585514D01*
X341257976Y-133546335D01*
X341223906Y-133518221D01*
X341181483Y-133500355D01*
X341129319Y-133491921D01*
X341125685Y-133491687D01*
X341078393Y-133492061D01*
X341040416Y-133500209D01*
X341008630Y-133517245D01*
X340980772Y-133543297D01*
X340953163Y-133584362D01*
X340939042Y-133629385D01*
X340937067Y-133655124D01*
X340937067Y-133680764D01*
X340781845Y-133680764D01*
X340781949Y-133654306D01*
X340783679Y-133633018D01*
X340788054Y-133605016D01*
X340792720Y-133582597D01*
X340813608Y-133521798D01*
X340845137Y-133469866D01*
X340886630Y-133427240D01*
X340937412Y-133394358D01*
X340996806Y-133371660D01*
X341064136Y-133359584D01*
X341138151Y-133358534D01*
X341211433Y-133367822D01*
X341274608Y-133386714D01*
X341328240Y-133415584D01*
X341372895Y-133454805D01*
X341409138Y-133504750D01*
X341432595Y-133553021D01*
X341435776Y-133561055D01*
X341438510Y-133568988D01*
X341440835Y-133577909D01*
X341442790Y-133588911D01*
X341444415Y-133603083D01*
X341445749Y-133621515D01*
X341446831Y-133645299D01*
X341447700Y-133675524D01*
X341448395Y-133713282D01*
X341448956Y-133759662D01*
X341449420Y-133815755D01*
X341449828Y-133882652D01*
X341450219Y-133961443D01*
X341450631Y-134053218D01*
X341450645Y-134056472D01*
X341452695Y-134520375D01*
X341303956Y-134520375D01*
X341303956Y-134419480D01*
X341283087Y-134448289D01*
X341252523Y-134479679D01*
X341211459Y-134505549D01*
X341163057Y-134523925D01*
X341161180Y-134524432D01*
X341131535Y-134529632D01*
X341093054Y-134532649D01*
X341050514Y-134533484D01*
X341008692Y-134532136D01*
X340972364Y-134528607D01*
X340951179Y-134524413D01*
X340896137Y-134503281D01*
X340850795Y-134472920D01*
X340814924Y-134432954D01*
X340788298Y-134383007D01*
X340770688Y-134322703D01*
X340761868Y-134251666D01*
X340760679Y-134209577D01*
X340761000Y-134202875D01*
X340906219Y-134202875D01*
X340908690Y-134261846D01*
X340917871Y-134309561D01*
X340934302Y-134347457D01*
X340958522Y-134376968D01*
X340977039Y-134391260D01*
X341011553Y-134407004D01*
X341054394Y-134416214D01*
X341101293Y-134418718D01*
X341147982Y-134414345D01*
X341190192Y-134402923D01*
X341197030Y-134400086D01*
X341234848Y-134378502D01*
X341262863Y-134350183D01*
X341283956Y-134313171D01*
X341289195Y-134300744D01*
X341293223Y-134288319D01*
X341296236Y-134273802D01*
X341298430Y-134255100D01*
X341299999Y-134230121D01*
X341301139Y-134196773D01*
X341302045Y-134152963D01*
X341302682Y-134112359D01*
X341305105Y-133947760D01*
X341172239Y-133950082D01*
X341125743Y-133950957D01*
X341090995Y-133951934D01*
X341065632Y-133953322D01*
X341047293Y-133955434D01*
X341033615Y-133958581D01*
X341022236Y-133963072D01*
X341010795Y-133969221D01*
X341006098Y-133971963D01*
X340969651Y-133999668D01*
X340941911Y-134035355D01*
X340922410Y-134080112D01*
X340910676Y-134135024D01*
X340906239Y-134201180D01*
X340906219Y-134202875D01*
X340761000Y-134202875D01*
X340764373Y-134132580D01*
X340775766Y-134066228D01*
G36*
X343759290Y-133137486D02*
G01*
X343597012Y-133137486D01*
X343597012Y-132982264D01*
X343759290Y-132982264D01*
X343759290Y-133137486D01*
G37*
X343759290Y-133137486D02*
X343597012Y-133137486D01*
X343597012Y-132982264D01*
X343759290Y-132982264D01*
X343759290Y-133137486D01*
G36*
X337987500Y-133358729D02*
G01*
X338047546Y-133369012D01*
X338103015Y-133387192D01*
X338151307Y-133413211D01*
X338182422Y-133439006D01*
X338209219Y-133473664D01*
X338232189Y-133517590D01*
X338249122Y-133566034D01*
X338255592Y-133596097D01*
X338261053Y-133629944D01*
X338263167Y-133652223D01*
X338259867Y-133665337D01*
X338249091Y-133671690D01*
X338228773Y-133673684D01*
X338196850Y-133673724D01*
X338188929Y-133673708D01*
X338114845Y-133673708D01*
X338114845Y-133653822D01*
X338109056Y-133612372D01*
X338093084Y-133572981D01*
X338069023Y-133538909D01*
X338038970Y-133513415D01*
X338018114Y-133503300D01*
X337987522Y-133496526D01*
X337950187Y-133494026D01*
X337911236Y-133495598D01*
X337875799Y-133501040D01*
X337849385Y-133509951D01*
X337813090Y-133536240D01*
X337786153Y-133572221D01*
X337769244Y-133616469D01*
X337763030Y-133667559D01*
X337763895Y-133692321D01*
X337771747Y-133736055D01*
X337788423Y-133772656D01*
X337815087Y-133803310D01*
X337852904Y-133829203D01*
X337903038Y-133851522D01*
X337928856Y-133860374D01*
X337995260Y-133881754D01*
X338049702Y-133899812D01*
X338093732Y-133915291D01*
X338128903Y-133928933D01*
X338156766Y-133941480D01*
X338178871Y-133953674D01*
X338196769Y-133966256D01*
X338212013Y-133979970D01*
X338226153Y-133995556D01*
X338235492Y-134007050D01*
X338263701Y-134052974D01*
X338281932Y-134107164D01*
X338290469Y-134170599D01*
X338291234Y-134199127D01*
X338286999Y-134274523D01*
X338274015Y-134339225D01*
X338251862Y-134393932D01*
X338220123Y-134439341D01*
X338178376Y-134476149D01*
X338126204Y-134505054D01*
X338101483Y-134514861D01*
X338079411Y-134521444D01*
X338053960Y-134526046D01*
X338021845Y-134529065D01*
X337979782Y-134530901D01*
X337966679Y-134531237D01*
X337929905Y-134531805D01*
X337896919Y-134531811D01*
X337870964Y-134531289D01*
X337855281Y-134530273D01*
X337853790Y-134530039D01*
X337787956Y-134511900D01*
X337732450Y-134484509D01*
X337686990Y-134447536D01*
X337651291Y-134400654D01*
X337625070Y-134343534D01*
X337608042Y-134275847D01*
X337603094Y-134239917D01*
X337598404Y-134195820D01*
X337746013Y-134195820D01*
X337750762Y-134236389D01*
X337762631Y-134288388D01*
X337784776Y-134330791D01*
X337816917Y-134363365D01*
X337858777Y-134385882D01*
X337910075Y-134398109D01*
X337949040Y-134400431D01*
X338006399Y-134395189D01*
X338054247Y-134379642D01*
X338092310Y-134354060D01*
X338120310Y-134318710D01*
X338137971Y-134273861D01*
X338145019Y-134219783D01*
X338145141Y-134209635D01*
X338143098Y-134172025D01*
X338137558Y-134144020D01*
X338134080Y-134135405D01*
X338112387Y-134104289D01*
X338080845Y-134076808D01*
X338038290Y-134052241D01*
X337983560Y-134029870D01*
X337941984Y-134016484D01*
X337892719Y-134000939D01*
X337844883Y-133984124D01*
X337801546Y-133967236D01*
X337765779Y-133951471D01*
X337740901Y-133938180D01*
X337713141Y-133916615D01*
X337684655Y-133887816D01*
X337659653Y-133856533D01*
X337642343Y-133827520D01*
X337641771Y-133826251D01*
X337624510Y-133773187D01*
X337616260Y-133714970D01*
X337616549Y-133654377D01*
X337624904Y-133594185D01*
X337640854Y-133537170D01*
X337663925Y-133486108D01*
X337693647Y-133443776D01*
X337709515Y-133427917D01*
X337753487Y-133397796D01*
X337805870Y-133375878D01*
X337864065Y-133362101D01*
X337925474Y-133356405D01*
X337987500Y-133358729D01*
G37*
X337987500Y-133358729D02*
X338047546Y-133369012D01*
X338103015Y-133387192D01*
X338151307Y-133413211D01*
X338182422Y-133439006D01*
X338209219Y-133473664D01*
X338232189Y-133517590D01*
X338249122Y-133566034D01*
X338255592Y-133596097D01*
X338261053Y-133629944D01*
X338263167Y-133652223D01*
X338259867Y-133665337D01*
X338249091Y-133671690D01*
X338228773Y-133673684D01*
X338196850Y-133673724D01*
X338188929Y-133673708D01*
X338114845Y-133673708D01*
X338114845Y-133653822D01*
X338109056Y-133612372D01*
X338093084Y-133572981D01*
X338069023Y-133538909D01*
X338038970Y-133513415D01*
X338018114Y-133503300D01*
X337987522Y-133496526D01*
X337950187Y-133494026D01*
X337911236Y-133495598D01*
X337875799Y-133501040D01*
X337849385Y-133509951D01*
X337813090Y-133536240D01*
X337786153Y-133572221D01*
X337769244Y-133616469D01*
X337763030Y-133667559D01*
X337763895Y-133692321D01*
X337771747Y-133736055D01*
X337788423Y-133772656D01*
X337815087Y-133803310D01*
X337852904Y-133829203D01*
X337903038Y-133851522D01*
X337928856Y-133860374D01*
X337995260Y-133881754D01*
X338049702Y-133899812D01*
X338093732Y-133915291D01*
X338128903Y-133928933D01*
X338156766Y-133941480D01*
X338178871Y-133953674D01*
X338196769Y-133966256D01*
X338212013Y-133979970D01*
X338226153Y-133995556D01*
X338235492Y-134007050D01*
X338263701Y-134052974D01*
X338281932Y-134107164D01*
X338290469Y-134170599D01*
X338291234Y-134199127D01*
X338286999Y-134274523D01*
X338274015Y-134339225D01*
X338251862Y-134393932D01*
X338220123Y-134439341D01*
X338178376Y-134476149D01*
X338126204Y-134505054D01*
X338101483Y-134514861D01*
X338079411Y-134521444D01*
X338053960Y-134526046D01*
X338021845Y-134529065D01*
X337979782Y-134530901D01*
X337966679Y-134531237D01*
X337929905Y-134531805D01*
X337896919Y-134531811D01*
X337870964Y-134531289D01*
X337855281Y-134530273D01*
X337853790Y-134530039D01*
X337787956Y-134511900D01*
X337732450Y-134484509D01*
X337686990Y-134447536D01*
X337651291Y-134400654D01*
X337625070Y-134343534D01*
X337608042Y-134275847D01*
X337603094Y-134239917D01*
X337598404Y-134195820D01*
X337746013Y-134195820D01*
X337750762Y-134236389D01*
X337762631Y-134288388D01*
X337784776Y-134330791D01*
X337816917Y-134363365D01*
X337858777Y-134385882D01*
X337910075Y-134398109D01*
X337949040Y-134400431D01*
X338006399Y-134395189D01*
X338054247Y-134379642D01*
X338092310Y-134354060D01*
X338120310Y-134318710D01*
X338137971Y-134273861D01*
X338145019Y-134219783D01*
X338145141Y-134209635D01*
X338143098Y-134172025D01*
X338137558Y-134144020D01*
X338134080Y-134135405D01*
X338112387Y-134104289D01*
X338080845Y-134076808D01*
X338038290Y-134052241D01*
X337983560Y-134029870D01*
X337941984Y-134016484D01*
X337892719Y-134000939D01*
X337844883Y-133984124D01*
X337801546Y-133967236D01*
X337765779Y-133951471D01*
X337740901Y-133938180D01*
X337713141Y-133916615D01*
X337684655Y-133887816D01*
X337659653Y-133856533D01*
X337642343Y-133827520D01*
X337641771Y-133826251D01*
X337624510Y-133773187D01*
X337616260Y-133714970D01*
X337616549Y-133654377D01*
X337624904Y-133594185D01*
X337640854Y-133537170D01*
X337663925Y-133486108D01*
X337693647Y-133443776D01*
X337709515Y-133427917D01*
X337753487Y-133397796D01*
X337805870Y-133375878D01*
X337864065Y-133362101D01*
X337925474Y-133356405D01*
X337987500Y-133358729D01*
G36*
X339450920Y-133414417D02*
G01*
X339455119Y-133429439D01*
X339462547Y-133456426D01*
X339472753Y-133493722D01*
X339485288Y-133539669D01*
X339499703Y-133592610D01*
X339515548Y-133650886D01*
X339532373Y-133712840D01*
X339549729Y-133776815D01*
X339567167Y-133841153D01*
X339584237Y-133904197D01*
X339600490Y-133964289D01*
X339615476Y-134019772D01*
X339628745Y-134068988D01*
X339639848Y-134110279D01*
X339648336Y-134141988D01*
X339653257Y-134160542D01*
X339660943Y-134188753D01*
X339667858Y-134212292D01*
X339672870Y-134227372D01*
X339674037Y-134230092D01*
X339676571Y-134225138D01*
X339682176Y-134207604D01*
X339690554Y-134178613D01*
X339701404Y-134139286D01*
X339714425Y-134090746D01*
X339729318Y-134034115D01*
X339745782Y-133970515D01*
X339763517Y-133901069D01*
X339782223Y-133826898D01*
X339786822Y-133808522D01*
X339894584Y-133377375D01*
X339974854Y-133377375D01*
X340011783Y-133377800D01*
X340036326Y-133379203D01*
X340050184Y-133381774D01*
X340055060Y-133385702D01*
X340055123Y-133386336D01*
X340053335Y-133397230D01*
X340048630Y-133417449D01*
X340041999Y-133442757D01*
X340041507Y-133444545D01*
X340037751Y-133458344D01*
X340030624Y-133484755D01*
X340020397Y-133522759D01*
X340007345Y-133571337D01*
X339991740Y-133629468D01*
X339973857Y-133696134D01*
X339953969Y-133770314D01*
X339932349Y-133850989D01*
X339909271Y-133937140D01*
X339885008Y-134027746D01*
X339859833Y-134121789D01*
X339850601Y-134156284D01*
X339825197Y-134250917D01*
X339800542Y-134342180D01*
X339776911Y-134429085D01*
X339754582Y-134510643D01*
X339733829Y-134585866D01*
X339714928Y-134653764D01*
X339698155Y-134713349D01*
X339683786Y-134763632D01*
X339672097Y-134803625D01*
X339663363Y-134832338D01*
X339657861Y-134848784D01*
X339656655Y-134851650D01*
X339628708Y-134894971D01*
X339592387Y-134930186D01*
X339546673Y-134957844D01*
X339490549Y-134978494D01*
X339422995Y-134992686D01*
X339386609Y-134997323D01*
X339342512Y-135001976D01*
X339342512Y-134846863D01*
X339386817Y-134843306D01*
X339438465Y-134832841D01*
X339482704Y-134810375D01*
X339519425Y-134775983D01*
X339546888Y-134733056D01*
X339554409Y-134714628D01*
X339563848Y-134686539D01*
X339574309Y-134652082D01*
X339584895Y-134614548D01*
X339594709Y-134577227D01*
X339602855Y-134543412D01*
X339608437Y-134516395D01*
X339610556Y-134499465D01*
X339610557Y-134499342D01*
X339608563Y-134489999D01*
X339602765Y-134468202D01*
X339593468Y-134434998D01*
X339580979Y-134391431D01*
X339565604Y-134338548D01*
X339547649Y-134277393D01*
X339527421Y-134209013D01*
X339505226Y-134134453D01*
X339481369Y-134054758D01*
X339456158Y-133970975D01*
X339444817Y-133933423D01*
X339419174Y-133848561D01*
X339394744Y-133767624D01*
X339371831Y-133691623D01*
X339350738Y-133621572D01*
X339331771Y-133558482D01*
X339315232Y-133503367D01*
X339301426Y-133457239D01*
X339290656Y-133421110D01*
X339283228Y-133395993D01*
X339279445Y-133382900D01*
X339279012Y-133381193D01*
X339285601Y-133379685D01*
X339303507Y-133378459D01*
X339329936Y-133377645D01*
X339359650Y-133377375D01*
X339440288Y-133377375D01*
X339450920Y-133414417D01*
G37*
X339450920Y-133414417D02*
X339455119Y-133429439D01*
X339462547Y-133456426D01*
X339472753Y-133493722D01*
X339485288Y-133539669D01*
X339499703Y-133592610D01*
X339515548Y-133650886D01*
X339532373Y-133712840D01*
X339549729Y-133776815D01*
X339567167Y-133841153D01*
X339584237Y-133904197D01*
X339600490Y-133964289D01*
X339615476Y-134019772D01*
X339628745Y-134068988D01*
X339639848Y-134110279D01*
X339648336Y-134141988D01*
X339653257Y-134160542D01*
X339660943Y-134188753D01*
X339667858Y-134212292D01*
X339672870Y-134227372D01*
X339674037Y-134230092D01*
X339676571Y-134225138D01*
X339682176Y-134207604D01*
X339690554Y-134178613D01*
X339701404Y-134139286D01*
X339714425Y-134090746D01*
X339729318Y-134034115D01*
X339745782Y-133970515D01*
X339763517Y-133901069D01*
X339782223Y-133826898D01*
X339786822Y-133808522D01*
X339894584Y-133377375D01*
X339974854Y-133377375D01*
X340011783Y-133377800D01*
X340036326Y-133379203D01*
X340050184Y-133381774D01*
X340055060Y-133385702D01*
X340055123Y-133386336D01*
X340053335Y-133397230D01*
X340048630Y-133417449D01*
X340041999Y-133442757D01*
X340041507Y-133444545D01*
X340037751Y-133458344D01*
X340030624Y-133484755D01*
X340020397Y-133522759D01*
X340007345Y-133571337D01*
X339991740Y-133629468D01*
X339973857Y-133696134D01*
X339953969Y-133770314D01*
X339932349Y-133850989D01*
X339909271Y-133937140D01*
X339885008Y-134027746D01*
X339859833Y-134121789D01*
X339850601Y-134156284D01*
X339825197Y-134250917D01*
X339800542Y-134342180D01*
X339776911Y-134429085D01*
X339754582Y-134510643D01*
X339733829Y-134585866D01*
X339714928Y-134653764D01*
X339698155Y-134713349D01*
X339683786Y-134763632D01*
X339672097Y-134803625D01*
X339663363Y-134832338D01*
X339657861Y-134848784D01*
X339656655Y-134851650D01*
X339628708Y-134894971D01*
X339592387Y-134930186D01*
X339546673Y-134957844D01*
X339490549Y-134978494D01*
X339422995Y-134992686D01*
X339386609Y-134997323D01*
X339342512Y-135001976D01*
X339342512Y-134846863D01*
X339386817Y-134843306D01*
X339438465Y-134832841D01*
X339482704Y-134810375D01*
X339519425Y-134775983D01*
X339546888Y-134733056D01*
X339554409Y-134714628D01*
X339563848Y-134686539D01*
X339574309Y-134652082D01*
X339584895Y-134614548D01*
X339594709Y-134577227D01*
X339602855Y-134543412D01*
X339608437Y-134516395D01*
X339610556Y-134499465D01*
X339610557Y-134499342D01*
X339608563Y-134489999D01*
X339602765Y-134468202D01*
X339593468Y-134434998D01*
X339580979Y-134391431D01*
X339565604Y-134338548D01*
X339547649Y-134277393D01*
X339527421Y-134209013D01*
X339505226Y-134134453D01*
X339481369Y-134054758D01*
X339456158Y-133970975D01*
X339444817Y-133933423D01*
X339419174Y-133848561D01*
X339394744Y-133767624D01*
X339371831Y-133691623D01*
X339350738Y-133621572D01*
X339331771Y-133558482D01*
X339315232Y-133503367D01*
X339301426Y-133457239D01*
X339290656Y-133421110D01*
X339283228Y-133395993D01*
X339279445Y-133382900D01*
X339279012Y-133381193D01*
X339285601Y-133379685D01*
X339303507Y-133378459D01*
X339329936Y-133377645D01*
X339359650Y-133377375D01*
X339440288Y-133377375D01*
X339450920Y-133414417D01*
G36*
X346906067Y-133137486D02*
G01*
X346743790Y-133137486D01*
X346743790Y-132982264D01*
X346906067Y-132982264D01*
X346906067Y-133137486D01*
G37*
X346906067Y-133137486D02*
X346743790Y-133137486D01*
X346743790Y-132982264D01*
X346906067Y-132982264D01*
X346906067Y-133137486D01*
G36*
X346906067Y-134520375D02*
G01*
X346743790Y-134520375D01*
X346743790Y-133377375D01*
X346906067Y-133377375D01*
X346906067Y-134520375D01*
G37*
X346906067Y-134520375D02*
X346743790Y-134520375D01*
X346743790Y-133377375D01*
X346906067Y-133377375D01*
X346906067Y-134520375D01*
G36*
X345727790Y-133377375D02*
G01*
X345946512Y-133377375D01*
X345946512Y-133525542D01*
X345727790Y-133525542D01*
X345728099Y-133897722D01*
X345728204Y-133983579D01*
X345728422Y-134056500D01*
X345728840Y-134117662D01*
X345729544Y-134168240D01*
X345730623Y-134209410D01*
X345732161Y-134242347D01*
X345734247Y-134268227D01*
X345736966Y-134288227D01*
X345740406Y-134303522D01*
X345744654Y-134315286D01*
X345749796Y-134324698D01*
X345755920Y-134332931D01*
X345760633Y-134338394D01*
X345787828Y-134359635D01*
X345825081Y-134373008D01*
X345873306Y-134378805D01*
X345888304Y-134379109D01*
X345946512Y-134379264D01*
X345946512Y-134527431D01*
X345874192Y-134526601D01*
X345839490Y-134525693D01*
X345806287Y-134523945D01*
X345779564Y-134521657D01*
X345769713Y-134520324D01*
X345713528Y-134504827D01*
X345666638Y-134478872D01*
X345628937Y-134442338D01*
X345600320Y-134395101D01*
X345580680Y-134337039D01*
X345572444Y-134291657D01*
X345571158Y-134274745D01*
X345569947Y-134245306D01*
X345568839Y-134204924D01*
X345567859Y-134155184D01*
X345567032Y-134097669D01*
X345566386Y-134033964D01*
X345565947Y-133965653D01*
X345565739Y-133894320D01*
X345565730Y-133883611D01*
X345565512Y-133525542D01*
X345452623Y-133525542D01*
X345452623Y-133377375D01*
X345565512Y-133377375D01*
X345565512Y-133045764D01*
X345727790Y-133045764D01*
X345727790Y-133377375D01*
G37*
X345727790Y-133377375D02*
X345946512Y-133377375D01*
X345946512Y-133525542D01*
X345727790Y-133525542D01*
X345728099Y-133897722D01*
X345728204Y-133983579D01*
X345728422Y-134056500D01*
X345728840Y-134117662D01*
X345729544Y-134168240D01*
X345730623Y-134209410D01*
X345732161Y-134242347D01*
X345734247Y-134268227D01*
X345736966Y-134288227D01*
X345740406Y-134303522D01*
X345744654Y-134315286D01*
X345749796Y-134324698D01*
X345755920Y-134332931D01*
X345760633Y-134338394D01*
X345787828Y-134359635D01*
X345825081Y-134373008D01*
X345873306Y-134378805D01*
X345888304Y-134379109D01*
X345946512Y-134379264D01*
X345946512Y-134527431D01*
X345874192Y-134526601D01*
X345839490Y-134525693D01*
X345806287Y-134523945D01*
X345779564Y-134521657D01*
X345769713Y-134520324D01*
X345713528Y-134504827D01*
X345666638Y-134478872D01*
X345628937Y-134442338D01*
X345600320Y-134395101D01*
X345580680Y-134337039D01*
X345572444Y-134291657D01*
X345571158Y-134274745D01*
X345569947Y-134245306D01*
X345568839Y-134204924D01*
X345567859Y-134155184D01*
X345567032Y-134097669D01*
X345566386Y-134033964D01*
X345565947Y-133965653D01*
X345565739Y-133894320D01*
X345565730Y-133883611D01*
X345565512Y-133525542D01*
X345452623Y-133525542D01*
X345452623Y-133377375D01*
X345565512Y-133377375D01*
X345565512Y-133045764D01*
X345727790Y-133045764D01*
X345727790Y-133377375D01*
G36*
X343127817Y-133366313D02*
G01*
X343183209Y-133385036D01*
X343229409Y-133413403D01*
X343266842Y-133451937D01*
X343295927Y-133501166D01*
X343317088Y-133561614D01*
X343328223Y-133615987D01*
X343330055Y-133635509D01*
X343331654Y-133668693D01*
X343333012Y-133715088D01*
X343334122Y-133774247D01*
X343334978Y-133845719D01*
X343335571Y-133929058D01*
X343335894Y-134023813D01*
X343335956Y-134093102D01*
X343335956Y-134520375D01*
X343173679Y-134520375D01*
X343173679Y-134089583D01*
X343173548Y-133986074D01*
X343173158Y-133895201D01*
X343172513Y-133817182D01*
X343171616Y-133752239D01*
X343170470Y-133700589D01*
X343169080Y-133662455D01*
X343167449Y-133638054D01*
X343166152Y-133629208D01*
X343148394Y-133584781D01*
X343120354Y-133549890D01*
X343082408Y-133524822D01*
X343034933Y-133509865D01*
X343005109Y-133506067D01*
X342953435Y-133507132D01*
X342907748Y-133517586D01*
X342870429Y-133536761D01*
X342857289Y-133547770D01*
X342844925Y-133560372D01*
X342834246Y-133573004D01*
X342825126Y-133586750D01*
X342817445Y-133602696D01*
X342811078Y-133621928D01*
X342805904Y-133645533D01*
X342801798Y-133674595D01*
X342798639Y-133710201D01*
X342796304Y-133753436D01*
X342794669Y-133805387D01*
X342793612Y-133867139D01*
X342793010Y-133939777D01*
X342792739Y-134024389D01*
X342792679Y-134118829D01*
X342792679Y-134520375D01*
X342637456Y-134520375D01*
X342637456Y-133377375D01*
X342790915Y-133377375D01*
X342795324Y-133399424D01*
X342797764Y-133418818D01*
X342799365Y-133445353D01*
X342799734Y-133464305D01*
X342799734Y-133507138D01*
X342819664Y-133475770D01*
X342856434Y-133430483D01*
X342901868Y-133395542D01*
X342954502Y-133371467D01*
X343012873Y-133358778D01*
X343075516Y-133357996D01*
X343127817Y-133366313D01*
G37*
X343127817Y-133366313D02*
X343183209Y-133385036D01*
X343229409Y-133413403D01*
X343266842Y-133451937D01*
X343295927Y-133501166D01*
X343317088Y-133561614D01*
X343328223Y-133615987D01*
X343330055Y-133635509D01*
X343331654Y-133668693D01*
X343333012Y-133715088D01*
X343334122Y-133774247D01*
X343334978Y-133845719D01*
X343335571Y-133929058D01*
X343335894Y-134023813D01*
X343335956Y-134093102D01*
X343335956Y-134520375D01*
X343173679Y-134520375D01*
X343173679Y-134089583D01*
X343173548Y-133986074D01*
X343173158Y-133895201D01*
X343172513Y-133817182D01*
X343171616Y-133752239D01*
X343170470Y-133700589D01*
X343169080Y-133662455D01*
X343167449Y-133638054D01*
X343166152Y-133629208D01*
X343148394Y-133584781D01*
X343120354Y-133549890D01*
X343082408Y-133524822D01*
X343034933Y-133509865D01*
X343005109Y-133506067D01*
X342953435Y-133507132D01*
X342907748Y-133517586D01*
X342870429Y-133536761D01*
X342857289Y-133547770D01*
X342844925Y-133560372D01*
X342834246Y-133573004D01*
X342825126Y-133586750D01*
X342817445Y-133602696D01*
X342811078Y-133621928D01*
X342805904Y-133645533D01*
X342801798Y-133674595D01*
X342798639Y-133710201D01*
X342796304Y-133753436D01*
X342794669Y-133805387D01*
X342793612Y-133867139D01*
X342793010Y-133939777D01*
X342792739Y-134024389D01*
X342792679Y-134118829D01*
X342792679Y-134520375D01*
X342637456Y-134520375D01*
X342637456Y-133377375D01*
X342790915Y-133377375D01*
X342795324Y-133399424D01*
X342797764Y-133418818D01*
X342799365Y-133445353D01*
X342799734Y-133464305D01*
X342799734Y-133507138D01*
X342819664Y-133475770D01*
X342856434Y-133430483D01*
X342901868Y-133395542D01*
X342954502Y-133371467D01*
X343012873Y-133358778D01*
X343075516Y-133357996D01*
X343127817Y-133366313D01*
G36*
X350903438Y-133390788D02*
G01*
X350903754Y-133335600D01*
X350904201Y-133289598D01*
X350904801Y-133251797D01*
X350905577Y-133221211D01*
X350906550Y-133196856D01*
X350907742Y-133177746D01*
X350909175Y-133162897D01*
X350910873Y-133151323D01*
X350912856Y-133142039D01*
X350915147Y-133134060D01*
X350916354Y-133130431D01*
X350933394Y-133086096D01*
X350951787Y-133050779D01*
X350974435Y-133019468D01*
X350992214Y-132999526D01*
X351032655Y-132965145D01*
X351082201Y-132936328D01*
X351136156Y-132915687D01*
X351148984Y-132912302D01*
X351182210Y-132907115D01*
X351224390Y-132904541D01*
X351270625Y-132904507D01*
X351316014Y-132906944D01*
X351355659Y-132911781D01*
X351373609Y-132915533D01*
X351436159Y-132938512D01*
X351490497Y-132972674D01*
X351535845Y-133017208D01*
X351571427Y-133071303D01*
X351596465Y-133134148D01*
X351601486Y-133153226D01*
X351603509Y-133163733D01*
X351605263Y-133177542D01*
X351606765Y-133195629D01*
X351608033Y-133218971D01*
X351609085Y-133248545D01*
X351609939Y-133285327D01*
X351610614Y-133330293D01*
X351611126Y-133384420D01*
X351611494Y-133448684D01*
X351611736Y-133524061D01*
X351611870Y-133611529D01*
X351611914Y-133712063D01*
X351611914Y-133719570D01*
X351611901Y-133822512D01*
X351611821Y-133912375D01*
X351611610Y-133990188D01*
X351611207Y-134056984D01*
X351610549Y-134113792D01*
X351609573Y-134161644D01*
X351608218Y-134201571D01*
X351606421Y-134234604D01*
X351604119Y-134261773D01*
X351601251Y-134284111D01*
X351597753Y-134302647D01*
X351593563Y-134318413D01*
X351588620Y-134332440D01*
X351582860Y-134345758D01*
X351576220Y-134359400D01*
X351572774Y-134366225D01*
X351539067Y-134417489D01*
X351494437Y-134461214D01*
X351440647Y-134496041D01*
X351379460Y-134520614D01*
X351368413Y-134523683D01*
X351334898Y-134529585D01*
X351292643Y-134532950D01*
X351246496Y-134533780D01*
X351201305Y-134532076D01*
X351161916Y-134527841D01*
X351141267Y-134523609D01*
X351077453Y-134500428D01*
X351023522Y-134467605D01*
X350978753Y-134424473D01*
X350942423Y-134370368D01*
X350918947Y-134318728D01*
X350903040Y-134276958D01*
X350903040Y-133723097D01*
X350903053Y-133621316D01*
X350903110Y-133532661D01*
X350903187Y-133483455D01*
X351055582Y-133483455D01*
X351055610Y-133560110D01*
X351055859Y-133648851D01*
X351056273Y-133747792D01*
X351056733Y-133843237D01*
X351057196Y-133925610D01*
X351057690Y-133995954D01*
X351058246Y-134055306D01*
X351058891Y-134104708D01*
X351059657Y-134145200D01*
X351060571Y-134177822D01*
X351061664Y-134203614D01*
X351062965Y-134223616D01*
X351064503Y-134238868D01*
X351066308Y-134250411D01*
X351068409Y-134259285D01*
X351070835Y-134266530D01*
X351070927Y-134266770D01*
X351095040Y-134312821D01*
X351127524Y-134347605D01*
X351168563Y-134371241D01*
X351218340Y-134383846D01*
X351255817Y-134386182D01*
X351290236Y-134385060D01*
X351316348Y-134381007D01*
X351339830Y-134372991D01*
X351347540Y-134369504D01*
X351385635Y-134346389D01*
X351414647Y-134316121D01*
X351437120Y-134276958D01*
X351453373Y-134241681D01*
X351453373Y-133197458D01*
X351436654Y-133160476D01*
X351412288Y-133121111D01*
X351378855Y-133087418D01*
X351340489Y-133063526D01*
X351338877Y-133062818D01*
X351311995Y-133055532D01*
X351276849Y-133051778D01*
X351238787Y-133051563D01*
X351203157Y-133054891D01*
X351175306Y-133061769D01*
X351173177Y-133062643D01*
X351138799Y-133082781D01*
X351107626Y-133110504D01*
X351084744Y-133141193D01*
X351082928Y-133144596D01*
X351077517Y-133156000D01*
X351072827Y-133168206D01*
X351068812Y-133182242D01*
X351065428Y-133199132D01*
X351062628Y-133219902D01*
X351060369Y-133245579D01*
X351058604Y-133277187D01*
X351057288Y-133315753D01*
X351056376Y-133362303D01*
X351055823Y-133417861D01*
X351055582Y-133483455D01*
X350903187Y-133483455D01*
X350903230Y-133456146D01*
X350903438Y-133390788D01*
G37*
X350903438Y-133390788D02*
X350903754Y-133335600D01*
X350904201Y-133289598D01*
X350904801Y-133251797D01*
X350905577Y-133221211D01*
X350906550Y-133196856D01*
X350907742Y-133177746D01*
X350909175Y-133162897D01*
X350910873Y-133151323D01*
X350912856Y-133142039D01*
X350915147Y-133134060D01*
X350916354Y-133130431D01*
X350933394Y-133086096D01*
X350951787Y-133050779D01*
X350974435Y-133019468D01*
X350992214Y-132999526D01*
X351032655Y-132965145D01*
X351082201Y-132936328D01*
X351136156Y-132915687D01*
X351148984Y-132912302D01*
X351182210Y-132907115D01*
X351224390Y-132904541D01*
X351270625Y-132904507D01*
X351316014Y-132906944D01*
X351355659Y-132911781D01*
X351373609Y-132915533D01*
X351436159Y-132938512D01*
X351490497Y-132972674D01*
X351535845Y-133017208D01*
X351571427Y-133071303D01*
X351596465Y-133134148D01*
X351601486Y-133153226D01*
X351603509Y-133163733D01*
X351605263Y-133177542D01*
X351606765Y-133195629D01*
X351608033Y-133218971D01*
X351609085Y-133248545D01*
X351609939Y-133285327D01*
X351610614Y-133330293D01*
X351611126Y-133384420D01*
X351611494Y-133448684D01*
X351611736Y-133524061D01*
X351611870Y-133611529D01*
X351611914Y-133712063D01*
X351611914Y-133719570D01*
X351611901Y-133822512D01*
X351611821Y-133912375D01*
X351611610Y-133990188D01*
X351611207Y-134056984D01*
X351610549Y-134113792D01*
X351609573Y-134161644D01*
X351608218Y-134201571D01*
X351606421Y-134234604D01*
X351604119Y-134261773D01*
X351601251Y-134284111D01*
X351597753Y-134302647D01*
X351593563Y-134318413D01*
X351588620Y-134332440D01*
X351582860Y-134345758D01*
X351576220Y-134359400D01*
X351572774Y-134366225D01*
X351539067Y-134417489D01*
X351494437Y-134461214D01*
X351440647Y-134496041D01*
X351379460Y-134520614D01*
X351368413Y-134523683D01*
X351334898Y-134529585D01*
X351292643Y-134532950D01*
X351246496Y-134533780D01*
X351201305Y-134532076D01*
X351161916Y-134527841D01*
X351141267Y-134523609D01*
X351077453Y-134500428D01*
X351023522Y-134467605D01*
X350978753Y-134424473D01*
X350942423Y-134370368D01*
X350918947Y-134318728D01*
X350903040Y-134276958D01*
X350903040Y-133723097D01*
X350903053Y-133621316D01*
X350903110Y-133532661D01*
X350903187Y-133483455D01*
X351055582Y-133483455D01*
X351055610Y-133560110D01*
X351055859Y-133648851D01*
X351056273Y-133747792D01*
X351056733Y-133843237D01*
X351057196Y-133925610D01*
X351057690Y-133995954D01*
X351058246Y-134055306D01*
X351058891Y-134104708D01*
X351059657Y-134145200D01*
X351060571Y-134177822D01*
X351061664Y-134203614D01*
X351062965Y-134223616D01*
X351064503Y-134238868D01*
X351066308Y-134250411D01*
X351068409Y-134259285D01*
X351070835Y-134266530D01*
X351070927Y-134266770D01*
X351095040Y-134312821D01*
X351127524Y-134347605D01*
X351168563Y-134371241D01*
X351218340Y-134383846D01*
X351255817Y-134386182D01*
X351290236Y-134385060D01*
X351316348Y-134381007D01*
X351339830Y-134372991D01*
X351347540Y-134369504D01*
X351385635Y-134346389D01*
X351414647Y-134316121D01*
X351437120Y-134276958D01*
X351453373Y-134241681D01*
X351453373Y-133197458D01*
X351436654Y-133160476D01*
X351412288Y-133121111D01*
X351378855Y-133087418D01*
X351340489Y-133063526D01*
X351338877Y-133062818D01*
X351311995Y-133055532D01*
X351276849Y-133051778D01*
X351238787Y-133051563D01*
X351203157Y-133054891D01*
X351175306Y-133061769D01*
X351173177Y-133062643D01*
X351138799Y-133082781D01*
X351107626Y-133110504D01*
X351084744Y-133141193D01*
X351082928Y-133144596D01*
X351077517Y-133156000D01*
X351072827Y-133168206D01*
X351068812Y-133182242D01*
X351065428Y-133199132D01*
X351062628Y-133219902D01*
X351060369Y-133245579D01*
X351058604Y-133277187D01*
X351057288Y-133315753D01*
X351056376Y-133362303D01*
X351055823Y-133417861D01*
X351055582Y-133483455D01*
X350903187Y-133483455D01*
X350903230Y-133456146D01*
X350903438Y-133390788D01*
G36*
X336306452Y-133358440D02*
G01*
X336378325Y-133369347D01*
X336441979Y-133391106D01*
X336496853Y-133423325D01*
X336542387Y-133465609D01*
X336578022Y-133517566D01*
X336598244Y-133563573D01*
X336604165Y-133584664D01*
X336609893Y-133612232D01*
X336614973Y-133642844D01*
X336618948Y-133673072D01*
X336621362Y-133699482D01*
X336621757Y-133718644D01*
X336619969Y-133726899D01*
X336611983Y-133728259D01*
X336593025Y-133729340D01*
X336566236Y-133730006D01*
X336544782Y-133730153D01*
X336472849Y-133730153D01*
X336468056Y-133683368D01*
X336460363Y-133637002D01*
X336447056Y-133600436D01*
X336426655Y-133569983D01*
X336419390Y-133561965D01*
X336391749Y-133536917D01*
X336363523Y-133520603D01*
X336330719Y-133511513D01*
X336289345Y-133508134D01*
X336276873Y-133508004D01*
X336230737Y-133510498D01*
X336194613Y-133518871D01*
X336165150Y-133534465D01*
X336139000Y-133558619D01*
X336133113Y-133565511D01*
X336123150Y-133577950D01*
X336114848Y-133589863D01*
X336108058Y-133602618D01*
X336102627Y-133617581D01*
X336098405Y-133636120D01*
X336095239Y-133659601D01*
X336092980Y-133689392D01*
X336091475Y-133726860D01*
X336090573Y-133773371D01*
X336090124Y-133830292D01*
X336089975Y-133898991D01*
X336089970Y-133955424D01*
X336090039Y-134255792D01*
X336106675Y-134291070D01*
X336131530Y-134330875D01*
X336163768Y-134359530D01*
X336204363Y-134377593D01*
X336254287Y-134385623D01*
X336272527Y-134386165D01*
X336318157Y-134384057D01*
X336354115Y-134376547D01*
X336384235Y-134362319D01*
X336412351Y-134340055D01*
X336415482Y-134337064D01*
X336445130Y-134298890D01*
X336464144Y-134253722D01*
X336470900Y-134205424D01*
X336470901Y-134205122D01*
X336470901Y-134181708D01*
X336626123Y-134181708D01*
X336626070Y-134201111D01*
X336620716Y-134257654D01*
X336605981Y-134315212D01*
X336583404Y-134369822D01*
X336554521Y-134417521D01*
X336531663Y-134444388D01*
X336493060Y-134475496D01*
X336445667Y-134502069D01*
X336394684Y-134521399D01*
X336373540Y-134526689D01*
X336339860Y-134531324D01*
X336298327Y-134533545D01*
X336253808Y-134533425D01*
X336211173Y-134531038D01*
X336175291Y-134526457D01*
X336161908Y-134523503D01*
X336097845Y-134500051D01*
X336043955Y-134466834D01*
X336000063Y-134423678D01*
X335965991Y-134370407D01*
X335941560Y-134306845D01*
X335941087Y-134305181D01*
X335938627Y-134293698D01*
X335936584Y-134277476D01*
X335934923Y-134255318D01*
X335933612Y-134226029D01*
X335932618Y-134188412D01*
X335931909Y-134141271D01*
X335931450Y-134083411D01*
X335931209Y-134013636D01*
X335931151Y-133945347D01*
X335931164Y-133869239D01*
X335931244Y-133805870D01*
X335931451Y-133753864D01*
X335931847Y-133711851D01*
X335932492Y-133678455D01*
X335933448Y-133652305D01*
X335934774Y-133632027D01*
X335936533Y-133616248D01*
X335938784Y-133603594D01*
X335941590Y-133592693D01*
X335945010Y-133582170D01*
X335947575Y-133574931D01*
X335976933Y-133511254D01*
X336015394Y-133458270D01*
X336062621Y-133416180D01*
X336118275Y-133385189D01*
X336182018Y-133365502D01*
X336253512Y-133357322D01*
X336306452Y-133358440D01*
G37*
X336306452Y-133358440D02*
X336378325Y-133369347D01*
X336441979Y-133391106D01*
X336496853Y-133423325D01*
X336542387Y-133465609D01*
X336578022Y-133517566D01*
X336598244Y-133563573D01*
X336604165Y-133584664D01*
X336609893Y-133612232D01*
X336614973Y-133642844D01*
X336618948Y-133673072D01*
X336621362Y-133699482D01*
X336621757Y-133718644D01*
X336619969Y-133726899D01*
X336611983Y-133728259D01*
X336593025Y-133729340D01*
X336566236Y-133730006D01*
X336544782Y-133730153D01*
X336472849Y-133730153D01*
X336468056Y-133683368D01*
X336460363Y-133637002D01*
X336447056Y-133600436D01*
X336426655Y-133569983D01*
X336419390Y-133561965D01*
X336391749Y-133536917D01*
X336363523Y-133520603D01*
X336330719Y-133511513D01*
X336289345Y-133508134D01*
X336276873Y-133508004D01*
X336230737Y-133510498D01*
X336194613Y-133518871D01*
X336165150Y-133534465D01*
X336139000Y-133558619D01*
X336133113Y-133565511D01*
X336123150Y-133577950D01*
X336114848Y-133589863D01*
X336108058Y-133602618D01*
X336102627Y-133617581D01*
X336098405Y-133636120D01*
X336095239Y-133659601D01*
X336092980Y-133689392D01*
X336091475Y-133726860D01*
X336090573Y-133773371D01*
X336090124Y-133830292D01*
X336089975Y-133898991D01*
X336089970Y-133955424D01*
X336090039Y-134255792D01*
X336106675Y-134291070D01*
X336131530Y-134330875D01*
X336163768Y-134359530D01*
X336204363Y-134377593D01*
X336254287Y-134385623D01*
X336272527Y-134386165D01*
X336318157Y-134384057D01*
X336354115Y-134376547D01*
X336384235Y-134362319D01*
X336412351Y-134340055D01*
X336415482Y-134337064D01*
X336445130Y-134298890D01*
X336464144Y-134253722D01*
X336470900Y-134205424D01*
X336470901Y-134205122D01*
X336470901Y-134181708D01*
X336626123Y-134181708D01*
X336626070Y-134201111D01*
X336620716Y-134257654D01*
X336605981Y-134315212D01*
X336583404Y-134369822D01*
X336554521Y-134417521D01*
X336531663Y-134444388D01*
X336493060Y-134475496D01*
X336445667Y-134502069D01*
X336394684Y-134521399D01*
X336373540Y-134526689D01*
X336339860Y-134531324D01*
X336298327Y-134533545D01*
X336253808Y-134533425D01*
X336211173Y-134531038D01*
X336175291Y-134526457D01*
X336161908Y-134523503D01*
X336097845Y-134500051D01*
X336043955Y-134466834D01*
X336000063Y-134423678D01*
X335965991Y-134370407D01*
X335941560Y-134306845D01*
X335941087Y-134305181D01*
X335938627Y-134293698D01*
X335936584Y-134277476D01*
X335934923Y-134255318D01*
X335933612Y-134226029D01*
X335932618Y-134188412D01*
X335931909Y-134141271D01*
X335931450Y-134083411D01*
X335931209Y-134013636D01*
X335931151Y-133945347D01*
X335931164Y-133869239D01*
X335931244Y-133805870D01*
X335931451Y-133753864D01*
X335931847Y-133711851D01*
X335932492Y-133678455D01*
X335933448Y-133652305D01*
X335934774Y-133632027D01*
X335936533Y-133616248D01*
X335938784Y-133603594D01*
X335941590Y-133592693D01*
X335945010Y-133582170D01*
X335947575Y-133574931D01*
X335976933Y-133511254D01*
X336015394Y-133458270D01*
X336062621Y-133416180D01*
X336118275Y-133385189D01*
X336182018Y-133365502D01*
X336253512Y-133357322D01*
X336306452Y-133358440D01*
G36*
X340640734Y-133066931D02*
G01*
X340567110Y-133066931D01*
X340524929Y-133067757D01*
X340493658Y-133070764D01*
X340470164Y-133076747D01*
X340451316Y-133086498D01*
X340434193Y-133100608D01*
X340418757Y-133119795D01*
X340407424Y-133144994D01*
X340399770Y-133178124D01*
X340395373Y-133221100D01*
X340393807Y-133275838D01*
X340393790Y-133283406D01*
X340393790Y-133377375D01*
X340640734Y-133377375D01*
X340640734Y-133511431D01*
X340393790Y-133511431D01*
X340393790Y-134520375D01*
X340231512Y-134520375D01*
X340231512Y-133511431D01*
X340111567Y-133511431D01*
X340111567Y-133377375D01*
X340171540Y-133377375D01*
X340198764Y-133377183D01*
X340219731Y-133376670D01*
X340231146Y-133375933D01*
X340232294Y-133375611D01*
X340232819Y-133368348D01*
X340233801Y-133349249D01*
X340235133Y-133320582D01*
X340236710Y-133284609D01*
X340238294Y-133246847D01*
X340240532Y-133198356D01*
X340242935Y-133161338D01*
X340245832Y-133133155D01*
X340249552Y-133111171D01*
X340254423Y-133092748D01*
X340259177Y-133079301D01*
X340284174Y-133032531D01*
X340319879Y-132990479D01*
X340362941Y-132956684D01*
X340388205Y-132943054D01*
X340406706Y-132935052D01*
X340423393Y-132929373D01*
X340441434Y-132925526D01*
X340463995Y-132923019D01*
X340494244Y-132921360D01*
X340535350Y-132920059D01*
X340536665Y-132920024D01*
X340640734Y-132917226D01*
X340640734Y-133066931D01*
G37*
X340640734Y-133066931D02*
X340567110Y-133066931D01*
X340524929Y-133067757D01*
X340493658Y-133070764D01*
X340470164Y-133076747D01*
X340451316Y-133086498D01*
X340434193Y-133100608D01*
X340418757Y-133119795D01*
X340407424Y-133144994D01*
X340399770Y-133178124D01*
X340395373Y-133221100D01*
X340393807Y-133275838D01*
X340393790Y-133283406D01*
X340393790Y-133377375D01*
X340640734Y-133377375D01*
X340640734Y-133511431D01*
X340393790Y-133511431D01*
X340393790Y-134520375D01*
X340231512Y-134520375D01*
X340231512Y-133511431D01*
X340111567Y-133511431D01*
X340111567Y-133377375D01*
X340171540Y-133377375D01*
X340198764Y-133377183D01*
X340219731Y-133376670D01*
X340231146Y-133375933D01*
X340232294Y-133375611D01*
X340232819Y-133368348D01*
X340233801Y-133349249D01*
X340235133Y-133320582D01*
X340236710Y-133284609D01*
X340238294Y-133246847D01*
X340240532Y-133198356D01*
X340242935Y-133161338D01*
X340245832Y-133133155D01*
X340249552Y-133111171D01*
X340254423Y-133092748D01*
X340259177Y-133079301D01*
X340284174Y-133032531D01*
X340319879Y-132990479D01*
X340362941Y-132956684D01*
X340388205Y-132943054D01*
X340406706Y-132935052D01*
X340423393Y-132929373D01*
X340441434Y-132925526D01*
X340463995Y-132923019D01*
X340494244Y-132921360D01*
X340535350Y-132920059D01*
X340536665Y-132920024D01*
X340640734Y-132917226D01*
X340640734Y-133066931D01*
G36*
X350364384Y-132904857D02*
G01*
X350408514Y-132908064D01*
X350445121Y-132913834D01*
X350450956Y-132915257D01*
X350515319Y-132938709D01*
X350570150Y-132972479D01*
X350615308Y-133016353D01*
X350650655Y-133070119D01*
X350676050Y-133133563D01*
X350691352Y-133206471D01*
X350696421Y-133288630D01*
X350696420Y-133289181D01*
X350691669Y-133371193D01*
X350677321Y-133452973D01*
X350652776Y-133536720D01*
X350617438Y-133624631D01*
X350588779Y-133684292D01*
X350575949Y-133708305D01*
X350556597Y-133742829D01*
X350531613Y-133786369D01*
X350501888Y-133837427D01*
X350468311Y-133894508D01*
X350431774Y-133956115D01*
X350393166Y-134020753D01*
X350353378Y-134086925D01*
X350313300Y-134153135D01*
X350273823Y-134217886D01*
X350235837Y-134279683D01*
X350202496Y-134333403D01*
X350180481Y-134368681D01*
X350437691Y-134370531D01*
X350694901Y-134372382D01*
X350694901Y-134520375D01*
X349982290Y-134520375D01*
X349982290Y-134389063D01*
X350180816Y-134054316D01*
X350219719Y-133988541D01*
X350257773Y-133923864D01*
X350294114Y-133861773D01*
X350327879Y-133803762D01*
X350358203Y-133751320D01*
X350384223Y-133705938D01*
X350405074Y-133669107D01*
X350419893Y-133642319D01*
X350423858Y-133634903D01*
X350465648Y-133547445D01*
X350497243Y-133463829D01*
X350518516Y-133384906D01*
X350529336Y-133311525D01*
X350529574Y-133244536D01*
X350519103Y-133184791D01*
X350499491Y-133136198D01*
X350473227Y-133098161D01*
X350441468Y-133072003D01*
X350402402Y-133056699D01*
X350354213Y-133051223D01*
X350349179Y-133051177D01*
X350301834Y-133055394D01*
X350262563Y-133069211D01*
X350227881Y-133094132D01*
X350211920Y-133110393D01*
X350185083Y-133146562D01*
X350165081Y-133188771D01*
X350150937Y-133239608D01*
X350142454Y-133294472D01*
X350134692Y-133363264D01*
X349973108Y-133363264D01*
X349977423Y-133290945D01*
X349986080Y-133216446D01*
X350002409Y-133147075D01*
X350025523Y-133086455D01*
X350029169Y-133079033D01*
X350059687Y-133032031D01*
X350100294Y-132988978D01*
X350147699Y-132952485D01*
X350198614Y-132925165D01*
X350240145Y-132911557D01*
X350274871Y-132906510D01*
X350318060Y-132904308D01*
X350364384Y-132904857D01*
G37*
X350364384Y-132904857D02*
X350408514Y-132908064D01*
X350445121Y-132913834D01*
X350450956Y-132915257D01*
X350515319Y-132938709D01*
X350570150Y-132972479D01*
X350615308Y-133016353D01*
X350650655Y-133070119D01*
X350676050Y-133133563D01*
X350691352Y-133206471D01*
X350696421Y-133288630D01*
X350696420Y-133289181D01*
X350691669Y-133371193D01*
X350677321Y-133452973D01*
X350652776Y-133536720D01*
X350617438Y-133624631D01*
X350588779Y-133684292D01*
X350575949Y-133708305D01*
X350556597Y-133742829D01*
X350531613Y-133786369D01*
X350501888Y-133837427D01*
X350468311Y-133894508D01*
X350431774Y-133956115D01*
X350393166Y-134020753D01*
X350353378Y-134086925D01*
X350313300Y-134153135D01*
X350273823Y-134217886D01*
X350235837Y-134279683D01*
X350202496Y-134333403D01*
X350180481Y-134368681D01*
X350437691Y-134370531D01*
X350694901Y-134372382D01*
X350694901Y-134520375D01*
X349982290Y-134520375D01*
X349982290Y-134389063D01*
X350180816Y-134054316D01*
X350219719Y-133988541D01*
X350257773Y-133923864D01*
X350294114Y-133861773D01*
X350327879Y-133803762D01*
X350358203Y-133751320D01*
X350384223Y-133705938D01*
X350405074Y-133669107D01*
X350419893Y-133642319D01*
X350423858Y-133634903D01*
X350465648Y-133547445D01*
X350497243Y-133463829D01*
X350518516Y-133384906D01*
X350529336Y-133311525D01*
X350529574Y-133244536D01*
X350519103Y-133184791D01*
X350499491Y-133136198D01*
X350473227Y-133098161D01*
X350441468Y-133072003D01*
X350402402Y-133056699D01*
X350354213Y-133051223D01*
X350349179Y-133051177D01*
X350301834Y-133055394D01*
X350262563Y-133069211D01*
X350227881Y-133094132D01*
X350211920Y-133110393D01*
X350185083Y-133146562D01*
X350165081Y-133188771D01*
X350150937Y-133239608D01*
X350142454Y-133294472D01*
X350134692Y-133363264D01*
X349973108Y-133363264D01*
X349977423Y-133290945D01*
X349986080Y-133216446D01*
X350002409Y-133147075D01*
X350025523Y-133086455D01*
X350029169Y-133079033D01*
X350059687Y-133032031D01*
X350100294Y-132988978D01*
X350147699Y-132952485D01*
X350198614Y-132925165D01*
X350240145Y-132911557D01*
X350274871Y-132906510D01*
X350318060Y-132904308D01*
X350364384Y-132904857D01*
G36*
X344212479Y-133209806D02*
G01*
X344214373Y-133373847D01*
X344429567Y-133377743D01*
X344429567Y-133525542D01*
X344209954Y-133525542D01*
X344212164Y-133901250D01*
X344214373Y-134276958D01*
X344230749Y-134310206D01*
X344247226Y-134337238D01*
X344267410Y-134356217D01*
X344293992Y-134368513D01*
X344329667Y-134375500D01*
X344364041Y-134378081D01*
X344429567Y-134380947D01*
X344429567Y-134527431D01*
X344357248Y-134526839D01*
X344321467Y-134525700D01*
X344286133Y-134523143D01*
X344256730Y-134519620D01*
X344246123Y-134517673D01*
X344218415Y-134510225D01*
X344191622Y-134500935D01*
X344180739Y-134496237D01*
X344148125Y-134474116D01*
X344117342Y-134441743D01*
X344091477Y-134402919D01*
X344075167Y-134366235D01*
X344071770Y-134355891D01*
X344068888Y-134345755D01*
X344066471Y-134334609D01*
X344064471Y-134321235D01*
X344062837Y-134304415D01*
X344061522Y-134282931D01*
X344060474Y-134255566D01*
X344059645Y-134221100D01*
X344058986Y-134178317D01*
X344058447Y-134125998D01*
X344057979Y-134062925D01*
X344057533Y-133987880D01*
X344057179Y-133922417D01*
X344055069Y-133525542D01*
X343935679Y-133525542D01*
X343935679Y-133377375D01*
X344055623Y-133377375D01*
X344055623Y-133045764D01*
X344210585Y-133045764D01*
X344212479Y-133209806D01*
G37*
X344212479Y-133209806D02*
X344214373Y-133373847D01*
X344429567Y-133377743D01*
X344429567Y-133525542D01*
X344209954Y-133525542D01*
X344212164Y-133901250D01*
X344214373Y-134276958D01*
X344230749Y-134310206D01*
X344247226Y-134337238D01*
X344267410Y-134356217D01*
X344293992Y-134368513D01*
X344329667Y-134375500D01*
X344364041Y-134378081D01*
X344429567Y-134380947D01*
X344429567Y-134527431D01*
X344357248Y-134526839D01*
X344321467Y-134525700D01*
X344286133Y-134523143D01*
X344256730Y-134519620D01*
X344246123Y-134517673D01*
X344218415Y-134510225D01*
X344191622Y-134500935D01*
X344180739Y-134496237D01*
X344148125Y-134474116D01*
X344117342Y-134441743D01*
X344091477Y-134402919D01*
X344075167Y-134366235D01*
X344071770Y-134355891D01*
X344068888Y-134345755D01*
X344066471Y-134334609D01*
X344064471Y-134321235D01*
X344062837Y-134304415D01*
X344061522Y-134282931D01*
X344060474Y-134255566D01*
X344059645Y-134221100D01*
X344058986Y-134178317D01*
X344058447Y-134125998D01*
X344057979Y-134062925D01*
X344057533Y-133987880D01*
X344057179Y-133922417D01*
X344055069Y-133525542D01*
X343935679Y-133525542D01*
X343935679Y-133377375D01*
X344055623Y-133377375D01*
X344055623Y-133045764D01*
X344210585Y-133045764D01*
X344212479Y-133209806D01*
G36*
X338452660Y-133714375D02*
G01*
X338454852Y-133677506D01*
X338457995Y-133646910D01*
X338462258Y-133621020D01*
X338467811Y-133598268D01*
X338474822Y-133577086D01*
X338483462Y-133555907D01*
X338493900Y-133533163D01*
X338496255Y-133528211D01*
X338529498Y-133474068D01*
X338572325Y-133429540D01*
X338623545Y-133395131D01*
X338681965Y-133371344D01*
X338746395Y-133358682D01*
X338815644Y-133357650D01*
X338878749Y-133366575D01*
X338941164Y-133386282D01*
X338996215Y-133416894D01*
X339042484Y-133457368D01*
X339078555Y-133506660D01*
X339084932Y-133518486D01*
X339096472Y-133542091D01*
X339105658Y-133563777D01*
X339112791Y-133585599D01*
X339118173Y-133609613D01*
X339122103Y-133637875D01*
X339124885Y-133672441D01*
X339126818Y-133715366D01*
X339128204Y-133768706D01*
X339129119Y-133820111D01*
X339132181Y-134012375D01*
X338607311Y-134012375D01*
X338610340Y-134130556D01*
X338611884Y-134178338D01*
X338613891Y-134214344D01*
X338616607Y-134240906D01*
X338620281Y-134260356D01*
X338625159Y-134275029D01*
X338625806Y-134276510D01*
X338651923Y-134321519D01*
X338684859Y-134354348D01*
X338725365Y-134375477D01*
X338774191Y-134385387D01*
X338797318Y-134386320D01*
X338832101Y-134384503D01*
X338861913Y-134379576D01*
X338875308Y-134375362D01*
X338913704Y-134351957D01*
X338944036Y-134318199D01*
X338964765Y-134276248D01*
X338973468Y-134237670D01*
X338977588Y-134202875D01*
X339130845Y-134202875D01*
X339130761Y-134239917D01*
X339124044Y-134301651D01*
X339104919Y-134360194D01*
X339074505Y-134412891D01*
X339042495Y-134449342D01*
X338998009Y-134485078D01*
X338950102Y-134510398D01*
X338896323Y-134526152D01*
X338834221Y-134533192D01*
X338799516Y-134533713D01*
X338765938Y-134532719D01*
X338733948Y-134530726D01*
X338708755Y-134528096D01*
X338701700Y-134526937D01*
X338642873Y-134508378D01*
X338589627Y-134477559D01*
X338543086Y-134435607D01*
X338504378Y-134383653D01*
X338474628Y-134322824D01*
X338462925Y-134287542D01*
X338459657Y-134274789D01*
X338456984Y-134260943D01*
X338454847Y-134244505D01*
X338453188Y-134223978D01*
X338451949Y-134197866D01*
X338451072Y-134164671D01*
X338450498Y-134122897D01*
X338450168Y-134071047D01*
X338450025Y-134007623D01*
X338450004Y-133955931D01*
X338450090Y-133878294D01*
X338450167Y-133864208D01*
X338608734Y-133864208D01*
X338968567Y-133864208D01*
X338968567Y-133766552D01*
X338967642Y-133713322D01*
X338964486Y-133671247D01*
X338958533Y-133637471D01*
X338949213Y-133609137D01*
X338935959Y-133583388D01*
X338930404Y-133574636D01*
X338901611Y-133543167D01*
X338864794Y-133520908D01*
X338822915Y-133508209D01*
X338778934Y-133505420D01*
X338735810Y-133512892D01*
X338696503Y-133530973D01*
X338678379Y-133544843D01*
X338653856Y-133570942D01*
X338635360Y-133600542D01*
X338622251Y-133635806D01*
X338613886Y-133678902D01*
X338609624Y-133731995D01*
X338608734Y-133779889D01*
X338608734Y-133864208D01*
X338450167Y-133864208D01*
X338450448Y-133813201D01*
X338450940Y-133779889D01*
X338451248Y-133759084D01*
X338452660Y-133714375D01*
G37*
X338452660Y-133714375D02*
X338454852Y-133677506D01*
X338457995Y-133646910D01*
X338462258Y-133621020D01*
X338467811Y-133598268D01*
X338474822Y-133577086D01*
X338483462Y-133555907D01*
X338493900Y-133533163D01*
X338496255Y-133528211D01*
X338529498Y-133474068D01*
X338572325Y-133429540D01*
X338623545Y-133395131D01*
X338681965Y-133371344D01*
X338746395Y-133358682D01*
X338815644Y-133357650D01*
X338878749Y-133366575D01*
X338941164Y-133386282D01*
X338996215Y-133416894D01*
X339042484Y-133457368D01*
X339078555Y-133506660D01*
X339084932Y-133518486D01*
X339096472Y-133542091D01*
X339105658Y-133563777D01*
X339112791Y-133585599D01*
X339118173Y-133609613D01*
X339122103Y-133637875D01*
X339124885Y-133672441D01*
X339126818Y-133715366D01*
X339128204Y-133768706D01*
X339129119Y-133820111D01*
X339132181Y-134012375D01*
X338607311Y-134012375D01*
X338610340Y-134130556D01*
X338611884Y-134178338D01*
X338613891Y-134214344D01*
X338616607Y-134240906D01*
X338620281Y-134260356D01*
X338625159Y-134275029D01*
X338625806Y-134276510D01*
X338651923Y-134321519D01*
X338684859Y-134354348D01*
X338725365Y-134375477D01*
X338774191Y-134385387D01*
X338797318Y-134386320D01*
X338832101Y-134384503D01*
X338861913Y-134379576D01*
X338875308Y-134375362D01*
X338913704Y-134351957D01*
X338944036Y-134318199D01*
X338964765Y-134276248D01*
X338973468Y-134237670D01*
X338977588Y-134202875D01*
X339130845Y-134202875D01*
X339130761Y-134239917D01*
X339124044Y-134301651D01*
X339104919Y-134360194D01*
X339074505Y-134412891D01*
X339042495Y-134449342D01*
X338998009Y-134485078D01*
X338950102Y-134510398D01*
X338896323Y-134526152D01*
X338834221Y-134533192D01*
X338799516Y-134533713D01*
X338765938Y-134532719D01*
X338733948Y-134530726D01*
X338708755Y-134528096D01*
X338701700Y-134526937D01*
X338642873Y-134508378D01*
X338589627Y-134477559D01*
X338543086Y-134435607D01*
X338504378Y-134383653D01*
X338474628Y-134322824D01*
X338462925Y-134287542D01*
X338459657Y-134274789D01*
X338456984Y-134260943D01*
X338454847Y-134244505D01*
X338453188Y-134223978D01*
X338451949Y-134197866D01*
X338451072Y-134164671D01*
X338450498Y-134122897D01*
X338450168Y-134071047D01*
X338450025Y-134007623D01*
X338450004Y-133955931D01*
X338450090Y-133878294D01*
X338450167Y-133864208D01*
X338608734Y-133864208D01*
X338968567Y-133864208D01*
X338968567Y-133766552D01*
X338967642Y-133713322D01*
X338964486Y-133671247D01*
X338958533Y-133637471D01*
X338949213Y-133609137D01*
X338935959Y-133583388D01*
X338930404Y-133574636D01*
X338901611Y-133543167D01*
X338864794Y-133520908D01*
X338822915Y-133508209D01*
X338778934Y-133505420D01*
X338735810Y-133512892D01*
X338696503Y-133530973D01*
X338678379Y-133544843D01*
X338653856Y-133570942D01*
X338635360Y-133600542D01*
X338622251Y-133635806D01*
X338613886Y-133678902D01*
X338609624Y-133731995D01*
X338608734Y-133779889D01*
X338608734Y-133864208D01*
X338450167Y-133864208D01*
X338450448Y-133813201D01*
X338450940Y-133779889D01*
X338451248Y-133759084D01*
X338452660Y-133714375D01*
G36*
X336780397Y-133979357D02*
G01*
X336780358Y-133913621D01*
X336780730Y-133848739D01*
X336781516Y-133786560D01*
X336782715Y-133728932D01*
X336784327Y-133677704D01*
X336786352Y-133634725D01*
X336788791Y-133601844D01*
X336791643Y-133580910D01*
X336792161Y-133578705D01*
X336814689Y-133517634D01*
X336847736Y-133465638D01*
X336890648Y-133423179D01*
X336942768Y-133390718D01*
X337003440Y-133368716D01*
X337072008Y-133357634D01*
X337108628Y-133356331D01*
X337180891Y-133362317D01*
X337245502Y-133379489D01*
X337301799Y-133407315D01*
X337349118Y-133445264D01*
X337386798Y-133492804D01*
X337414177Y-133549402D01*
X337430593Y-133614528D01*
X337430663Y-133614986D01*
X337432848Y-133637813D01*
X337434536Y-133674408D01*
X337435722Y-133724439D01*
X337436403Y-133787571D01*
X337436572Y-133863470D01*
X337436225Y-133951803D01*
X337436037Y-133978347D01*
X337435445Y-134053046D01*
X337434870Y-134115046D01*
X337434240Y-134165760D01*
X337433480Y-134206600D01*
X337432516Y-134238979D01*
X337431276Y-134264307D01*
X337429685Y-134283999D01*
X337427669Y-134299466D01*
X337425156Y-134312120D01*
X337422070Y-134323373D01*
X337418338Y-134334638D01*
X337417274Y-134337684D01*
X337389747Y-134396192D01*
X337351767Y-134445738D01*
X337304240Y-134485372D01*
X337249004Y-134513789D01*
X337216472Y-134522716D01*
X337174543Y-134529020D01*
X337127720Y-134532516D01*
X337080504Y-134533016D01*
X337037399Y-134530335D01*
X337002905Y-134524286D01*
X337001934Y-134524018D01*
X336939344Y-134500207D01*
X336887074Y-134466779D01*
X336845151Y-134423760D01*
X336813600Y-134371176D01*
X336792446Y-134309053D01*
X336792220Y-134308097D01*
X336789295Y-134288156D01*
X336786782Y-134256126D01*
X336784681Y-134213856D01*
X336782992Y-134163195D01*
X336781715Y-134105993D01*
X336781175Y-134067344D01*
X336937281Y-134067344D01*
X336937327Y-134118349D01*
X336937686Y-134159431D01*
X336938398Y-134191984D01*
X336939500Y-134217405D01*
X336941030Y-134237088D01*
X336943028Y-134252429D01*
X336945530Y-134264823D01*
X336947338Y-134271590D01*
X336965453Y-134316554D01*
X336990746Y-134349775D01*
X337024178Y-134371955D01*
X337066710Y-134383795D01*
X337104363Y-134386314D01*
X337138639Y-134384519D01*
X337168227Y-134379664D01*
X337181878Y-134375399D01*
X337216878Y-134355033D01*
X337244275Y-134325280D01*
X337256518Y-134305181D01*
X337260044Y-134298307D01*
X337262977Y-134291096D01*
X337265373Y-134282258D01*
X337267284Y-134270500D01*
X337268766Y-134254530D01*
X337269874Y-134233056D01*
X337270662Y-134204788D01*
X337271184Y-134168432D01*
X337271494Y-134122697D01*
X337271649Y-134066292D01*
X337271701Y-133997924D01*
X337271706Y-133945347D01*
X337271706Y-133613736D01*
X337252116Y-133580410D01*
X337223815Y-133545396D01*
X337186577Y-133521230D01*
X337140681Y-133508075D01*
X337125023Y-133506281D01*
X337072610Y-133507695D01*
X337027843Y-133520716D01*
X336991102Y-133545144D01*
X336962765Y-133580778D01*
X336954793Y-133596097D01*
X336951220Y-133604357D01*
X336948262Y-133613189D01*
X336945851Y-133623976D01*
X336943915Y-133638098D01*
X336942387Y-133656938D01*
X336941196Y-133681877D01*
X336940272Y-133714297D01*
X336939547Y-133755580D01*
X336938950Y-133807106D01*
X336938412Y-133870259D01*
X336937979Y-133929981D01*
X336937511Y-134005020D01*
X336937281Y-134067344D01*
X336781175Y-134067344D01*
X336780850Y-134044097D01*
X336780397Y-133979357D01*
G37*
X336780397Y-133979357D02*
X336780358Y-133913621D01*
X336780730Y-133848739D01*
X336781516Y-133786560D01*
X336782715Y-133728932D01*
X336784327Y-133677704D01*
X336786352Y-133634725D01*
X336788791Y-133601844D01*
X336791643Y-133580910D01*
X336792161Y-133578705D01*
X336814689Y-133517634D01*
X336847736Y-133465638D01*
X336890648Y-133423179D01*
X336942768Y-133390718D01*
X337003440Y-133368716D01*
X337072008Y-133357634D01*
X337108628Y-133356331D01*
X337180891Y-133362317D01*
X337245502Y-133379489D01*
X337301799Y-133407315D01*
X337349118Y-133445264D01*
X337386798Y-133492804D01*
X337414177Y-133549402D01*
X337430593Y-133614528D01*
X337430663Y-133614986D01*
X337432848Y-133637813D01*
X337434536Y-133674408D01*
X337435722Y-133724439D01*
X337436403Y-133787571D01*
X337436572Y-133863470D01*
X337436225Y-133951803D01*
X337436037Y-133978347D01*
X337435445Y-134053046D01*
X337434870Y-134115046D01*
X337434240Y-134165760D01*
X337433480Y-134206600D01*
X337432516Y-134238979D01*
X337431276Y-134264307D01*
X337429685Y-134283999D01*
X337427669Y-134299466D01*
X337425156Y-134312120D01*
X337422070Y-134323373D01*
X337418338Y-134334638D01*
X337417274Y-134337684D01*
X337389747Y-134396192D01*
X337351767Y-134445738D01*
X337304240Y-134485372D01*
X337249004Y-134513789D01*
X337216472Y-134522716D01*
X337174543Y-134529020D01*
X337127720Y-134532516D01*
X337080504Y-134533016D01*
X337037399Y-134530335D01*
X337002905Y-134524286D01*
X337001934Y-134524018D01*
X336939344Y-134500207D01*
X336887074Y-134466779D01*
X336845151Y-134423760D01*
X336813600Y-134371176D01*
X336792446Y-134309053D01*
X336792220Y-134308097D01*
X336789295Y-134288156D01*
X336786782Y-134256126D01*
X336784681Y-134213856D01*
X336782992Y-134163195D01*
X336781715Y-134105993D01*
X336781175Y-134067344D01*
X336937281Y-134067344D01*
X336937327Y-134118349D01*
X336937686Y-134159431D01*
X336938398Y-134191984D01*
X336939500Y-134217405D01*
X336941030Y-134237088D01*
X336943028Y-134252429D01*
X336945530Y-134264823D01*
X336947338Y-134271590D01*
X336965453Y-134316554D01*
X336990746Y-134349775D01*
X337024178Y-134371955D01*
X337066710Y-134383795D01*
X337104363Y-134386314D01*
X337138639Y-134384519D01*
X337168227Y-134379664D01*
X337181878Y-134375399D01*
X337216878Y-134355033D01*
X337244275Y-134325280D01*
X337256518Y-134305181D01*
X337260044Y-134298307D01*
X337262977Y-134291096D01*
X337265373Y-134282258D01*
X337267284Y-134270500D01*
X337268766Y-134254530D01*
X337269874Y-134233056D01*
X337270662Y-134204788D01*
X337271184Y-134168432D01*
X337271494Y-134122697D01*
X337271649Y-134066292D01*
X337271701Y-133997924D01*
X337271706Y-133945347D01*
X337271706Y-133613736D01*
X337252116Y-133580410D01*
X337223815Y-133545396D01*
X337186577Y-133521230D01*
X337140681Y-133508075D01*
X337125023Y-133506281D01*
X337072610Y-133507695D01*
X337027843Y-133520716D01*
X336991102Y-133545144D01*
X336962765Y-133580778D01*
X336954793Y-133596097D01*
X336951220Y-133604357D01*
X336948262Y-133613189D01*
X336945851Y-133623976D01*
X336943915Y-133638098D01*
X336942387Y-133656938D01*
X336941196Y-133681877D01*
X336940272Y-133714297D01*
X336939547Y-133755580D01*
X336938950Y-133807106D01*
X336938412Y-133870259D01*
X336937979Y-133929981D01*
X336937511Y-134005020D01*
X336937281Y-134067344D01*
X336781175Y-134067344D01*
X336780850Y-134044097D01*
X336780397Y-133979357D01*
G36*
X349064992Y-133183956D02*
G01*
X349066939Y-133171280D01*
X349069217Y-133160025D01*
X349071852Y-133149131D01*
X349071969Y-133148672D01*
X349090497Y-133091291D01*
X349114802Y-133044129D01*
X349146768Y-133003839D01*
X349161798Y-132989194D01*
X349205576Y-132954933D01*
X349252612Y-132930166D01*
X349305415Y-132914055D01*
X349366490Y-132905766D01*
X349416935Y-132904172D01*
X349482505Y-132907142D01*
X349537812Y-132916414D01*
X349585664Y-132932973D01*
X349628870Y-132957806D01*
X349670237Y-132991897D01*
X349672133Y-132993696D01*
X349712276Y-133040708D01*
X349742242Y-133095969D01*
X349759984Y-133148994D01*
X349762236Y-133164920D01*
X349764249Y-133193555D01*
X349766024Y-133233498D01*
X349767560Y-133283350D01*
X349768858Y-133341710D01*
X349769918Y-133407179D01*
X349770741Y-133478355D01*
X349771327Y-133553839D01*
X349771676Y-133632231D01*
X349771789Y-133712130D01*
X349771664Y-133792137D01*
X349771304Y-133870850D01*
X349770708Y-133946870D01*
X349769877Y-134018797D01*
X349768810Y-134085231D01*
X349767509Y-134144771D01*
X349765972Y-134196017D01*
X349764201Y-134237568D01*
X349762196Y-134268026D01*
X349759958Y-134285989D01*
X349759759Y-134286885D01*
X349737856Y-134351698D01*
X349705022Y-134407729D01*
X349661743Y-134454482D01*
X349608508Y-134491465D01*
X349545804Y-134518184D01*
X349525469Y-134524059D01*
X349492380Y-134529815D01*
X349450359Y-134533033D01*
X349404291Y-134533729D01*
X349359063Y-134531917D01*
X349319562Y-134527614D01*
X349298693Y-134523335D01*
X349241245Y-134501828D01*
X349188542Y-134470388D01*
X349143299Y-134431100D01*
X349108234Y-134386050D01*
X349099342Y-134370242D01*
X349090581Y-134349523D01*
X349080799Y-134321030D01*
X349072046Y-134290761D01*
X349071688Y-134289370D01*
X349069089Y-134278607D01*
X349066841Y-134267376D01*
X349064919Y-134254622D01*
X349063296Y-134239290D01*
X349061949Y-134220323D01*
X349060851Y-134196668D01*
X349059977Y-134167268D01*
X349059302Y-134131068D01*
X349058801Y-134087013D01*
X349058448Y-134034047D01*
X349058218Y-133971116D01*
X349058086Y-133897164D01*
X349058025Y-133811135D01*
X349058012Y-133719570D01*
X349058013Y-133716042D01*
X349216762Y-133716042D01*
X349216782Y-133813976D01*
X349216860Y-133898820D01*
X349217017Y-133971592D01*
X349217277Y-134033312D01*
X349217662Y-134085001D01*
X349218197Y-134127678D01*
X349218905Y-134162363D01*
X349219807Y-134190076D01*
X349220928Y-134211837D01*
X349222291Y-134228666D01*
X349223919Y-134241582D01*
X349225834Y-134251606D01*
X349228060Y-134259757D01*
X349229164Y-134263071D01*
X349251691Y-134309610D01*
X349282936Y-134345099D01*
X349322985Y-134369596D01*
X349371922Y-134383155D01*
X349414317Y-134386182D01*
X349448736Y-134385060D01*
X349474848Y-134381007D01*
X349498330Y-134372991D01*
X349506040Y-134369504D01*
X349544135Y-134346389D01*
X349573147Y-134316121D01*
X349595620Y-134276958D01*
X349611873Y-134241681D01*
X349611873Y-133197458D01*
X349595199Y-133160579D01*
X349574676Y-133126332D01*
X349546974Y-133095320D01*
X349515948Y-133071313D01*
X349492253Y-133059982D01*
X349458454Y-133053007D01*
X349417776Y-133050728D01*
X349376661Y-133053178D01*
X349345455Y-133059210D01*
X349305478Y-133077521D01*
X349270105Y-133106952D01*
X349242454Y-133144588D01*
X349233058Y-133164173D01*
X349216762Y-133204514D01*
X349216762Y-133716042D01*
X349058013Y-133716042D01*
X349058026Y-133621474D01*
X349058087Y-133536432D01*
X349058221Y-133463386D01*
X349058452Y-133401278D01*
X349058808Y-133349051D01*
X349059313Y-133305647D01*
X349059994Y-133270009D01*
X349060876Y-133241078D01*
X349061986Y-133217797D01*
X349062954Y-133204514D01*
X349063349Y-133199109D01*
X349064992Y-133183956D01*
G37*
X349064992Y-133183956D02*
X349066939Y-133171280D01*
X349069217Y-133160025D01*
X349071852Y-133149131D01*
X349071969Y-133148672D01*
X349090497Y-133091291D01*
X349114802Y-133044129D01*
X349146768Y-133003839D01*
X349161798Y-132989194D01*
X349205576Y-132954933D01*
X349252612Y-132930166D01*
X349305415Y-132914055D01*
X349366490Y-132905766D01*
X349416935Y-132904172D01*
X349482505Y-132907142D01*
X349537812Y-132916414D01*
X349585664Y-132932973D01*
X349628870Y-132957806D01*
X349670237Y-132991897D01*
X349672133Y-132993696D01*
X349712276Y-133040708D01*
X349742242Y-133095969D01*
X349759984Y-133148994D01*
X349762236Y-133164920D01*
X349764249Y-133193555D01*
X349766024Y-133233498D01*
X349767560Y-133283350D01*
X349768858Y-133341710D01*
X349769918Y-133407179D01*
X349770741Y-133478355D01*
X349771327Y-133553839D01*
X349771676Y-133632231D01*
X349771789Y-133712130D01*
X349771664Y-133792137D01*
X349771304Y-133870850D01*
X349770708Y-133946870D01*
X349769877Y-134018797D01*
X349768810Y-134085231D01*
X349767509Y-134144771D01*
X349765972Y-134196017D01*
X349764201Y-134237568D01*
X349762196Y-134268026D01*
X349759958Y-134285989D01*
X349759759Y-134286885D01*
X349737856Y-134351698D01*
X349705022Y-134407729D01*
X349661743Y-134454482D01*
X349608508Y-134491465D01*
X349545804Y-134518184D01*
X349525469Y-134524059D01*
X349492380Y-134529815D01*
X349450359Y-134533033D01*
X349404291Y-134533729D01*
X349359063Y-134531917D01*
X349319562Y-134527614D01*
X349298693Y-134523335D01*
X349241245Y-134501828D01*
X349188542Y-134470388D01*
X349143299Y-134431100D01*
X349108234Y-134386050D01*
X349099342Y-134370242D01*
X349090581Y-134349523D01*
X349080799Y-134321030D01*
X349072046Y-134290761D01*
X349071688Y-134289370D01*
X349069089Y-134278607D01*
X349066841Y-134267376D01*
X349064919Y-134254622D01*
X349063296Y-134239290D01*
X349061949Y-134220323D01*
X349060851Y-134196668D01*
X349059977Y-134167268D01*
X349059302Y-134131068D01*
X349058801Y-134087013D01*
X349058448Y-134034047D01*
X349058218Y-133971116D01*
X349058086Y-133897164D01*
X349058025Y-133811135D01*
X349058012Y-133719570D01*
X349058013Y-133716042D01*
X349216762Y-133716042D01*
X349216782Y-133813976D01*
X349216860Y-133898820D01*
X349217017Y-133971592D01*
X349217277Y-134033312D01*
X349217662Y-134085001D01*
X349218197Y-134127678D01*
X349218905Y-134162363D01*
X349219807Y-134190076D01*
X349220928Y-134211837D01*
X349222291Y-134228666D01*
X349223919Y-134241582D01*
X349225834Y-134251606D01*
X349228060Y-134259757D01*
X349229164Y-134263071D01*
X349251691Y-134309610D01*
X349282936Y-134345099D01*
X349322985Y-134369596D01*
X349371922Y-134383155D01*
X349414317Y-134386182D01*
X349448736Y-134385060D01*
X349474848Y-134381007D01*
X349498330Y-134372991D01*
X349506040Y-134369504D01*
X349544135Y-134346389D01*
X349573147Y-134316121D01*
X349595620Y-134276958D01*
X349611873Y-134241681D01*
X349611873Y-133197458D01*
X349595199Y-133160579D01*
X349574676Y-133126332D01*
X349546974Y-133095320D01*
X349515948Y-133071313D01*
X349492253Y-133059982D01*
X349458454Y-133053007D01*
X349417776Y-133050728D01*
X349376661Y-133053178D01*
X349345455Y-133059210D01*
X349305478Y-133077521D01*
X349270105Y-133106952D01*
X349242454Y-133144588D01*
X349233058Y-133164173D01*
X349216762Y-133204514D01*
X349216762Y-133716042D01*
X349058013Y-133716042D01*
X349058026Y-133621474D01*
X349058087Y-133536432D01*
X349058221Y-133463386D01*
X349058452Y-133401278D01*
X349058808Y-133349051D01*
X349059313Y-133305647D01*
X349059994Y-133270009D01*
X349060876Y-133241078D01*
X349061986Y-133217797D01*
X349062954Y-133204514D01*
X349063349Y-133199109D01*
X349064992Y-133183956D01*
G36*
X334220179Y-132963920D02*
G01*
X335071079Y-132963920D01*
X335071079Y-133268720D01*
X334220179Y-133268720D01*
X334220179Y-133795770D01*
X334753579Y-133795770D01*
X334753579Y-134100570D01*
X334220179Y-134100570D01*
X334220179Y-134621270D01*
X335071079Y-134621270D01*
X335071079Y-134907020D01*
X334220179Y-134907020D01*
X334220179Y-135351520D01*
X333915379Y-135351520D01*
X333915379Y-134907020D01*
X333058129Y-134907020D01*
X333058129Y-134621270D01*
X333915379Y-134621270D01*
X333915379Y-134106920D01*
X333375629Y-134106920D01*
X333375629Y-133802120D01*
X333915379Y-133802120D01*
X333915379Y-133275070D01*
X333058129Y-133275070D01*
X333058129Y-132970270D01*
X333915379Y-132970270D01*
X333915379Y-132506720D01*
X334220179Y-132506720D01*
X334220179Y-132963920D01*
G37*
X334220179Y-132963920D02*
X335071079Y-132963920D01*
X335071079Y-133268720D01*
X334220179Y-133268720D01*
X334220179Y-133795770D01*
X334753579Y-133795770D01*
X334753579Y-134100570D01*
X334220179Y-134100570D01*
X334220179Y-134621270D01*
X335071079Y-134621270D01*
X335071079Y-134907020D01*
X334220179Y-134907020D01*
X334220179Y-135351520D01*
X333915379Y-135351520D01*
X333915379Y-134907020D01*
X333058129Y-134907020D01*
X333058129Y-134621270D01*
X333915379Y-134621270D01*
X333915379Y-134106920D01*
X333375629Y-134106920D01*
X333375629Y-133802120D01*
X333915379Y-133802120D01*
X333915379Y-133275070D01*
X333058129Y-133275070D01*
X333058129Y-132970270D01*
X333915379Y-132970270D01*
X333915379Y-132506720D01*
X334220179Y-132506720D01*
X334220179Y-132963920D01*
G36*
X348520520Y-132904707D02*
G01*
X348564650Y-132907757D01*
X348601830Y-132913431D01*
X348609409Y-132915245D01*
X348674040Y-132938769D01*
X348729189Y-132972745D01*
X348774855Y-133017168D01*
X348811034Y-133072037D01*
X348837723Y-133137347D01*
X348843794Y-133158653D01*
X348850909Y-133198443D01*
X348854749Y-133247445D01*
X348855325Y-133301145D01*
X348852645Y-133355032D01*
X348846719Y-133404593D01*
X348843222Y-133423236D01*
X348834662Y-133460540D01*
X348824988Y-133496523D01*
X348813618Y-133532362D01*
X348799969Y-133569235D01*
X348783459Y-133608319D01*
X348763505Y-133650790D01*
X348739526Y-133697825D01*
X348710938Y-133750603D01*
X348677159Y-133810298D01*
X348637606Y-133878089D01*
X348591698Y-133955153D01*
X348538852Y-134042666D01*
X348527255Y-134061764D01*
X348340730Y-134368681D01*
X348597065Y-134370531D01*
X348853401Y-134372382D01*
X348853401Y-134520375D01*
X348140790Y-134520375D01*
X348140852Y-134389847D01*
X348349676Y-134037070D01*
X348389185Y-133970129D01*
X348427568Y-133904727D01*
X348464027Y-133842244D01*
X348497767Y-133784064D01*
X348527989Y-133731568D01*
X348553897Y-133686139D01*
X348574695Y-133649159D01*
X348589585Y-133622010D01*
X348595759Y-133610208D01*
X348633366Y-133527565D01*
X348661797Y-133447937D01*
X348680639Y-133372913D01*
X348689480Y-133304082D01*
X348688849Y-133251913D01*
X348683389Y-133208343D01*
X348674996Y-133174004D01*
X348662151Y-133144086D01*
X348646836Y-133118892D01*
X348616950Y-133085051D01*
X348580385Y-133063026D01*
X348536012Y-133052259D01*
X348509278Y-133050924D01*
X348461924Y-133055093D01*
X348422987Y-133068223D01*
X348388885Y-133091847D01*
X348370420Y-133110393D01*
X348344988Y-133144200D01*
X348325864Y-133183117D01*
X348311996Y-133229949D01*
X348302327Y-133287498D01*
X348301617Y-133293383D01*
X348293418Y-133363264D01*
X348133734Y-133363264D01*
X348133827Y-133315639D01*
X348136788Y-133269434D01*
X348144753Y-133217844D01*
X348156584Y-133166046D01*
X348171143Y-133119213D01*
X348183392Y-133090010D01*
X348217570Y-133034918D01*
X348261348Y-132987141D01*
X348312415Y-132948591D01*
X348368460Y-132921183D01*
X348398317Y-132912086D01*
X348432166Y-132906794D01*
X348474630Y-132904360D01*
X348520520Y-132904707D01*
G37*
X348520520Y-132904707D02*
X348564650Y-132907757D01*
X348601830Y-132913431D01*
X348609409Y-132915245D01*
X348674040Y-132938769D01*
X348729189Y-132972745D01*
X348774855Y-133017168D01*
X348811034Y-133072037D01*
X348837723Y-133137347D01*
X348843794Y-133158653D01*
X348850909Y-133198443D01*
X348854749Y-133247445D01*
X348855325Y-133301145D01*
X348852645Y-133355032D01*
X348846719Y-133404593D01*
X348843222Y-133423236D01*
X348834662Y-133460540D01*
X348824988Y-133496523D01*
X348813618Y-133532362D01*
X348799969Y-133569235D01*
X348783459Y-133608319D01*
X348763505Y-133650790D01*
X348739526Y-133697825D01*
X348710938Y-133750603D01*
X348677159Y-133810298D01*
X348637606Y-133878089D01*
X348591698Y-133955153D01*
X348538852Y-134042666D01*
X348527255Y-134061764D01*
X348340730Y-134368681D01*
X348597065Y-134370531D01*
X348853401Y-134372382D01*
X348853401Y-134520375D01*
X348140790Y-134520375D01*
X348140852Y-134389847D01*
X348349676Y-134037070D01*
X348389185Y-133970129D01*
X348427568Y-133904727D01*
X348464027Y-133842244D01*
X348497767Y-133784064D01*
X348527989Y-133731568D01*
X348553897Y-133686139D01*
X348574695Y-133649159D01*
X348589585Y-133622010D01*
X348595759Y-133610208D01*
X348633366Y-133527565D01*
X348661797Y-133447937D01*
X348680639Y-133372913D01*
X348689480Y-133304082D01*
X348688849Y-133251913D01*
X348683389Y-133208343D01*
X348674996Y-133174004D01*
X348662151Y-133144086D01*
X348646836Y-133118892D01*
X348616950Y-133085051D01*
X348580385Y-133063026D01*
X348536012Y-133052259D01*
X348509278Y-133050924D01*
X348461924Y-133055093D01*
X348422987Y-133068223D01*
X348388885Y-133091847D01*
X348370420Y-133110393D01*
X348344988Y-133144200D01*
X348325864Y-133183117D01*
X348311996Y-133229949D01*
X348302327Y-133287498D01*
X348301617Y-133293383D01*
X348293418Y-133363264D01*
X348133734Y-133363264D01*
X348133827Y-133315639D01*
X348136788Y-133269434D01*
X348144753Y-133217844D01*
X348156584Y-133166046D01*
X348171143Y-133119213D01*
X348183392Y-133090010D01*
X348217570Y-133034918D01*
X348261348Y-132987141D01*
X348312415Y-132948591D01*
X348368460Y-132921183D01*
X348398317Y-132912086D01*
X348432166Y-132906794D01*
X348474630Y-132904360D01*
X348520520Y-132904707D01*
G36*
X342146428Y-133360953D02*
G01*
X342175075Y-133363466D01*
X342198816Y-133368324D01*
X342222236Y-133376193D01*
X342224349Y-133377019D01*
X342271013Y-133402378D01*
X342312389Y-133438299D01*
X342344668Y-133481307D01*
X342350479Y-133491983D01*
X342358077Y-133507469D01*
X342364653Y-133522507D01*
X342370294Y-133538218D01*
X342375086Y-133555723D01*
X342379114Y-133576146D01*
X342382465Y-133600606D01*
X342385226Y-133630227D01*
X342387482Y-133666130D01*
X342389320Y-133709437D01*
X342390826Y-133761269D01*
X342392086Y-133822748D01*
X342393186Y-133894996D01*
X342394214Y-133979135D01*
X342395232Y-134074111D01*
X342399850Y-134520375D01*
X342235792Y-134520375D01*
X342233777Y-134077639D01*
X342233365Y-133983852D01*
X342232964Y-133903094D01*
X342232453Y-133834282D01*
X342231710Y-133776336D01*
X342230614Y-133728172D01*
X342229043Y-133688710D01*
X342226876Y-133656867D01*
X342223992Y-133631561D01*
X342220269Y-133611711D01*
X342215585Y-133596234D01*
X342209820Y-133584050D01*
X342202852Y-133574075D01*
X342194558Y-133565229D01*
X342184819Y-133556428D01*
X342174239Y-133547233D01*
X342138315Y-133523035D01*
X342096326Y-133509157D01*
X342046270Y-133505049D01*
X342023700Y-133506007D01*
X341973009Y-133515639D01*
X341930873Y-133536423D01*
X341897744Y-133567955D01*
X341874076Y-133609833D01*
X341862509Y-133649246D01*
X341860504Y-133665367D01*
X341858794Y-133692560D01*
X341857371Y-133731263D01*
X341856228Y-133781912D01*
X341855356Y-133844948D01*
X341854748Y-133920808D01*
X341854395Y-134009930D01*
X341854290Y-134105274D01*
X341854290Y-134520375D01*
X341692012Y-134520375D01*
X341692012Y-133377375D01*
X341854290Y-133377375D01*
X341854290Y-133514193D01*
X341874562Y-133482826D01*
X341914410Y-133433517D01*
X341962959Y-133395155D01*
X341991873Y-133379513D01*
X342012782Y-133370404D01*
X342031191Y-133364631D01*
X342051409Y-133361477D01*
X342077743Y-133360223D01*
X342108290Y-133360116D01*
X342146428Y-133360953D01*
G37*
X342146428Y-133360953D02*
X342175075Y-133363466D01*
X342198816Y-133368324D01*
X342222236Y-133376193D01*
X342224349Y-133377019D01*
X342271013Y-133402378D01*
X342312389Y-133438299D01*
X342344668Y-133481307D01*
X342350479Y-133491983D01*
X342358077Y-133507469D01*
X342364653Y-133522507D01*
X342370294Y-133538218D01*
X342375086Y-133555723D01*
X342379114Y-133576146D01*
X342382465Y-133600606D01*
X342385226Y-133630227D01*
X342387482Y-133666130D01*
X342389320Y-133709437D01*
X342390826Y-133761269D01*
X342392086Y-133822748D01*
X342393186Y-133894996D01*
X342394214Y-133979135D01*
X342395232Y-134074111D01*
X342399850Y-134520375D01*
X342235792Y-134520375D01*
X342233777Y-134077639D01*
X342233365Y-133983852D01*
X342232964Y-133903094D01*
X342232453Y-133834282D01*
X342231710Y-133776336D01*
X342230614Y-133728172D01*
X342229043Y-133688710D01*
X342226876Y-133656867D01*
X342223992Y-133631561D01*
X342220269Y-133611711D01*
X342215585Y-133596234D01*
X342209820Y-133584050D01*
X342202852Y-133574075D01*
X342194558Y-133565229D01*
X342184819Y-133556428D01*
X342174239Y-133547233D01*
X342138315Y-133523035D01*
X342096326Y-133509157D01*
X342046270Y-133505049D01*
X342023700Y-133506007D01*
X341973009Y-133515639D01*
X341930873Y-133536423D01*
X341897744Y-133567955D01*
X341874076Y-133609833D01*
X341862509Y-133649246D01*
X341860504Y-133665367D01*
X341858794Y-133692560D01*
X341857371Y-133731263D01*
X341856228Y-133781912D01*
X341855356Y-133844948D01*
X341854748Y-133920808D01*
X341854395Y-134009930D01*
X341854290Y-134105274D01*
X341854290Y-134520375D01*
X341692012Y-134520375D01*
X341692012Y-133377375D01*
X341854290Y-133377375D01*
X341854290Y-133514193D01*
X341874562Y-133482826D01*
X341914410Y-133433517D01*
X341962959Y-133395155D01*
X341991873Y-133379513D01*
X342012782Y-133370404D01*
X342031191Y-133364631D01*
X342051409Y-133361477D01*
X342077743Y-133360223D01*
X342108290Y-133360116D01*
X342146428Y-133360953D01*
G36*
X343759290Y-134520375D02*
G01*
X343597012Y-134520375D01*
X343597012Y-133377375D01*
X343759290Y-133377375D01*
X343759290Y-134520375D01*
G37*
X343759290Y-134520375D02*
X343597012Y-134520375D01*
X343597012Y-133377375D01*
X343759290Y-133377375D01*
X343759290Y-134520375D01*
G36*
X346320456Y-133377375D02*
G01*
X346539179Y-133377375D01*
X346539179Y-133525542D01*
X346320456Y-133525542D01*
X346320456Y-133895071D01*
X346320507Y-133978937D01*
X346320682Y-134049864D01*
X346321011Y-134109027D01*
X346321527Y-134157599D01*
X346322260Y-134196752D01*
X346323243Y-134227660D01*
X346324508Y-134251495D01*
X346326085Y-134269432D01*
X346328006Y-134282642D01*
X346330303Y-134292300D01*
X346331225Y-134295124D01*
X346347451Y-134328751D01*
X346370012Y-134352981D01*
X346400641Y-134368786D01*
X346441073Y-134377140D01*
X346480970Y-134379109D01*
X346539179Y-134379264D01*
X346539179Y-134527431D01*
X346466859Y-134526601D01*
X346432076Y-134525685D01*
X346398714Y-134523915D01*
X346371792Y-134521596D01*
X346361877Y-134520252D01*
X346306105Y-134505002D01*
X346259664Y-134479456D01*
X346222115Y-134443208D01*
X346193022Y-134395850D01*
X346174565Y-134346388D01*
X346171922Y-134335945D01*
X346169664Y-134323402D01*
X346167749Y-134307561D01*
X346166138Y-134287225D01*
X346164788Y-134261197D01*
X346163660Y-134228280D01*
X346162714Y-134187278D01*
X346161907Y-134136993D01*
X346161199Y-134076228D01*
X346160550Y-134003786D01*
X346159919Y-133918471D01*
X346159898Y-133915361D01*
X346157220Y-133525542D01*
X346045290Y-133525542D01*
X346045290Y-133377375D01*
X346158179Y-133377375D01*
X346158179Y-133045764D01*
X346320456Y-133045764D01*
X346320456Y-133377375D01*
G37*
X346320456Y-133377375D02*
X346539179Y-133377375D01*
X346539179Y-133525542D01*
X346320456Y-133525542D01*
X346320456Y-133895071D01*
X346320507Y-133978937D01*
X346320682Y-134049864D01*
X346321011Y-134109027D01*
X346321527Y-134157599D01*
X346322260Y-134196752D01*
X346323243Y-134227660D01*
X346324508Y-134251495D01*
X346326085Y-134269432D01*
X346328006Y-134282642D01*
X346330303Y-134292300D01*
X346331225Y-134295124D01*
X346347451Y-134328751D01*
X346370012Y-134352981D01*
X346400641Y-134368786D01*
X346441073Y-134377140D01*
X346480970Y-134379109D01*
X346539179Y-134379264D01*
X346539179Y-134527431D01*
X346466859Y-134526601D01*
X346432076Y-134525685D01*
X346398714Y-134523915D01*
X346371792Y-134521596D01*
X346361877Y-134520252D01*
X346306105Y-134505002D01*
X346259664Y-134479456D01*
X346222115Y-134443208D01*
X346193022Y-134395850D01*
X346174565Y-134346388D01*
X346171922Y-134335945D01*
X346169664Y-134323402D01*
X346167749Y-134307561D01*
X346166138Y-134287225D01*
X346164788Y-134261197D01*
X346163660Y-134228280D01*
X346162714Y-134187278D01*
X346161907Y-134136993D01*
X346161199Y-134076228D01*
X346160550Y-134003786D01*
X346159919Y-133918471D01*
X346159898Y-133915361D01*
X346157220Y-133525542D01*
X346045290Y-133525542D01*
X346045290Y-133377375D01*
X346158179Y-133377375D01*
X346158179Y-133045764D01*
X346320456Y-133045764D01*
X346320456Y-133377375D01*
G36*
X344775290Y-133810011D02*
G01*
X344775311Y-133903958D01*
X344775433Y-133984876D01*
X344775740Y-134053847D01*
X344776317Y-134111954D01*
X344777248Y-134160279D01*
X344778617Y-134199904D01*
X344780511Y-134231911D01*
X344783012Y-134257382D01*
X344786207Y-134277400D01*
X344790179Y-134293047D01*
X344795014Y-134305405D01*
X344800797Y-134315556D01*
X344807611Y-134324583D01*
X344815541Y-134333567D01*
X344816333Y-134334434D01*
X344839052Y-134355704D01*
X344863569Y-134370136D01*
X344893485Y-134379093D01*
X344932395Y-134383935D01*
X344949889Y-134384961D01*
X344982021Y-134386069D01*
X345004681Y-134385346D01*
X345022465Y-134382087D01*
X345039968Y-134375587D01*
X345053968Y-134368998D01*
X345081883Y-134352559D01*
X345101540Y-134333064D01*
X345112202Y-134317004D01*
X345131595Y-134284014D01*
X345133558Y-133830695D01*
X345135521Y-133377375D01*
X345297401Y-133377375D01*
X345297401Y-134520375D01*
X345135694Y-134520375D01*
X345133644Y-134463300D01*
X345131595Y-134406225D01*
X345109411Y-134437753D01*
X345074332Y-134475942D01*
X345029698Y-134505954D01*
X344987241Y-134523165D01*
X344951310Y-134530257D01*
X344908145Y-134533475D01*
X344863483Y-134532808D01*
X344823064Y-134528248D01*
X344802546Y-134523431D01*
X344751100Y-134500388D01*
X344706678Y-134465194D01*
X344669475Y-134418042D01*
X344639944Y-134359774D01*
X344623595Y-134319292D01*
X344621549Y-133848333D01*
X344619503Y-133377375D01*
X344775290Y-133377375D01*
X344775290Y-133810011D01*
G37*
X344775290Y-133810011D02*
X344775311Y-133903958D01*
X344775433Y-133984876D01*
X344775740Y-134053847D01*
X344776317Y-134111954D01*
X344777248Y-134160279D01*
X344778617Y-134199904D01*
X344780511Y-134231911D01*
X344783012Y-134257382D01*
X344786207Y-134277400D01*
X344790179Y-134293047D01*
X344795014Y-134305405D01*
X344800797Y-134315556D01*
X344807611Y-134324583D01*
X344815541Y-134333567D01*
X344816333Y-134334434D01*
X344839052Y-134355704D01*
X344863569Y-134370136D01*
X344893485Y-134379093D01*
X344932395Y-134383935D01*
X344949889Y-134384961D01*
X344982021Y-134386069D01*
X345004681Y-134385346D01*
X345022465Y-134382087D01*
X345039968Y-134375587D01*
X345053968Y-134368998D01*
X345081883Y-134352559D01*
X345101540Y-134333064D01*
X345112202Y-134317004D01*
X345131595Y-134284014D01*
X345133558Y-133830695D01*
X345135521Y-133377375D01*
X345297401Y-133377375D01*
X345297401Y-134520375D01*
X345135694Y-134520375D01*
X345133644Y-134463300D01*
X345131595Y-134406225D01*
X345109411Y-134437753D01*
X345074332Y-134475942D01*
X345029698Y-134505954D01*
X344987241Y-134523165D01*
X344951310Y-134530257D01*
X344908145Y-134533475D01*
X344863483Y-134532808D01*
X344823064Y-134528248D01*
X344802546Y-134523431D01*
X344751100Y-134500388D01*
X344706678Y-134465194D01*
X344669475Y-134418042D01*
X344639944Y-134359774D01*
X344623595Y-134319292D01*
X344621549Y-133848333D01*
X344619503Y-133377375D01*
X344775290Y-133377375D01*
X344775290Y-133810011D01*
G36*
X340775766Y-134066228D02*
G01*
X340795319Y-134009048D01*
X340823498Y-133959570D01*
X340849358Y-133927920D01*
X340875526Y-133902517D01*
X340902774Y-133882117D01*
X340933081Y-133866120D01*
X340968425Y-133853930D01*
X341010786Y-133844947D01*
X341062142Y-133838574D01*
X341124473Y-133834211D01*
X341165264Y-133832411D01*
X341305189Y-133827164D01*
X341302690Y-133720450D01*
X341301463Y-133677783D01*
X341299850Y-133646501D01*
X341297497Y-133623880D01*
X341294047Y-133607193D01*
X341289146Y-133593716D01*
X341285081Y-133585514D01*
X341257976Y-133546335D01*
X341223906Y-133518221D01*
X341181483Y-133500355D01*
X341129319Y-133491921D01*
X341125685Y-133491687D01*
X341078393Y-133492061D01*
X341040416Y-133500209D01*
X341008630Y-133517245D01*
X340980772Y-133543297D01*
X340953163Y-133584362D01*
X340939042Y-133629385D01*
X340937067Y-133655124D01*
X340937067Y-133680764D01*
X340781845Y-133680764D01*
X340781949Y-133654306D01*
X340783679Y-133633018D01*
X340788054Y-133605016D01*
X340792720Y-133582597D01*
X340813608Y-133521798D01*
X340845137Y-133469866D01*
X340886630Y-133427240D01*
X340937412Y-133394358D01*
X340996806Y-133371660D01*
X341064136Y-133359584D01*
X341138151Y-133358534D01*
X341211433Y-133367822D01*
X341274608Y-133386714D01*
X341328240Y-133415584D01*
X341372895Y-133454805D01*
X341409138Y-133504750D01*
X341432595Y-133553021D01*
X341435776Y-133561055D01*
X341438510Y-133568988D01*
X341440835Y-133577909D01*
X341442790Y-133588911D01*
X341444415Y-133603083D01*
X341445749Y-133621515D01*
X341446831Y-133645299D01*
X341447700Y-133675524D01*
X341448395Y-133713282D01*
X341448956Y-133759662D01*
X341449420Y-133815755D01*
X341449828Y-133882652D01*
X341450219Y-133961443D01*
X341450631Y-134053218D01*
X341450645Y-134056472D01*
X341452695Y-134520375D01*
X341303956Y-134520375D01*
X341303956Y-134419480D01*
X341283087Y-134448289D01*
X341252523Y-134479679D01*
X341211459Y-134505549D01*
X341163057Y-134523925D01*
X341161180Y-134524432D01*
X341131535Y-134529632D01*
X341093054Y-134532649D01*
X341050514Y-134533484D01*
X341008692Y-134532136D01*
X340972364Y-134528607D01*
X340951179Y-134524413D01*
X340896137Y-134503281D01*
X340850795Y-134472920D01*
X340814924Y-134432954D01*
X340788298Y-134383007D01*
X340770688Y-134322703D01*
X340761868Y-134251666D01*
X340760679Y-134209577D01*
X340761000Y-134202875D01*
X340906219Y-134202875D01*
X340908690Y-134261846D01*
X340917871Y-134309561D01*
X340934302Y-134347457D01*
X340958522Y-134376968D01*
X340977039Y-134391260D01*
X341011553Y-134407004D01*
X341054394Y-134416214D01*
X341101293Y-134418718D01*
X341147982Y-134414345D01*
X341190192Y-134402923D01*
X341197030Y-134400086D01*
X341234848Y-134378502D01*
X341262863Y-134350183D01*
X341283956Y-134313171D01*
X341289195Y-134300744D01*
X341293223Y-134288319D01*
X341296236Y-134273802D01*
X341298430Y-134255100D01*
X341299999Y-134230121D01*
X341301139Y-134196773D01*
X341302045Y-134152963D01*
X341302682Y-134112359D01*
X341305105Y-133947760D01*
X341172239Y-133950082D01*
X341125743Y-133950957D01*
X341090995Y-133951934D01*
X341065632Y-133953322D01*
X341047293Y-133955434D01*
X341033615Y-133958581D01*
X341022236Y-133963072D01*
X341010795Y-133969221D01*
X341006098Y-133971963D01*
X340969651Y-133999668D01*
X340941911Y-134035355D01*
X340922410Y-134080112D01*
X340910676Y-134135024D01*
X340906239Y-134201180D01*
X340906219Y-134202875D01*
X340761000Y-134202875D01*
X340764373Y-134132580D01*
X340775766Y-134066228D01*
G37*
X340775766Y-134066228D02*
X340795319Y-134009048D01*
X340823498Y-133959570D01*
X340849358Y-133927920D01*
X340875526Y-133902517D01*
X340902774Y-133882117D01*
X340933081Y-133866120D01*
X340968425Y-133853930D01*
X341010786Y-133844947D01*
X341062142Y-133838574D01*
X341124473Y-133834211D01*
X341165264Y-133832411D01*
X341305189Y-133827164D01*
X341302690Y-133720450D01*
X341301463Y-133677783D01*
X341299850Y-133646501D01*
X341297497Y-133623880D01*
X341294047Y-133607193D01*
X341289146Y-133593716D01*
X341285081Y-133585514D01*
X341257976Y-133546335D01*
X341223906Y-133518221D01*
X341181483Y-133500355D01*
X341129319Y-133491921D01*
X341125685Y-133491687D01*
X341078393Y-133492061D01*
X341040416Y-133500209D01*
X341008630Y-133517245D01*
X340980772Y-133543297D01*
X340953163Y-133584362D01*
X340939042Y-133629385D01*
X340937067Y-133655124D01*
X340937067Y-133680764D01*
X340781845Y-133680764D01*
X340781949Y-133654306D01*
X340783679Y-133633018D01*
X340788054Y-133605016D01*
X340792720Y-133582597D01*
X340813608Y-133521798D01*
X340845137Y-133469866D01*
X340886630Y-133427240D01*
X340937412Y-133394358D01*
X340996806Y-133371660D01*
X341064136Y-133359584D01*
X341138151Y-133358534D01*
X341211433Y-133367822D01*
X341274608Y-133386714D01*
X341328240Y-133415584D01*
X341372895Y-133454805D01*
X341409138Y-133504750D01*
X341432595Y-133553021D01*
X341435776Y-133561055D01*
X341438510Y-133568988D01*
X341440835Y-133577909D01*
X341442790Y-133588911D01*
X341444415Y-133603083D01*
X341445749Y-133621515D01*
X341446831Y-133645299D01*
X341447700Y-133675524D01*
X341448395Y-133713282D01*
X341448956Y-133759662D01*
X341449420Y-133815755D01*
X341449828Y-133882652D01*
X341450219Y-133961443D01*
X341450631Y-134053218D01*
X341450645Y-134056472D01*
X341452695Y-134520375D01*
X341303956Y-134520375D01*
X341303956Y-134419480D01*
X341283087Y-134448289D01*
X341252523Y-134479679D01*
X341211459Y-134505549D01*
X341163057Y-134523925D01*
X341161180Y-134524432D01*
X341131535Y-134529632D01*
X341093054Y-134532649D01*
X341050514Y-134533484D01*
X341008692Y-134532136D01*
X340972364Y-134528607D01*
X340951179Y-134524413D01*
X340896137Y-134503281D01*
X340850795Y-134472920D01*
X340814924Y-134432954D01*
X340788298Y-134383007D01*
X340770688Y-134322703D01*
X340761868Y-134251666D01*
X340760679Y-134209577D01*
X340761000Y-134202875D01*
X340906219Y-134202875D01*
X340908690Y-134261846D01*
X340917871Y-134309561D01*
X340934302Y-134347457D01*
X340958522Y-134376968D01*
X340977039Y-134391260D01*
X341011553Y-134407004D01*
X341054394Y-134416214D01*
X341101293Y-134418718D01*
X341147982Y-134414345D01*
X341190192Y-134402923D01*
X341197030Y-134400086D01*
X341234848Y-134378502D01*
X341262863Y-134350183D01*
X341283956Y-134313171D01*
X341289195Y-134300744D01*
X341293223Y-134288319D01*
X341296236Y-134273802D01*
X341298430Y-134255100D01*
X341299999Y-134230121D01*
X341301139Y-134196773D01*
X341302045Y-134152963D01*
X341302682Y-134112359D01*
X341305105Y-133947760D01*
X341172239Y-133950082D01*
X341125743Y-133950957D01*
X341090995Y-133951934D01*
X341065632Y-133953322D01*
X341047293Y-133955434D01*
X341033615Y-133958581D01*
X341022236Y-133963072D01*
X341010795Y-133969221D01*
X341006098Y-133971963D01*
X340969651Y-133999668D01*
X340941911Y-134035355D01*
X340922410Y-134080112D01*
X340910676Y-134135024D01*
X340906239Y-134201180D01*
X340906219Y-134202875D01*
X340761000Y-134202875D01*
X340764373Y-134132580D01*
X340775766Y-134066228D01*
G36*
X343759290Y-133137486D02*
G01*
X343597012Y-133137486D01*
X343597012Y-132982264D01*
X343759290Y-132982264D01*
X343759290Y-133137486D01*
G37*
X343759290Y-133137486D02*
X343597012Y-133137486D01*
X343597012Y-132982264D01*
X343759290Y-132982264D01*
X343759290Y-133137486D01*
G36*
X337987500Y-133358729D02*
G01*
X338047546Y-133369012D01*
X338103015Y-133387192D01*
X338151307Y-133413211D01*
X338182422Y-133439006D01*
X338209219Y-133473664D01*
X338232189Y-133517590D01*
X338249122Y-133566034D01*
X338255592Y-133596097D01*
X338261053Y-133629944D01*
X338263167Y-133652223D01*
X338259867Y-133665337D01*
X338249091Y-133671690D01*
X338228773Y-133673684D01*
X338196850Y-133673724D01*
X338188929Y-133673708D01*
X338114845Y-133673708D01*
X338114845Y-133653822D01*
X338109056Y-133612372D01*
X338093084Y-133572981D01*
X338069023Y-133538909D01*
X338038970Y-133513415D01*
X338018114Y-133503300D01*
X337987522Y-133496526D01*
X337950187Y-133494026D01*
X337911236Y-133495598D01*
X337875799Y-133501040D01*
X337849385Y-133509951D01*
X337813090Y-133536240D01*
X337786153Y-133572221D01*
X337769244Y-133616469D01*
X337763030Y-133667559D01*
X337763895Y-133692321D01*
X337771747Y-133736055D01*
X337788423Y-133772656D01*
X337815087Y-133803310D01*
X337852904Y-133829203D01*
X337903038Y-133851522D01*
X337928856Y-133860374D01*
X337995260Y-133881754D01*
X338049702Y-133899812D01*
X338093732Y-133915291D01*
X338128903Y-133928933D01*
X338156766Y-133941480D01*
X338178871Y-133953674D01*
X338196769Y-133966256D01*
X338212013Y-133979970D01*
X338226153Y-133995556D01*
X338235492Y-134007050D01*
X338263701Y-134052974D01*
X338281932Y-134107164D01*
X338290469Y-134170599D01*
X338291234Y-134199127D01*
X338286999Y-134274523D01*
X338274015Y-134339225D01*
X338251862Y-134393932D01*
X338220123Y-134439341D01*
X338178376Y-134476149D01*
X338126204Y-134505054D01*
X338101483Y-134514861D01*
X338079411Y-134521444D01*
X338053960Y-134526046D01*
X338021845Y-134529065D01*
X337979782Y-134530901D01*
X337966679Y-134531237D01*
X337929905Y-134531805D01*
X337896919Y-134531811D01*
X337870964Y-134531289D01*
X337855281Y-134530273D01*
X337853790Y-134530039D01*
X337787956Y-134511900D01*
X337732450Y-134484509D01*
X337686990Y-134447536D01*
X337651291Y-134400654D01*
X337625070Y-134343534D01*
X337608042Y-134275847D01*
X337603094Y-134239917D01*
X337598404Y-134195820D01*
X337746013Y-134195820D01*
X337750762Y-134236389D01*
X337762631Y-134288388D01*
X337784776Y-134330791D01*
X337816917Y-134363365D01*
X337858777Y-134385882D01*
X337910075Y-134398109D01*
X337949040Y-134400431D01*
X338006399Y-134395189D01*
X338054247Y-134379642D01*
X338092310Y-134354060D01*
X338120310Y-134318710D01*
X338137971Y-134273861D01*
X338145019Y-134219783D01*
X338145141Y-134209635D01*
X338143098Y-134172025D01*
X338137558Y-134144020D01*
X338134080Y-134135405D01*
X338112387Y-134104289D01*
X338080845Y-134076808D01*
X338038290Y-134052241D01*
X337983560Y-134029870D01*
X337941984Y-134016484D01*
X337892719Y-134000939D01*
X337844883Y-133984124D01*
X337801546Y-133967236D01*
X337765779Y-133951471D01*
X337740901Y-133938180D01*
X337713141Y-133916615D01*
X337684655Y-133887816D01*
X337659653Y-133856533D01*
X337642343Y-133827520D01*
X337641771Y-133826251D01*
X337624510Y-133773187D01*
X337616260Y-133714970D01*
X337616549Y-133654377D01*
X337624904Y-133594185D01*
X337640854Y-133537170D01*
X337663925Y-133486108D01*
X337693647Y-133443776D01*
X337709515Y-133427917D01*
X337753487Y-133397796D01*
X337805870Y-133375878D01*
X337864065Y-133362101D01*
X337925474Y-133356405D01*
X337987500Y-133358729D01*
G37*
X337987500Y-133358729D02*
X338047546Y-133369012D01*
X338103015Y-133387192D01*
X338151307Y-133413211D01*
X338182422Y-133439006D01*
X338209219Y-133473664D01*
X338232189Y-133517590D01*
X338249122Y-133566034D01*
X338255592Y-133596097D01*
X338261053Y-133629944D01*
X338263167Y-133652223D01*
X338259867Y-133665337D01*
X338249091Y-133671690D01*
X338228773Y-133673684D01*
X338196850Y-133673724D01*
X338188929Y-133673708D01*
X338114845Y-133673708D01*
X338114845Y-133653822D01*
X338109056Y-133612372D01*
X338093084Y-133572981D01*
X338069023Y-133538909D01*
X338038970Y-133513415D01*
X338018114Y-133503300D01*
X337987522Y-133496526D01*
X337950187Y-133494026D01*
X337911236Y-133495598D01*
X337875799Y-133501040D01*
X337849385Y-133509951D01*
X337813090Y-133536240D01*
X337786153Y-133572221D01*
X337769244Y-133616469D01*
X337763030Y-133667559D01*
X337763895Y-133692321D01*
X337771747Y-133736055D01*
X337788423Y-133772656D01*
X337815087Y-133803310D01*
X337852904Y-133829203D01*
X337903038Y-133851522D01*
X337928856Y-133860374D01*
X337995260Y-133881754D01*
X338049702Y-133899812D01*
X338093732Y-133915291D01*
X338128903Y-133928933D01*
X338156766Y-133941480D01*
X338178871Y-133953674D01*
X338196769Y-133966256D01*
X338212013Y-133979970D01*
X338226153Y-133995556D01*
X338235492Y-134007050D01*
X338263701Y-134052974D01*
X338281932Y-134107164D01*
X338290469Y-134170599D01*
X338291234Y-134199127D01*
X338286999Y-134274523D01*
X338274015Y-134339225D01*
X338251862Y-134393932D01*
X338220123Y-134439341D01*
X338178376Y-134476149D01*
X338126204Y-134505054D01*
X338101483Y-134514861D01*
X338079411Y-134521444D01*
X338053960Y-134526046D01*
X338021845Y-134529065D01*
X337979782Y-134530901D01*
X337966679Y-134531237D01*
X337929905Y-134531805D01*
X337896919Y-134531811D01*
X337870964Y-134531289D01*
X337855281Y-134530273D01*
X337853790Y-134530039D01*
X337787956Y-134511900D01*
X337732450Y-134484509D01*
X337686990Y-134447536D01*
X337651291Y-134400654D01*
X337625070Y-134343534D01*
X337608042Y-134275847D01*
X337603094Y-134239917D01*
X337598404Y-134195820D01*
X337746013Y-134195820D01*
X337750762Y-134236389D01*
X337762631Y-134288388D01*
X337784776Y-134330791D01*
X337816917Y-134363365D01*
X337858777Y-134385882D01*
X337910075Y-134398109D01*
X337949040Y-134400431D01*
X338006399Y-134395189D01*
X338054247Y-134379642D01*
X338092310Y-134354060D01*
X338120310Y-134318710D01*
X338137971Y-134273861D01*
X338145019Y-134219783D01*
X338145141Y-134209635D01*
X338143098Y-134172025D01*
X338137558Y-134144020D01*
X338134080Y-134135405D01*
X338112387Y-134104289D01*
X338080845Y-134076808D01*
X338038290Y-134052241D01*
X337983560Y-134029870D01*
X337941984Y-134016484D01*
X337892719Y-134000939D01*
X337844883Y-133984124D01*
X337801546Y-133967236D01*
X337765779Y-133951471D01*
X337740901Y-133938180D01*
X337713141Y-133916615D01*
X337684655Y-133887816D01*
X337659653Y-133856533D01*
X337642343Y-133827520D01*
X337641771Y-133826251D01*
X337624510Y-133773187D01*
X337616260Y-133714970D01*
X337616549Y-133654377D01*
X337624904Y-133594185D01*
X337640854Y-133537170D01*
X337663925Y-133486108D01*
X337693647Y-133443776D01*
X337709515Y-133427917D01*
X337753487Y-133397796D01*
X337805870Y-133375878D01*
X337864065Y-133362101D01*
X337925474Y-133356405D01*
X337987500Y-133358729D01*
G36*
X339450920Y-133414417D02*
G01*
X339455119Y-133429439D01*
X339462547Y-133456426D01*
X339472753Y-133493722D01*
X339485288Y-133539669D01*
X339499703Y-133592610D01*
X339515548Y-133650886D01*
X339532373Y-133712840D01*
X339549729Y-133776815D01*
X339567167Y-133841153D01*
X339584237Y-133904197D01*
X339600490Y-133964289D01*
X339615476Y-134019772D01*
X339628745Y-134068988D01*
X339639848Y-134110279D01*
X339648336Y-134141988D01*
X339653257Y-134160542D01*
X339660943Y-134188753D01*
X339667858Y-134212292D01*
X339672870Y-134227372D01*
X339674037Y-134230092D01*
X339676571Y-134225138D01*
X339682176Y-134207604D01*
X339690554Y-134178613D01*
X339701404Y-134139286D01*
X339714425Y-134090746D01*
X339729318Y-134034115D01*
X339745782Y-133970515D01*
X339763517Y-133901069D01*
X339782223Y-133826898D01*
X339786822Y-133808522D01*
X339894584Y-133377375D01*
X339974854Y-133377375D01*
X340011783Y-133377800D01*
X340036326Y-133379203D01*
X340050184Y-133381774D01*
X340055060Y-133385702D01*
X340055123Y-133386336D01*
X340053335Y-133397230D01*
X340048630Y-133417449D01*
X340041999Y-133442757D01*
X340041507Y-133444545D01*
X340037751Y-133458344D01*
X340030624Y-133484755D01*
X340020397Y-133522759D01*
X340007345Y-133571337D01*
X339991740Y-133629468D01*
X339973857Y-133696134D01*
X339953969Y-133770314D01*
X339932349Y-133850989D01*
X339909271Y-133937140D01*
X339885008Y-134027746D01*
X339859833Y-134121789D01*
X339850601Y-134156284D01*
X339825197Y-134250917D01*
X339800542Y-134342180D01*
X339776911Y-134429085D01*
X339754582Y-134510643D01*
X339733829Y-134585866D01*
X339714928Y-134653764D01*
X339698155Y-134713349D01*
X339683786Y-134763632D01*
X339672097Y-134803625D01*
X339663363Y-134832338D01*
X339657861Y-134848784D01*
X339656655Y-134851650D01*
X339628708Y-134894971D01*
X339592387Y-134930186D01*
X339546673Y-134957844D01*
X339490549Y-134978494D01*
X339422995Y-134992686D01*
X339386609Y-134997323D01*
X339342512Y-135001976D01*
X339342512Y-134846863D01*
X339386817Y-134843306D01*
X339438465Y-134832841D01*
X339482704Y-134810375D01*
X339519425Y-134775983D01*
X339546888Y-134733056D01*
X339554409Y-134714628D01*
X339563848Y-134686539D01*
X339574309Y-134652082D01*
X339584895Y-134614548D01*
X339594709Y-134577227D01*
X339602855Y-134543412D01*
X339608437Y-134516395D01*
X339610556Y-134499465D01*
X339610557Y-134499342D01*
X339608563Y-134489999D01*
X339602765Y-134468202D01*
X339593468Y-134434998D01*
X339580979Y-134391431D01*
X339565604Y-134338548D01*
X339547649Y-134277393D01*
X339527421Y-134209013D01*
X339505226Y-134134453D01*
X339481369Y-134054758D01*
X339456158Y-133970975D01*
X339444817Y-133933423D01*
X339419174Y-133848561D01*
X339394744Y-133767624D01*
X339371831Y-133691623D01*
X339350738Y-133621572D01*
X339331771Y-133558482D01*
X339315232Y-133503367D01*
X339301426Y-133457239D01*
X339290656Y-133421110D01*
X339283228Y-133395993D01*
X339279445Y-133382900D01*
X339279012Y-133381193D01*
X339285601Y-133379685D01*
X339303507Y-133378459D01*
X339329936Y-133377645D01*
X339359650Y-133377375D01*
X339440288Y-133377375D01*
X339450920Y-133414417D01*
G37*
X339450920Y-133414417D02*
X339455119Y-133429439D01*
X339462547Y-133456426D01*
X339472753Y-133493722D01*
X339485288Y-133539669D01*
X339499703Y-133592610D01*
X339515548Y-133650886D01*
X339532373Y-133712840D01*
X339549729Y-133776815D01*
X339567167Y-133841153D01*
X339584237Y-133904197D01*
X339600490Y-133964289D01*
X339615476Y-134019772D01*
X339628745Y-134068988D01*
X339639848Y-134110279D01*
X339648336Y-134141988D01*
X339653257Y-134160542D01*
X339660943Y-134188753D01*
X339667858Y-134212292D01*
X339672870Y-134227372D01*
X339674037Y-134230092D01*
X339676571Y-134225138D01*
X339682176Y-134207604D01*
X339690554Y-134178613D01*
X339701404Y-134139286D01*
X339714425Y-134090746D01*
X339729318Y-134034115D01*
X339745782Y-133970515D01*
X339763517Y-133901069D01*
X339782223Y-133826898D01*
X339786822Y-133808522D01*
X339894584Y-133377375D01*
X339974854Y-133377375D01*
X340011783Y-133377800D01*
X340036326Y-133379203D01*
X340050184Y-133381774D01*
X340055060Y-133385702D01*
X340055123Y-133386336D01*
X340053335Y-133397230D01*
X340048630Y-133417449D01*
X340041999Y-133442757D01*
X340041507Y-133444545D01*
X340037751Y-133458344D01*
X340030624Y-133484755D01*
X340020397Y-133522759D01*
X340007345Y-133571337D01*
X339991740Y-133629468D01*
X339973857Y-133696134D01*
X339953969Y-133770314D01*
X339932349Y-133850989D01*
X339909271Y-133937140D01*
X339885008Y-134027746D01*
X339859833Y-134121789D01*
X339850601Y-134156284D01*
X339825197Y-134250917D01*
X339800542Y-134342180D01*
X339776911Y-134429085D01*
X339754582Y-134510643D01*
X339733829Y-134585866D01*
X339714928Y-134653764D01*
X339698155Y-134713349D01*
X339683786Y-134763632D01*
X339672097Y-134803625D01*
X339663363Y-134832338D01*
X339657861Y-134848784D01*
X339656655Y-134851650D01*
X339628708Y-134894971D01*
X339592387Y-134930186D01*
X339546673Y-134957844D01*
X339490549Y-134978494D01*
X339422995Y-134992686D01*
X339386609Y-134997323D01*
X339342512Y-135001976D01*
X339342512Y-134846863D01*
X339386817Y-134843306D01*
X339438465Y-134832841D01*
X339482704Y-134810375D01*
X339519425Y-134775983D01*
X339546888Y-134733056D01*
X339554409Y-134714628D01*
X339563848Y-134686539D01*
X339574309Y-134652082D01*
X339584895Y-134614548D01*
X339594709Y-134577227D01*
X339602855Y-134543412D01*
X339608437Y-134516395D01*
X339610556Y-134499465D01*
X339610557Y-134499342D01*
X339608563Y-134489999D01*
X339602765Y-134468202D01*
X339593468Y-134434998D01*
X339580979Y-134391431D01*
X339565604Y-134338548D01*
X339547649Y-134277393D01*
X339527421Y-134209013D01*
X339505226Y-134134453D01*
X339481369Y-134054758D01*
X339456158Y-133970975D01*
X339444817Y-133933423D01*
X339419174Y-133848561D01*
X339394744Y-133767624D01*
X339371831Y-133691623D01*
X339350738Y-133621572D01*
X339331771Y-133558482D01*
X339315232Y-133503367D01*
X339301426Y-133457239D01*
X339290656Y-133421110D01*
X339283228Y-133395993D01*
X339279445Y-133382900D01*
X339279012Y-133381193D01*
X339285601Y-133379685D01*
X339303507Y-133378459D01*
X339329936Y-133377645D01*
X339359650Y-133377375D01*
X339440288Y-133377375D01*
X339450920Y-133414417D01*
G36*
X346906067Y-133137486D02*
G01*
X346743790Y-133137486D01*
X346743790Y-132982264D01*
X346906067Y-132982264D01*
X346906067Y-133137486D01*
G37*
X346906067Y-133137486D02*
X346743790Y-133137486D01*
X346743790Y-132982264D01*
X346906067Y-132982264D01*
X346906067Y-133137486D01*
G36*
X346906067Y-134520375D02*
G01*
X346743790Y-134520375D01*
X346743790Y-133377375D01*
X346906067Y-133377375D01*
X346906067Y-134520375D01*
G37*
X346906067Y-134520375D02*
X346743790Y-134520375D01*
X346743790Y-133377375D01*
X346906067Y-133377375D01*
X346906067Y-134520375D01*
G36*
X345727790Y-133377375D02*
G01*
X345946512Y-133377375D01*
X345946512Y-133525542D01*
X345727790Y-133525542D01*
X345728099Y-133897722D01*
X345728204Y-133983579D01*
X345728422Y-134056500D01*
X345728840Y-134117662D01*
X345729544Y-134168240D01*
X345730623Y-134209410D01*
X345732161Y-134242347D01*
X345734247Y-134268227D01*
X345736966Y-134288227D01*
X345740406Y-134303522D01*
X345744654Y-134315286D01*
X345749796Y-134324698D01*
X345755920Y-134332931D01*
X345760633Y-134338394D01*
X345787828Y-134359635D01*
X345825081Y-134373008D01*
X345873306Y-134378805D01*
X345888304Y-134379109D01*
X345946512Y-134379264D01*
X345946512Y-134527431D01*
X345874192Y-134526601D01*
X345839490Y-134525693D01*
X345806287Y-134523945D01*
X345779564Y-134521657D01*
X345769713Y-134520324D01*
X345713528Y-134504827D01*
X345666638Y-134478872D01*
X345628937Y-134442338D01*
X345600320Y-134395101D01*
X345580680Y-134337039D01*
X345572444Y-134291657D01*
X345571158Y-134274745D01*
X345569947Y-134245306D01*
X345568839Y-134204924D01*
X345567859Y-134155184D01*
X345567032Y-134097669D01*
X345566386Y-134033964D01*
X345565947Y-133965653D01*
X345565739Y-133894320D01*
X345565730Y-133883611D01*
X345565512Y-133525542D01*
X345452623Y-133525542D01*
X345452623Y-133377375D01*
X345565512Y-133377375D01*
X345565512Y-133045764D01*
X345727790Y-133045764D01*
X345727790Y-133377375D01*
G37*
X345727790Y-133377375D02*
X345946512Y-133377375D01*
X345946512Y-133525542D01*
X345727790Y-133525542D01*
X345728099Y-133897722D01*
X345728204Y-133983579D01*
X345728422Y-134056500D01*
X345728840Y-134117662D01*
X345729544Y-134168240D01*
X345730623Y-134209410D01*
X345732161Y-134242347D01*
X345734247Y-134268227D01*
X345736966Y-134288227D01*
X345740406Y-134303522D01*
X345744654Y-134315286D01*
X345749796Y-134324698D01*
X345755920Y-134332931D01*
X345760633Y-134338394D01*
X345787828Y-134359635D01*
X345825081Y-134373008D01*
X345873306Y-134378805D01*
X345888304Y-134379109D01*
X345946512Y-134379264D01*
X345946512Y-134527431D01*
X345874192Y-134526601D01*
X345839490Y-134525693D01*
X345806287Y-134523945D01*
X345779564Y-134521657D01*
X345769713Y-134520324D01*
X345713528Y-134504827D01*
X345666638Y-134478872D01*
X345628937Y-134442338D01*
X345600320Y-134395101D01*
X345580680Y-134337039D01*
X345572444Y-134291657D01*
X345571158Y-134274745D01*
X345569947Y-134245306D01*
X345568839Y-134204924D01*
X345567859Y-134155184D01*
X345567032Y-134097669D01*
X345566386Y-134033964D01*
X345565947Y-133965653D01*
X345565739Y-133894320D01*
X345565730Y-133883611D01*
X345565512Y-133525542D01*
X345452623Y-133525542D01*
X345452623Y-133377375D01*
X345565512Y-133377375D01*
X345565512Y-133045764D01*
X345727790Y-133045764D01*
X345727790Y-133377375D01*
G36*
X343127817Y-133366313D02*
G01*
X343183209Y-133385036D01*
X343229409Y-133413403D01*
X343266842Y-133451937D01*
X343295927Y-133501166D01*
X343317088Y-133561614D01*
X343328223Y-133615987D01*
X343330055Y-133635509D01*
X343331654Y-133668693D01*
X343333012Y-133715088D01*
X343334122Y-133774247D01*
X343334978Y-133845719D01*
X343335571Y-133929058D01*
X343335894Y-134023813D01*
X343335956Y-134093102D01*
X343335956Y-134520375D01*
X343173679Y-134520375D01*
X343173679Y-134089583D01*
X343173548Y-133986074D01*
X343173158Y-133895201D01*
X343172513Y-133817182D01*
X343171616Y-133752239D01*
X343170470Y-133700589D01*
X343169080Y-133662455D01*
X343167449Y-133638054D01*
X343166152Y-133629208D01*
X343148394Y-133584781D01*
X343120354Y-133549890D01*
X343082408Y-133524822D01*
X343034933Y-133509865D01*
X343005109Y-133506067D01*
X342953435Y-133507132D01*
X342907748Y-133517586D01*
X342870429Y-133536761D01*
X342857289Y-133547770D01*
X342844925Y-133560372D01*
X342834246Y-133573004D01*
X342825126Y-133586750D01*
X342817445Y-133602696D01*
X342811078Y-133621928D01*
X342805904Y-133645533D01*
X342801798Y-133674595D01*
X342798639Y-133710201D01*
X342796304Y-133753436D01*
X342794669Y-133805387D01*
X342793612Y-133867139D01*
X342793010Y-133939777D01*
X342792739Y-134024389D01*
X342792679Y-134118829D01*
X342792679Y-134520375D01*
X342637456Y-134520375D01*
X342637456Y-133377375D01*
X342790915Y-133377375D01*
X342795324Y-133399424D01*
X342797764Y-133418818D01*
X342799365Y-133445353D01*
X342799734Y-133464305D01*
X342799734Y-133507138D01*
X342819664Y-133475770D01*
X342856434Y-133430483D01*
X342901868Y-133395542D01*
X342954502Y-133371467D01*
X343012873Y-133358778D01*
X343075516Y-133357996D01*
X343127817Y-133366313D01*
G37*
X343127817Y-133366313D02*
X343183209Y-133385036D01*
X343229409Y-133413403D01*
X343266842Y-133451937D01*
X343295927Y-133501166D01*
X343317088Y-133561614D01*
X343328223Y-133615987D01*
X343330055Y-133635509D01*
X343331654Y-133668693D01*
X343333012Y-133715088D01*
X343334122Y-133774247D01*
X343334978Y-133845719D01*
X343335571Y-133929058D01*
X343335894Y-134023813D01*
X343335956Y-134093102D01*
X343335956Y-134520375D01*
X343173679Y-134520375D01*
X343173679Y-134089583D01*
X343173548Y-133986074D01*
X343173158Y-133895201D01*
X343172513Y-133817182D01*
X343171616Y-133752239D01*
X343170470Y-133700589D01*
X343169080Y-133662455D01*
X343167449Y-133638054D01*
X343166152Y-133629208D01*
X343148394Y-133584781D01*
X343120354Y-133549890D01*
X343082408Y-133524822D01*
X343034933Y-133509865D01*
X343005109Y-133506067D01*
X342953435Y-133507132D01*
X342907748Y-133517586D01*
X342870429Y-133536761D01*
X342857289Y-133547770D01*
X342844925Y-133560372D01*
X342834246Y-133573004D01*
X342825126Y-133586750D01*
X342817445Y-133602696D01*
X342811078Y-133621928D01*
X342805904Y-133645533D01*
X342801798Y-133674595D01*
X342798639Y-133710201D01*
X342796304Y-133753436D01*
X342794669Y-133805387D01*
X342793612Y-133867139D01*
X342793010Y-133939777D01*
X342792739Y-134024389D01*
X342792679Y-134118829D01*
X342792679Y-134520375D01*
X342637456Y-134520375D01*
X342637456Y-133377375D01*
X342790915Y-133377375D01*
X342795324Y-133399424D01*
X342797764Y-133418818D01*
X342799365Y-133445353D01*
X342799734Y-133464305D01*
X342799734Y-133507138D01*
X342819664Y-133475770D01*
X342856434Y-133430483D01*
X342901868Y-133395542D01*
X342954502Y-133371467D01*
X343012873Y-133358778D01*
X343075516Y-133357996D01*
X343127817Y-133366313D01*
G36*
X350903438Y-133390788D02*
G01*
X350903754Y-133335600D01*
X350904201Y-133289598D01*
X350904801Y-133251797D01*
X350905577Y-133221211D01*
X350906550Y-133196856D01*
X350907742Y-133177746D01*
X350909175Y-133162897D01*
X350910873Y-133151323D01*
X350912856Y-133142039D01*
X350915147Y-133134060D01*
X350916354Y-133130431D01*
X350933394Y-133086096D01*
X350951787Y-133050779D01*
X350974435Y-133019468D01*
X350992214Y-132999526D01*
X351032655Y-132965145D01*
X351082201Y-132936328D01*
X351136156Y-132915687D01*
X351148984Y-132912302D01*
X351182210Y-132907115D01*
X351224390Y-132904541D01*
X351270625Y-132904507D01*
X351316014Y-132906944D01*
X351355659Y-132911781D01*
X351373609Y-132915533D01*
X351436159Y-132938512D01*
X351490497Y-132972674D01*
X351535845Y-133017208D01*
X351571427Y-133071303D01*
X351596465Y-133134148D01*
X351601486Y-133153226D01*
X351603509Y-133163733D01*
X351605263Y-133177542D01*
X351606765Y-133195629D01*
X351608033Y-133218971D01*
X351609085Y-133248545D01*
X351609939Y-133285327D01*
X351610614Y-133330293D01*
X351611126Y-133384420D01*
X351611494Y-133448684D01*
X351611736Y-133524061D01*
X351611870Y-133611529D01*
X351611914Y-133712063D01*
X351611914Y-133719570D01*
X351611901Y-133822512D01*
X351611821Y-133912375D01*
X351611610Y-133990188D01*
X351611207Y-134056984D01*
X351610549Y-134113792D01*
X351609573Y-134161644D01*
X351608218Y-134201571D01*
X351606421Y-134234604D01*
X351604119Y-134261773D01*
X351601251Y-134284111D01*
X351597753Y-134302647D01*
X351593563Y-134318413D01*
X351588620Y-134332440D01*
X351582860Y-134345758D01*
X351576220Y-134359400D01*
X351572774Y-134366225D01*
X351539067Y-134417489D01*
X351494437Y-134461214D01*
X351440647Y-134496041D01*
X351379460Y-134520614D01*
X351368413Y-134523683D01*
X351334898Y-134529585D01*
X351292643Y-134532950D01*
X351246496Y-134533780D01*
X351201305Y-134532076D01*
X351161916Y-134527841D01*
X351141267Y-134523609D01*
X351077453Y-134500428D01*
X351023522Y-134467605D01*
X350978753Y-134424473D01*
X350942423Y-134370368D01*
X350918947Y-134318728D01*
X350903040Y-134276958D01*
X350903040Y-133723097D01*
X350903053Y-133621316D01*
X350903110Y-133532661D01*
X350903187Y-133483455D01*
X351055582Y-133483455D01*
X351055610Y-133560110D01*
X351055859Y-133648851D01*
X351056273Y-133747792D01*
X351056733Y-133843237D01*
X351057196Y-133925610D01*
X351057690Y-133995954D01*
X351058246Y-134055306D01*
X351058891Y-134104708D01*
X351059657Y-134145200D01*
X351060571Y-134177822D01*
X351061664Y-134203614D01*
X351062965Y-134223616D01*
X351064503Y-134238868D01*
X351066308Y-134250411D01*
X351068409Y-134259285D01*
X351070835Y-134266530D01*
X351070927Y-134266770D01*
X351095040Y-134312821D01*
X351127524Y-134347605D01*
X351168563Y-134371241D01*
X351218340Y-134383846D01*
X351255817Y-134386182D01*
X351290236Y-134385060D01*
X351316348Y-134381007D01*
X351339830Y-134372991D01*
X351347540Y-134369504D01*
X351385635Y-134346389D01*
X351414647Y-134316121D01*
X351437120Y-134276958D01*
X351453373Y-134241681D01*
X351453373Y-133197458D01*
X351436654Y-133160476D01*
X351412288Y-133121111D01*
X351378855Y-133087418D01*
X351340489Y-133063526D01*
X351338877Y-133062818D01*
X351311995Y-133055532D01*
X351276849Y-133051778D01*
X351238787Y-133051563D01*
X351203157Y-133054891D01*
X351175306Y-133061769D01*
X351173177Y-133062643D01*
X351138799Y-133082781D01*
X351107626Y-133110504D01*
X351084744Y-133141193D01*
X351082928Y-133144596D01*
X351077517Y-133156000D01*
X351072827Y-133168206D01*
X351068812Y-133182242D01*
X351065428Y-133199132D01*
X351062628Y-133219902D01*
X351060369Y-133245579D01*
X351058604Y-133277187D01*
X351057288Y-133315753D01*
X351056376Y-133362303D01*
X351055823Y-133417861D01*
X351055582Y-133483455D01*
X350903187Y-133483455D01*
X350903230Y-133456146D01*
X350903438Y-133390788D01*
G37*
X350903438Y-133390788D02*
X350903754Y-133335600D01*
X350904201Y-133289598D01*
X350904801Y-133251797D01*
X350905577Y-133221211D01*
X350906550Y-133196856D01*
X350907742Y-133177746D01*
X350909175Y-133162897D01*
X350910873Y-133151323D01*
X350912856Y-133142039D01*
X350915147Y-133134060D01*
X350916354Y-133130431D01*
X350933394Y-133086096D01*
X350951787Y-133050779D01*
X350974435Y-133019468D01*
X350992214Y-132999526D01*
X351032655Y-132965145D01*
X351082201Y-132936328D01*
X351136156Y-132915687D01*
X351148984Y-132912302D01*
X351182210Y-132907115D01*
X351224390Y-132904541D01*
X351270625Y-132904507D01*
X351316014Y-132906944D01*
X351355659Y-132911781D01*
X351373609Y-132915533D01*
X351436159Y-132938512D01*
X351490497Y-132972674D01*
X351535845Y-133017208D01*
X351571427Y-133071303D01*
X351596465Y-133134148D01*
X351601486Y-133153226D01*
X351603509Y-133163733D01*
X351605263Y-133177542D01*
X351606765Y-133195629D01*
X351608033Y-133218971D01*
X351609085Y-133248545D01*
X351609939Y-133285327D01*
X351610614Y-133330293D01*
X351611126Y-133384420D01*
X351611494Y-133448684D01*
X351611736Y-133524061D01*
X351611870Y-133611529D01*
X351611914Y-133712063D01*
X351611914Y-133719570D01*
X351611901Y-133822512D01*
X351611821Y-133912375D01*
X351611610Y-133990188D01*
X351611207Y-134056984D01*
X351610549Y-134113792D01*
X351609573Y-134161644D01*
X351608218Y-134201571D01*
X351606421Y-134234604D01*
X351604119Y-134261773D01*
X351601251Y-134284111D01*
X351597753Y-134302647D01*
X351593563Y-134318413D01*
X351588620Y-134332440D01*
X351582860Y-134345758D01*
X351576220Y-134359400D01*
X351572774Y-134366225D01*
X351539067Y-134417489D01*
X351494437Y-134461214D01*
X351440647Y-134496041D01*
X351379460Y-134520614D01*
X351368413Y-134523683D01*
X351334898Y-134529585D01*
X351292643Y-134532950D01*
X351246496Y-134533780D01*
X351201305Y-134532076D01*
X351161916Y-134527841D01*
X351141267Y-134523609D01*
X351077453Y-134500428D01*
X351023522Y-134467605D01*
X350978753Y-134424473D01*
X350942423Y-134370368D01*
X350918947Y-134318728D01*
X350903040Y-134276958D01*
X350903040Y-133723097D01*
X350903053Y-133621316D01*
X350903110Y-133532661D01*
X350903187Y-133483455D01*
X351055582Y-133483455D01*
X351055610Y-133560110D01*
X351055859Y-133648851D01*
X351056273Y-133747792D01*
X351056733Y-133843237D01*
X351057196Y-133925610D01*
X351057690Y-133995954D01*
X351058246Y-134055306D01*
X351058891Y-134104708D01*
X351059657Y-134145200D01*
X351060571Y-134177822D01*
X351061664Y-134203614D01*
X351062965Y-134223616D01*
X351064503Y-134238868D01*
X351066308Y-134250411D01*
X351068409Y-134259285D01*
X351070835Y-134266530D01*
X351070927Y-134266770D01*
X351095040Y-134312821D01*
X351127524Y-134347605D01*
X351168563Y-134371241D01*
X351218340Y-134383846D01*
X351255817Y-134386182D01*
X351290236Y-134385060D01*
X351316348Y-134381007D01*
X351339830Y-134372991D01*
X351347540Y-134369504D01*
X351385635Y-134346389D01*
X351414647Y-134316121D01*
X351437120Y-134276958D01*
X351453373Y-134241681D01*
X351453373Y-133197458D01*
X351436654Y-133160476D01*
X351412288Y-133121111D01*
X351378855Y-133087418D01*
X351340489Y-133063526D01*
X351338877Y-133062818D01*
X351311995Y-133055532D01*
X351276849Y-133051778D01*
X351238787Y-133051563D01*
X351203157Y-133054891D01*
X351175306Y-133061769D01*
X351173177Y-133062643D01*
X351138799Y-133082781D01*
X351107626Y-133110504D01*
X351084744Y-133141193D01*
X351082928Y-133144596D01*
X351077517Y-133156000D01*
X351072827Y-133168206D01*
X351068812Y-133182242D01*
X351065428Y-133199132D01*
X351062628Y-133219902D01*
X351060369Y-133245579D01*
X351058604Y-133277187D01*
X351057288Y-133315753D01*
X351056376Y-133362303D01*
X351055823Y-133417861D01*
X351055582Y-133483455D01*
X350903187Y-133483455D01*
X350903230Y-133456146D01*
X350903438Y-133390788D01*
G36*
X336306452Y-133358440D02*
G01*
X336378325Y-133369347D01*
X336441979Y-133391106D01*
X336496853Y-133423325D01*
X336542387Y-133465609D01*
X336578022Y-133517566D01*
X336598244Y-133563573D01*
X336604165Y-133584664D01*
X336609893Y-133612232D01*
X336614973Y-133642844D01*
X336618948Y-133673072D01*
X336621362Y-133699482D01*
X336621757Y-133718644D01*
X336619969Y-133726899D01*
X336611983Y-133728259D01*
X336593025Y-133729340D01*
X336566236Y-133730006D01*
X336544782Y-133730153D01*
X336472849Y-133730153D01*
X336468056Y-133683368D01*
X336460363Y-133637002D01*
X336447056Y-133600436D01*
X336426655Y-133569983D01*
X336419390Y-133561965D01*
X336391749Y-133536917D01*
X336363523Y-133520603D01*
X336330719Y-133511513D01*
X336289345Y-133508134D01*
X336276873Y-133508004D01*
X336230737Y-133510498D01*
X336194613Y-133518871D01*
X336165150Y-133534465D01*
X336139000Y-133558619D01*
X336133113Y-133565511D01*
X336123150Y-133577950D01*
X336114848Y-133589863D01*
X336108058Y-133602618D01*
X336102627Y-133617581D01*
X336098405Y-133636120D01*
X336095239Y-133659601D01*
X336092980Y-133689392D01*
X336091475Y-133726860D01*
X336090573Y-133773371D01*
X336090124Y-133830292D01*
X336089975Y-133898991D01*
X336089970Y-133955424D01*
X336090039Y-134255792D01*
X336106675Y-134291070D01*
X336131530Y-134330875D01*
X336163768Y-134359530D01*
X336204363Y-134377593D01*
X336254287Y-134385623D01*
X336272527Y-134386165D01*
X336318157Y-134384057D01*
X336354115Y-134376547D01*
X336384235Y-134362319D01*
X336412351Y-134340055D01*
X336415482Y-134337064D01*
X336445130Y-134298890D01*
X336464144Y-134253722D01*
X336470900Y-134205424D01*
X336470901Y-134205122D01*
X336470901Y-134181708D01*
X336626123Y-134181708D01*
X336626070Y-134201111D01*
X336620716Y-134257654D01*
X336605981Y-134315212D01*
X336583404Y-134369822D01*
X336554521Y-134417521D01*
X336531663Y-134444388D01*
X336493060Y-134475496D01*
X336445667Y-134502069D01*
X336394684Y-134521399D01*
X336373540Y-134526689D01*
X336339860Y-134531324D01*
X336298327Y-134533545D01*
X336253808Y-134533425D01*
X336211173Y-134531038D01*
X336175291Y-134526457D01*
X336161908Y-134523503D01*
X336097845Y-134500051D01*
X336043955Y-134466834D01*
X336000063Y-134423678D01*
X335965991Y-134370407D01*
X335941560Y-134306845D01*
X335941087Y-134305181D01*
X335938627Y-134293698D01*
X335936584Y-134277476D01*
X335934923Y-134255318D01*
X335933612Y-134226029D01*
X335932618Y-134188412D01*
X335931909Y-134141271D01*
X335931450Y-134083411D01*
X335931209Y-134013636D01*
X335931151Y-133945347D01*
X335931164Y-133869239D01*
X335931244Y-133805870D01*
X335931451Y-133753864D01*
X335931847Y-133711851D01*
X335932492Y-133678455D01*
X335933448Y-133652305D01*
X335934774Y-133632027D01*
X335936533Y-133616248D01*
X335938784Y-133603594D01*
X335941590Y-133592693D01*
X335945010Y-133582170D01*
X335947575Y-133574931D01*
X335976933Y-133511254D01*
X336015394Y-133458270D01*
X336062621Y-133416180D01*
X336118275Y-133385189D01*
X336182018Y-133365502D01*
X336253512Y-133357322D01*
X336306452Y-133358440D01*
G37*
X336306452Y-133358440D02*
X336378325Y-133369347D01*
X336441979Y-133391106D01*
X336496853Y-133423325D01*
X336542387Y-133465609D01*
X336578022Y-133517566D01*
X336598244Y-133563573D01*
X336604165Y-133584664D01*
X336609893Y-133612232D01*
X336614973Y-133642844D01*
X336618948Y-133673072D01*
X336621362Y-133699482D01*
X336621757Y-133718644D01*
X336619969Y-133726899D01*
X336611983Y-133728259D01*
X336593025Y-133729340D01*
X336566236Y-133730006D01*
X336544782Y-133730153D01*
X336472849Y-133730153D01*
X336468056Y-133683368D01*
X336460363Y-133637002D01*
X336447056Y-133600436D01*
X336426655Y-133569983D01*
X336419390Y-133561965D01*
X336391749Y-133536917D01*
X336363523Y-133520603D01*
X336330719Y-133511513D01*
X336289345Y-133508134D01*
X336276873Y-133508004D01*
X336230737Y-133510498D01*
X336194613Y-133518871D01*
X336165150Y-133534465D01*
X336139000Y-133558619D01*
X336133113Y-133565511D01*
X336123150Y-133577950D01*
X336114848Y-133589863D01*
X336108058Y-133602618D01*
X336102627Y-133617581D01*
X336098405Y-133636120D01*
X336095239Y-133659601D01*
X336092980Y-133689392D01*
X336091475Y-133726860D01*
X336090573Y-133773371D01*
X336090124Y-133830292D01*
X336089975Y-133898991D01*
X336089970Y-133955424D01*
X336090039Y-134255792D01*
X336106675Y-134291070D01*
X336131530Y-134330875D01*
X336163768Y-134359530D01*
X336204363Y-134377593D01*
X336254287Y-134385623D01*
X336272527Y-134386165D01*
X336318157Y-134384057D01*
X336354115Y-134376547D01*
X336384235Y-134362319D01*
X336412351Y-134340055D01*
X336415482Y-134337064D01*
X336445130Y-134298890D01*
X336464144Y-134253722D01*
X336470900Y-134205424D01*
X336470901Y-134205122D01*
X336470901Y-134181708D01*
X336626123Y-134181708D01*
X336626070Y-134201111D01*
X336620716Y-134257654D01*
X336605981Y-134315212D01*
X336583404Y-134369822D01*
X336554521Y-134417521D01*
X336531663Y-134444388D01*
X336493060Y-134475496D01*
X336445667Y-134502069D01*
X336394684Y-134521399D01*
X336373540Y-134526689D01*
X336339860Y-134531324D01*
X336298327Y-134533545D01*
X336253808Y-134533425D01*
X336211173Y-134531038D01*
X336175291Y-134526457D01*
X336161908Y-134523503D01*
X336097845Y-134500051D01*
X336043955Y-134466834D01*
X336000063Y-134423678D01*
X335965991Y-134370407D01*
X335941560Y-134306845D01*
X335941087Y-134305181D01*
X335938627Y-134293698D01*
X335936584Y-134277476D01*
X335934923Y-134255318D01*
X335933612Y-134226029D01*
X335932618Y-134188412D01*
X335931909Y-134141271D01*
X335931450Y-134083411D01*
X335931209Y-134013636D01*
X335931151Y-133945347D01*
X335931164Y-133869239D01*
X335931244Y-133805870D01*
X335931451Y-133753864D01*
X335931847Y-133711851D01*
X335932492Y-133678455D01*
X335933448Y-133652305D01*
X335934774Y-133632027D01*
X335936533Y-133616248D01*
X335938784Y-133603594D01*
X335941590Y-133592693D01*
X335945010Y-133582170D01*
X335947575Y-133574931D01*
X335976933Y-133511254D01*
X336015394Y-133458270D01*
X336062621Y-133416180D01*
X336118275Y-133385189D01*
X336182018Y-133365502D01*
X336253512Y-133357322D01*
X336306452Y-133358440D01*
G36*
X340640734Y-133066931D02*
G01*
X340567110Y-133066931D01*
X340524929Y-133067757D01*
X340493658Y-133070764D01*
X340470164Y-133076747D01*
X340451316Y-133086498D01*
X340434193Y-133100608D01*
X340418757Y-133119795D01*
X340407424Y-133144994D01*
X340399770Y-133178124D01*
X340395373Y-133221100D01*
X340393807Y-133275838D01*
X340393790Y-133283406D01*
X340393790Y-133377375D01*
X340640734Y-133377375D01*
X340640734Y-133511431D01*
X340393790Y-133511431D01*
X340393790Y-134520375D01*
X340231512Y-134520375D01*
X340231512Y-133511431D01*
X340111567Y-133511431D01*
X340111567Y-133377375D01*
X340171540Y-133377375D01*
X340198764Y-133377183D01*
X340219731Y-133376670D01*
X340231146Y-133375933D01*
X340232294Y-133375611D01*
X340232819Y-133368348D01*
X340233801Y-133349249D01*
X340235133Y-133320582D01*
X340236710Y-133284609D01*
X340238294Y-133246847D01*
X340240532Y-133198356D01*
X340242935Y-133161338D01*
X340245832Y-133133155D01*
X340249552Y-133111171D01*
X340254423Y-133092748D01*
X340259177Y-133079301D01*
X340284174Y-133032531D01*
X340319879Y-132990479D01*
X340362941Y-132956684D01*
X340388205Y-132943054D01*
X340406706Y-132935052D01*
X340423393Y-132929373D01*
X340441434Y-132925526D01*
X340463995Y-132923019D01*
X340494244Y-132921360D01*
X340535350Y-132920059D01*
X340536665Y-132920024D01*
X340640734Y-132917226D01*
X340640734Y-133066931D01*
G37*
X340640734Y-133066931D02*
X340567110Y-133066931D01*
X340524929Y-133067757D01*
X340493658Y-133070764D01*
X340470164Y-133076747D01*
X340451316Y-133086498D01*
X340434193Y-133100608D01*
X340418757Y-133119795D01*
X340407424Y-133144994D01*
X340399770Y-133178124D01*
X340395373Y-133221100D01*
X340393807Y-133275838D01*
X340393790Y-133283406D01*
X340393790Y-133377375D01*
X340640734Y-133377375D01*
X340640734Y-133511431D01*
X340393790Y-133511431D01*
X340393790Y-134520375D01*
X340231512Y-134520375D01*
X340231512Y-133511431D01*
X340111567Y-133511431D01*
X340111567Y-133377375D01*
X340171540Y-133377375D01*
X340198764Y-133377183D01*
X340219731Y-133376670D01*
X340231146Y-133375933D01*
X340232294Y-133375611D01*
X340232819Y-133368348D01*
X340233801Y-133349249D01*
X340235133Y-133320582D01*
X340236710Y-133284609D01*
X340238294Y-133246847D01*
X340240532Y-133198356D01*
X340242935Y-133161338D01*
X340245832Y-133133155D01*
X340249552Y-133111171D01*
X340254423Y-133092748D01*
X340259177Y-133079301D01*
X340284174Y-133032531D01*
X340319879Y-132990479D01*
X340362941Y-132956684D01*
X340388205Y-132943054D01*
X340406706Y-132935052D01*
X340423393Y-132929373D01*
X340441434Y-132925526D01*
X340463995Y-132923019D01*
X340494244Y-132921360D01*
X340535350Y-132920059D01*
X340536665Y-132920024D01*
X340640734Y-132917226D01*
X340640734Y-133066931D01*
G36*
X350364384Y-132904857D02*
G01*
X350408514Y-132908064D01*
X350445121Y-132913834D01*
X350450956Y-132915257D01*
X350515319Y-132938709D01*
X350570150Y-132972479D01*
X350615308Y-133016353D01*
X350650655Y-133070119D01*
X350676050Y-133133563D01*
X350691352Y-133206471D01*
X350696421Y-133288630D01*
X350696420Y-133289181D01*
X350691669Y-133371193D01*
X350677321Y-133452973D01*
X350652776Y-133536720D01*
X350617438Y-133624631D01*
X350588779Y-133684292D01*
X350575949Y-133708305D01*
X350556597Y-133742829D01*
X350531613Y-133786369D01*
X350501888Y-133837427D01*
X350468311Y-133894508D01*
X350431774Y-133956115D01*
X350393166Y-134020753D01*
X350353378Y-134086925D01*
X350313300Y-134153135D01*
X350273823Y-134217886D01*
X350235837Y-134279683D01*
X350202496Y-134333403D01*
X350180481Y-134368681D01*
X350437691Y-134370531D01*
X350694901Y-134372382D01*
X350694901Y-134520375D01*
X349982290Y-134520375D01*
X349982290Y-134389063D01*
X350180816Y-134054316D01*
X350219719Y-133988541D01*
X350257773Y-133923864D01*
X350294114Y-133861773D01*
X350327879Y-133803762D01*
X350358203Y-133751320D01*
X350384223Y-133705938D01*
X350405074Y-133669107D01*
X350419893Y-133642319D01*
X350423858Y-133634903D01*
X350465648Y-133547445D01*
X350497243Y-133463829D01*
X350518516Y-133384906D01*
X350529336Y-133311525D01*
X350529574Y-133244536D01*
X350519103Y-133184791D01*
X350499491Y-133136198D01*
X350473227Y-133098161D01*
X350441468Y-133072003D01*
X350402402Y-133056699D01*
X350354213Y-133051223D01*
X350349179Y-133051177D01*
X350301834Y-133055394D01*
X350262563Y-133069211D01*
X350227881Y-133094132D01*
X350211920Y-133110393D01*
X350185083Y-133146562D01*
X350165081Y-133188771D01*
X350150937Y-133239608D01*
X350142454Y-133294472D01*
X350134692Y-133363264D01*
X349973108Y-133363264D01*
X349977423Y-133290945D01*
X349986080Y-133216446D01*
X350002409Y-133147075D01*
X350025523Y-133086455D01*
X350029169Y-133079033D01*
X350059687Y-133032031D01*
X350100294Y-132988978D01*
X350147699Y-132952485D01*
X350198614Y-132925165D01*
X350240145Y-132911557D01*
X350274871Y-132906510D01*
X350318060Y-132904308D01*
X350364384Y-132904857D01*
G37*
X350364384Y-132904857D02*
X350408514Y-132908064D01*
X350445121Y-132913834D01*
X350450956Y-132915257D01*
X350515319Y-132938709D01*
X350570150Y-132972479D01*
X350615308Y-133016353D01*
X350650655Y-133070119D01*
X350676050Y-133133563D01*
X350691352Y-133206471D01*
X350696421Y-133288630D01*
X350696420Y-133289181D01*
X350691669Y-133371193D01*
X350677321Y-133452973D01*
X350652776Y-133536720D01*
X350617438Y-133624631D01*
X350588779Y-133684292D01*
X350575949Y-133708305D01*
X350556597Y-133742829D01*
X350531613Y-133786369D01*
X350501888Y-133837427D01*
X350468311Y-133894508D01*
X350431774Y-133956115D01*
X350393166Y-134020753D01*
X350353378Y-134086925D01*
X350313300Y-134153135D01*
X350273823Y-134217886D01*
X350235837Y-134279683D01*
X350202496Y-134333403D01*
X350180481Y-134368681D01*
X350437691Y-134370531D01*
X350694901Y-134372382D01*
X350694901Y-134520375D01*
X349982290Y-134520375D01*
X349982290Y-134389063D01*
X350180816Y-134054316D01*
X350219719Y-133988541D01*
X350257773Y-133923864D01*
X350294114Y-133861773D01*
X350327879Y-133803762D01*
X350358203Y-133751320D01*
X350384223Y-133705938D01*
X350405074Y-133669107D01*
X350419893Y-133642319D01*
X350423858Y-133634903D01*
X350465648Y-133547445D01*
X350497243Y-133463829D01*
X350518516Y-133384906D01*
X350529336Y-133311525D01*
X350529574Y-133244536D01*
X350519103Y-133184791D01*
X350499491Y-133136198D01*
X350473227Y-133098161D01*
X350441468Y-133072003D01*
X350402402Y-133056699D01*
X350354213Y-133051223D01*
X350349179Y-133051177D01*
X350301834Y-133055394D01*
X350262563Y-133069211D01*
X350227881Y-133094132D01*
X350211920Y-133110393D01*
X350185083Y-133146562D01*
X350165081Y-133188771D01*
X350150937Y-133239608D01*
X350142454Y-133294472D01*
X350134692Y-133363264D01*
X349973108Y-133363264D01*
X349977423Y-133290945D01*
X349986080Y-133216446D01*
X350002409Y-133147075D01*
X350025523Y-133086455D01*
X350029169Y-133079033D01*
X350059687Y-133032031D01*
X350100294Y-132988978D01*
X350147699Y-132952485D01*
X350198614Y-132925165D01*
X350240145Y-132911557D01*
X350274871Y-132906510D01*
X350318060Y-132904308D01*
X350364384Y-132904857D01*
G36*
X344212479Y-133209806D02*
G01*
X344214373Y-133373847D01*
X344429567Y-133377743D01*
X344429567Y-133525542D01*
X344209954Y-133525542D01*
X344212164Y-133901250D01*
X344214373Y-134276958D01*
X344230749Y-134310206D01*
X344247226Y-134337238D01*
X344267410Y-134356217D01*
X344293992Y-134368513D01*
X344329667Y-134375500D01*
X344364041Y-134378081D01*
X344429567Y-134380947D01*
X344429567Y-134527431D01*
X344357248Y-134526839D01*
X344321467Y-134525700D01*
X344286133Y-134523143D01*
X344256730Y-134519620D01*
X344246123Y-134517673D01*
X344218415Y-134510225D01*
X344191622Y-134500935D01*
X344180739Y-134496237D01*
X344148125Y-134474116D01*
X344117342Y-134441743D01*
X344091477Y-134402919D01*
X344075167Y-134366235D01*
X344071770Y-134355891D01*
X344068888Y-134345755D01*
X344066471Y-134334609D01*
X344064471Y-134321235D01*
X344062837Y-134304415D01*
X344061522Y-134282931D01*
X344060474Y-134255566D01*
X344059645Y-134221100D01*
X344058986Y-134178317D01*
X344058447Y-134125998D01*
X344057979Y-134062925D01*
X344057533Y-133987880D01*
X344057179Y-133922417D01*
X344055069Y-133525542D01*
X343935679Y-133525542D01*
X343935679Y-133377375D01*
X344055623Y-133377375D01*
X344055623Y-133045764D01*
X344210585Y-133045764D01*
X344212479Y-133209806D01*
G37*
X344212479Y-133209806D02*
X344214373Y-133373847D01*
X344429567Y-133377743D01*
X344429567Y-133525542D01*
X344209954Y-133525542D01*
X344212164Y-133901250D01*
X344214373Y-134276958D01*
X344230749Y-134310206D01*
X344247226Y-134337238D01*
X344267410Y-134356217D01*
X344293992Y-134368513D01*
X344329667Y-134375500D01*
X344364041Y-134378081D01*
X344429567Y-134380947D01*
X344429567Y-134527431D01*
X344357248Y-134526839D01*
X344321467Y-134525700D01*
X344286133Y-134523143D01*
X344256730Y-134519620D01*
X344246123Y-134517673D01*
X344218415Y-134510225D01*
X344191622Y-134500935D01*
X344180739Y-134496237D01*
X344148125Y-134474116D01*
X344117342Y-134441743D01*
X344091477Y-134402919D01*
X344075167Y-134366235D01*
X344071770Y-134355891D01*
X344068888Y-134345755D01*
X344066471Y-134334609D01*
X344064471Y-134321235D01*
X344062837Y-134304415D01*
X344061522Y-134282931D01*
X344060474Y-134255566D01*
X344059645Y-134221100D01*
X344058986Y-134178317D01*
X344058447Y-134125998D01*
X344057979Y-134062925D01*
X344057533Y-133987880D01*
X344057179Y-133922417D01*
X344055069Y-133525542D01*
X343935679Y-133525542D01*
X343935679Y-133377375D01*
X344055623Y-133377375D01*
X344055623Y-133045764D01*
X344210585Y-133045764D01*
X344212479Y-133209806D01*
G36*
X338452660Y-133714375D02*
G01*
X338454852Y-133677506D01*
X338457995Y-133646910D01*
X338462258Y-133621020D01*
X338467811Y-133598268D01*
X338474822Y-133577086D01*
X338483462Y-133555907D01*
X338493900Y-133533163D01*
X338496255Y-133528211D01*
X338529498Y-133474068D01*
X338572325Y-133429540D01*
X338623545Y-133395131D01*
X338681965Y-133371344D01*
X338746395Y-133358682D01*
X338815644Y-133357650D01*
X338878749Y-133366575D01*
X338941164Y-133386282D01*
X338996215Y-133416894D01*
X339042484Y-133457368D01*
X339078555Y-133506660D01*
X339084932Y-133518486D01*
X339096472Y-133542091D01*
X339105658Y-133563777D01*
X339112791Y-133585599D01*
X339118173Y-133609613D01*
X339122103Y-133637875D01*
X339124885Y-133672441D01*
X339126818Y-133715366D01*
X339128204Y-133768706D01*
X339129119Y-133820111D01*
X339132181Y-134012375D01*
X338607311Y-134012375D01*
X338610340Y-134130556D01*
X338611884Y-134178338D01*
X338613891Y-134214344D01*
X338616607Y-134240906D01*
X338620281Y-134260356D01*
X338625159Y-134275029D01*
X338625806Y-134276510D01*
X338651923Y-134321519D01*
X338684859Y-134354348D01*
X338725365Y-134375477D01*
X338774191Y-134385387D01*
X338797318Y-134386320D01*
X338832101Y-134384503D01*
X338861913Y-134379576D01*
X338875308Y-134375362D01*
X338913704Y-134351957D01*
X338944036Y-134318199D01*
X338964765Y-134276248D01*
X338973468Y-134237670D01*
X338977588Y-134202875D01*
X339130845Y-134202875D01*
X339130761Y-134239917D01*
X339124044Y-134301651D01*
X339104919Y-134360194D01*
X339074505Y-134412891D01*
X339042495Y-134449342D01*
X338998009Y-134485078D01*
X338950102Y-134510398D01*
X338896323Y-134526152D01*
X338834221Y-134533192D01*
X338799516Y-134533713D01*
X338765938Y-134532719D01*
X338733948Y-134530726D01*
X338708755Y-134528096D01*
X338701700Y-134526937D01*
X338642873Y-134508378D01*
X338589627Y-134477559D01*
X338543086Y-134435607D01*
X338504378Y-134383653D01*
X338474628Y-134322824D01*
X338462925Y-134287542D01*
X338459657Y-134274789D01*
X338456984Y-134260943D01*
X338454847Y-134244505D01*
X338453188Y-134223978D01*
X338451949Y-134197866D01*
X338451072Y-134164671D01*
X338450498Y-134122897D01*
X338450168Y-134071047D01*
X338450025Y-134007623D01*
X338450004Y-133955931D01*
X338450090Y-133878294D01*
X338450167Y-133864208D01*
X338608734Y-133864208D01*
X338968567Y-133864208D01*
X338968567Y-133766552D01*
X338967642Y-133713322D01*
X338964486Y-133671247D01*
X338958533Y-133637471D01*
X338949213Y-133609137D01*
X338935959Y-133583388D01*
X338930404Y-133574636D01*
X338901611Y-133543167D01*
X338864794Y-133520908D01*
X338822915Y-133508209D01*
X338778934Y-133505420D01*
X338735810Y-133512892D01*
X338696503Y-133530973D01*
X338678379Y-133544843D01*
X338653856Y-133570942D01*
X338635360Y-133600542D01*
X338622251Y-133635806D01*
X338613886Y-133678902D01*
X338609624Y-133731995D01*
X338608734Y-133779889D01*
X338608734Y-133864208D01*
X338450167Y-133864208D01*
X338450448Y-133813201D01*
X338450940Y-133779889D01*
X338451248Y-133759084D01*
X338452660Y-133714375D01*
G37*
X338452660Y-133714375D02*
X338454852Y-133677506D01*
X338457995Y-133646910D01*
X338462258Y-133621020D01*
X338467811Y-133598268D01*
X338474822Y-133577086D01*
X338483462Y-133555907D01*
X338493900Y-133533163D01*
X338496255Y-133528211D01*
X338529498Y-133474068D01*
X338572325Y-133429540D01*
X338623545Y-133395131D01*
X338681965Y-133371344D01*
X338746395Y-133358682D01*
X338815644Y-133357650D01*
X338878749Y-133366575D01*
X338941164Y-133386282D01*
X338996215Y-133416894D01*
X339042484Y-133457368D01*
X339078555Y-133506660D01*
X339084932Y-133518486D01*
X339096472Y-133542091D01*
X339105658Y-133563777D01*
X339112791Y-133585599D01*
X339118173Y-133609613D01*
X339122103Y-133637875D01*
X339124885Y-133672441D01*
X339126818Y-133715366D01*
X339128204Y-133768706D01*
X339129119Y-133820111D01*
X339132181Y-134012375D01*
X338607311Y-134012375D01*
X338610340Y-134130556D01*
X338611884Y-134178338D01*
X338613891Y-134214344D01*
X338616607Y-134240906D01*
X338620281Y-134260356D01*
X338625159Y-134275029D01*
X338625806Y-134276510D01*
X338651923Y-134321519D01*
X338684859Y-134354348D01*
X338725365Y-134375477D01*
X338774191Y-134385387D01*
X338797318Y-134386320D01*
X338832101Y-134384503D01*
X338861913Y-134379576D01*
X338875308Y-134375362D01*
X338913704Y-134351957D01*
X338944036Y-134318199D01*
X338964765Y-134276248D01*
X338973468Y-134237670D01*
X338977588Y-134202875D01*
X339130845Y-134202875D01*
X339130761Y-134239917D01*
X339124044Y-134301651D01*
X339104919Y-134360194D01*
X339074505Y-134412891D01*
X339042495Y-134449342D01*
X338998009Y-134485078D01*
X338950102Y-134510398D01*
X338896323Y-134526152D01*
X338834221Y-134533192D01*
X338799516Y-134533713D01*
X338765938Y-134532719D01*
X338733948Y-134530726D01*
X338708755Y-134528096D01*
X338701700Y-134526937D01*
X338642873Y-134508378D01*
X338589627Y-134477559D01*
X338543086Y-134435607D01*
X338504378Y-134383653D01*
X338474628Y-134322824D01*
X338462925Y-134287542D01*
X338459657Y-134274789D01*
X338456984Y-134260943D01*
X338454847Y-134244505D01*
X338453188Y-134223978D01*
X338451949Y-134197866D01*
X338451072Y-134164671D01*
X338450498Y-134122897D01*
X338450168Y-134071047D01*
X338450025Y-134007623D01*
X338450004Y-133955931D01*
X338450090Y-133878294D01*
X338450167Y-133864208D01*
X338608734Y-133864208D01*
X338968567Y-133864208D01*
X338968567Y-133766552D01*
X338967642Y-133713322D01*
X338964486Y-133671247D01*
X338958533Y-133637471D01*
X338949213Y-133609137D01*
X338935959Y-133583388D01*
X338930404Y-133574636D01*
X338901611Y-133543167D01*
X338864794Y-133520908D01*
X338822915Y-133508209D01*
X338778934Y-133505420D01*
X338735810Y-133512892D01*
X338696503Y-133530973D01*
X338678379Y-133544843D01*
X338653856Y-133570942D01*
X338635360Y-133600542D01*
X338622251Y-133635806D01*
X338613886Y-133678902D01*
X338609624Y-133731995D01*
X338608734Y-133779889D01*
X338608734Y-133864208D01*
X338450167Y-133864208D01*
X338450448Y-133813201D01*
X338450940Y-133779889D01*
X338451248Y-133759084D01*
X338452660Y-133714375D01*
G36*
X336780397Y-133979357D02*
G01*
X336780358Y-133913621D01*
X336780730Y-133848739D01*
X336781516Y-133786560D01*
X336782715Y-133728932D01*
X336784327Y-133677704D01*
X336786352Y-133634725D01*
X336788791Y-133601844D01*
X336791643Y-133580910D01*
X336792161Y-133578705D01*
X336814689Y-133517634D01*
X336847736Y-133465638D01*
X336890648Y-133423179D01*
X336942768Y-133390718D01*
X337003440Y-133368716D01*
X337072008Y-133357634D01*
X337108628Y-133356331D01*
X337180891Y-133362317D01*
X337245502Y-133379489D01*
X337301799Y-133407315D01*
X337349118Y-133445264D01*
X337386798Y-133492804D01*
X337414177Y-133549402D01*
X337430593Y-133614528D01*
X337430663Y-133614986D01*
X337432848Y-133637813D01*
X337434536Y-133674408D01*
X337435722Y-133724439D01*
X337436403Y-133787571D01*
X337436572Y-133863470D01*
X337436225Y-133951803D01*
X337436037Y-133978347D01*
X337435445Y-134053046D01*
X337434870Y-134115046D01*
X337434240Y-134165760D01*
X337433480Y-134206600D01*
X337432516Y-134238979D01*
X337431276Y-134264307D01*
X337429685Y-134283999D01*
X337427669Y-134299466D01*
X337425156Y-134312120D01*
X337422070Y-134323373D01*
X337418338Y-134334638D01*
X337417274Y-134337684D01*
X337389747Y-134396192D01*
X337351767Y-134445738D01*
X337304240Y-134485372D01*
X337249004Y-134513789D01*
X337216472Y-134522716D01*
X337174543Y-134529020D01*
X337127720Y-134532516D01*
X337080504Y-134533016D01*
X337037399Y-134530335D01*
X337002905Y-134524286D01*
X337001934Y-134524018D01*
X336939344Y-134500207D01*
X336887074Y-134466779D01*
X336845151Y-134423760D01*
X336813600Y-134371176D01*
X336792446Y-134309053D01*
X336792220Y-134308097D01*
X336789295Y-134288156D01*
X336786782Y-134256126D01*
X336784681Y-134213856D01*
X336782992Y-134163195D01*
X336781715Y-134105993D01*
X336781175Y-134067344D01*
X336937281Y-134067344D01*
X336937327Y-134118349D01*
X336937686Y-134159431D01*
X336938398Y-134191984D01*
X336939500Y-134217405D01*
X336941030Y-134237088D01*
X336943028Y-134252429D01*
X336945530Y-134264823D01*
X336947338Y-134271590D01*
X336965453Y-134316554D01*
X336990746Y-134349775D01*
X337024178Y-134371955D01*
X337066710Y-134383795D01*
X337104363Y-134386314D01*
X337138639Y-134384519D01*
X337168227Y-134379664D01*
X337181878Y-134375399D01*
X337216878Y-134355033D01*
X337244275Y-134325280D01*
X337256518Y-134305181D01*
X337260044Y-134298307D01*
X337262977Y-134291096D01*
X337265373Y-134282258D01*
X337267284Y-134270500D01*
X337268766Y-134254530D01*
X337269874Y-134233056D01*
X337270662Y-134204788D01*
X337271184Y-134168432D01*
X337271494Y-134122697D01*
X337271649Y-134066292D01*
X337271701Y-133997924D01*
X337271706Y-133945347D01*
X337271706Y-133613736D01*
X337252116Y-133580410D01*
X337223815Y-133545396D01*
X337186577Y-133521230D01*
X337140681Y-133508075D01*
X337125023Y-133506281D01*
X337072610Y-133507695D01*
X337027843Y-133520716D01*
X336991102Y-133545144D01*
X336962765Y-133580778D01*
X336954793Y-133596097D01*
X336951220Y-133604357D01*
X336948262Y-133613189D01*
X336945851Y-133623976D01*
X336943915Y-133638098D01*
X336942387Y-133656938D01*
X336941196Y-133681877D01*
X336940272Y-133714297D01*
X336939547Y-133755580D01*
X336938950Y-133807106D01*
X336938412Y-133870259D01*
X336937979Y-133929981D01*
X336937511Y-134005020D01*
X336937281Y-134067344D01*
X336781175Y-134067344D01*
X336780850Y-134044097D01*
X336780397Y-133979357D01*
G37*
X336780397Y-133979357D02*
X336780358Y-133913621D01*
X336780730Y-133848739D01*
X336781516Y-133786560D01*
X336782715Y-133728932D01*
X336784327Y-133677704D01*
X336786352Y-133634725D01*
X336788791Y-133601844D01*
X336791643Y-133580910D01*
X336792161Y-133578705D01*
X336814689Y-133517634D01*
X336847736Y-133465638D01*
X336890648Y-133423179D01*
X336942768Y-133390718D01*
X337003440Y-133368716D01*
X337072008Y-133357634D01*
X337108628Y-133356331D01*
X337180891Y-133362317D01*
X337245502Y-133379489D01*
X337301799Y-133407315D01*
X337349118Y-133445264D01*
X337386798Y-133492804D01*
X337414177Y-133549402D01*
X337430593Y-133614528D01*
X337430663Y-133614986D01*
X337432848Y-133637813D01*
X337434536Y-133674408D01*
X337435722Y-133724439D01*
X337436403Y-133787571D01*
X337436572Y-133863470D01*
X337436225Y-133951803D01*
X337436037Y-133978347D01*
X337435445Y-134053046D01*
X337434870Y-134115046D01*
X337434240Y-134165760D01*
X337433480Y-134206600D01*
X337432516Y-134238979D01*
X337431276Y-134264307D01*
X337429685Y-134283999D01*
X337427669Y-134299466D01*
X337425156Y-134312120D01*
X337422070Y-134323373D01*
X337418338Y-134334638D01*
X337417274Y-134337684D01*
X337389747Y-134396192D01*
X337351767Y-134445738D01*
X337304240Y-134485372D01*
X337249004Y-134513789D01*
X337216472Y-134522716D01*
X337174543Y-134529020D01*
X337127720Y-134532516D01*
X337080504Y-134533016D01*
X337037399Y-134530335D01*
X337002905Y-134524286D01*
X337001934Y-134524018D01*
X336939344Y-134500207D01*
X336887074Y-134466779D01*
X336845151Y-134423760D01*
X336813600Y-134371176D01*
X336792446Y-134309053D01*
X336792220Y-134308097D01*
X336789295Y-134288156D01*
X336786782Y-134256126D01*
X336784681Y-134213856D01*
X336782992Y-134163195D01*
X336781715Y-134105993D01*
X336781175Y-134067344D01*
X336937281Y-134067344D01*
X336937327Y-134118349D01*
X336937686Y-134159431D01*
X336938398Y-134191984D01*
X336939500Y-134217405D01*
X336941030Y-134237088D01*
X336943028Y-134252429D01*
X336945530Y-134264823D01*
X336947338Y-134271590D01*
X336965453Y-134316554D01*
X336990746Y-134349775D01*
X337024178Y-134371955D01*
X337066710Y-134383795D01*
X337104363Y-134386314D01*
X337138639Y-134384519D01*
X337168227Y-134379664D01*
X337181878Y-134375399D01*
X337216878Y-134355033D01*
X337244275Y-134325280D01*
X337256518Y-134305181D01*
X337260044Y-134298307D01*
X337262977Y-134291096D01*
X337265373Y-134282258D01*
X337267284Y-134270500D01*
X337268766Y-134254530D01*
X337269874Y-134233056D01*
X337270662Y-134204788D01*
X337271184Y-134168432D01*
X337271494Y-134122697D01*
X337271649Y-134066292D01*
X337271701Y-133997924D01*
X337271706Y-133945347D01*
X337271706Y-133613736D01*
X337252116Y-133580410D01*
X337223815Y-133545396D01*
X337186577Y-133521230D01*
X337140681Y-133508075D01*
X337125023Y-133506281D01*
X337072610Y-133507695D01*
X337027843Y-133520716D01*
X336991102Y-133545144D01*
X336962765Y-133580778D01*
X336954793Y-133596097D01*
X336951220Y-133604357D01*
X336948262Y-133613189D01*
X336945851Y-133623976D01*
X336943915Y-133638098D01*
X336942387Y-133656938D01*
X336941196Y-133681877D01*
X336940272Y-133714297D01*
X336939547Y-133755580D01*
X336938950Y-133807106D01*
X336938412Y-133870259D01*
X336937979Y-133929981D01*
X336937511Y-134005020D01*
X336937281Y-134067344D01*
X336781175Y-134067344D01*
X336780850Y-134044097D01*
X336780397Y-133979357D01*
G36*
X349064992Y-133183956D02*
G01*
X349066939Y-133171280D01*
X349069217Y-133160025D01*
X349071852Y-133149131D01*
X349071969Y-133148672D01*
X349090497Y-133091291D01*
X349114802Y-133044129D01*
X349146768Y-133003839D01*
X349161798Y-132989194D01*
X349205576Y-132954933D01*
X349252612Y-132930166D01*
X349305415Y-132914055D01*
X349366490Y-132905766D01*
X349416935Y-132904172D01*
X349482505Y-132907142D01*
X349537812Y-132916414D01*
X349585664Y-132932973D01*
X349628870Y-132957806D01*
X349670237Y-132991897D01*
X349672133Y-132993696D01*
X349712276Y-133040708D01*
X349742242Y-133095969D01*
X349759984Y-133148994D01*
X349762236Y-133164920D01*
X349764249Y-133193555D01*
X349766024Y-133233498D01*
X349767560Y-133283350D01*
X349768858Y-133341710D01*
X349769918Y-133407179D01*
X349770741Y-133478355D01*
X349771327Y-133553839D01*
X349771676Y-133632231D01*
X349771789Y-133712130D01*
X349771664Y-133792137D01*
X349771304Y-133870850D01*
X349770708Y-133946870D01*
X349769877Y-134018797D01*
X349768810Y-134085231D01*
X349767509Y-134144771D01*
X349765972Y-134196017D01*
X349764201Y-134237568D01*
X349762196Y-134268026D01*
X349759958Y-134285989D01*
X349759759Y-134286885D01*
X349737856Y-134351698D01*
X349705022Y-134407729D01*
X349661743Y-134454482D01*
X349608508Y-134491465D01*
X349545804Y-134518184D01*
X349525469Y-134524059D01*
X349492380Y-134529815D01*
X349450359Y-134533033D01*
X349404291Y-134533729D01*
X349359063Y-134531917D01*
X349319562Y-134527614D01*
X349298693Y-134523335D01*
X349241245Y-134501828D01*
X349188542Y-134470388D01*
X349143299Y-134431100D01*
X349108234Y-134386050D01*
X349099342Y-134370242D01*
X349090581Y-134349523D01*
X349080799Y-134321030D01*
X349072046Y-134290761D01*
X349071688Y-134289370D01*
X349069089Y-134278607D01*
X349066841Y-134267376D01*
X349064919Y-134254622D01*
X349063296Y-134239290D01*
X349061949Y-134220323D01*
X349060851Y-134196668D01*
X349059977Y-134167268D01*
X349059302Y-134131068D01*
X349058801Y-134087013D01*
X349058448Y-134034047D01*
X349058218Y-133971116D01*
X349058086Y-133897164D01*
X349058025Y-133811135D01*
X349058012Y-133719570D01*
X349058013Y-133716042D01*
X349216762Y-133716042D01*
X349216782Y-133813976D01*
X349216860Y-133898820D01*
X349217017Y-133971592D01*
X349217277Y-134033312D01*
X349217662Y-134085001D01*
X349218197Y-134127678D01*
X349218905Y-134162363D01*
X349219807Y-134190076D01*
X349220928Y-134211837D01*
X349222291Y-134228666D01*
X349223919Y-134241582D01*
X349225834Y-134251606D01*
X349228060Y-134259757D01*
X349229164Y-134263071D01*
X349251691Y-134309610D01*
X349282936Y-134345099D01*
X349322985Y-134369596D01*
X349371922Y-134383155D01*
X349414317Y-134386182D01*
X349448736Y-134385060D01*
X349474848Y-134381007D01*
X349498330Y-134372991D01*
X349506040Y-134369504D01*
X349544135Y-134346389D01*
X349573147Y-134316121D01*
X349595620Y-134276958D01*
X349611873Y-134241681D01*
X349611873Y-133197458D01*
X349595199Y-133160579D01*
X349574676Y-133126332D01*
X349546974Y-133095320D01*
X349515948Y-133071313D01*
X349492253Y-133059982D01*
X349458454Y-133053007D01*
X349417776Y-133050728D01*
X349376661Y-133053178D01*
X349345455Y-133059210D01*
X349305478Y-133077521D01*
X349270105Y-133106952D01*
X349242454Y-133144588D01*
X349233058Y-133164173D01*
X349216762Y-133204514D01*
X349216762Y-133716042D01*
X349058013Y-133716042D01*
X349058026Y-133621474D01*
X349058087Y-133536432D01*
X349058221Y-133463386D01*
X349058452Y-133401278D01*
X349058808Y-133349051D01*
X349059313Y-133305647D01*
X349059994Y-133270009D01*
X349060876Y-133241078D01*
X349061986Y-133217797D01*
X349062954Y-133204514D01*
X349063349Y-133199109D01*
X349064992Y-133183956D01*
G37*
X349064992Y-133183956D02*
X349066939Y-133171280D01*
X349069217Y-133160025D01*
X349071852Y-133149131D01*
X349071969Y-133148672D01*
X349090497Y-133091291D01*
X349114802Y-133044129D01*
X349146768Y-133003839D01*
X349161798Y-132989194D01*
X349205576Y-132954933D01*
X349252612Y-132930166D01*
X349305415Y-132914055D01*
X349366490Y-132905766D01*
X349416935Y-132904172D01*
X349482505Y-132907142D01*
X349537812Y-132916414D01*
X349585664Y-132932973D01*
X349628870Y-132957806D01*
X349670237Y-132991897D01*
X349672133Y-132993696D01*
X349712276Y-133040708D01*
X349742242Y-133095969D01*
X349759984Y-133148994D01*
X349762236Y-133164920D01*
X349764249Y-133193555D01*
X349766024Y-133233498D01*
X349767560Y-133283350D01*
X349768858Y-133341710D01*
X349769918Y-133407179D01*
X349770741Y-133478355D01*
X349771327Y-133553839D01*
X349771676Y-133632231D01*
X349771789Y-133712130D01*
X349771664Y-133792137D01*
X349771304Y-133870850D01*
X349770708Y-133946870D01*
X349769877Y-134018797D01*
X349768810Y-134085231D01*
X349767509Y-134144771D01*
X349765972Y-134196017D01*
X349764201Y-134237568D01*
X349762196Y-134268026D01*
X349759958Y-134285989D01*
X349759759Y-134286885D01*
X349737856Y-134351698D01*
X349705022Y-134407729D01*
X349661743Y-134454482D01*
X349608508Y-134491465D01*
X349545804Y-134518184D01*
X349525469Y-134524059D01*
X349492380Y-134529815D01*
X349450359Y-134533033D01*
X349404291Y-134533729D01*
X349359063Y-134531917D01*
X349319562Y-134527614D01*
X349298693Y-134523335D01*
X349241245Y-134501828D01*
X349188542Y-134470388D01*
X349143299Y-134431100D01*
X349108234Y-134386050D01*
X349099342Y-134370242D01*
X349090581Y-134349523D01*
X349080799Y-134321030D01*
X349072046Y-134290761D01*
X349071688Y-134289370D01*
X349069089Y-134278607D01*
X349066841Y-134267376D01*
X349064919Y-134254622D01*
X349063296Y-134239290D01*
X349061949Y-134220323D01*
X349060851Y-134196668D01*
X349059977Y-134167268D01*
X349059302Y-134131068D01*
X349058801Y-134087013D01*
X349058448Y-134034047D01*
X349058218Y-133971116D01*
X349058086Y-133897164D01*
X349058025Y-133811135D01*
X349058012Y-133719570D01*
X349058013Y-133716042D01*
X349216762Y-133716042D01*
X349216782Y-133813976D01*
X349216860Y-133898820D01*
X349217017Y-133971592D01*
X349217277Y-134033312D01*
X349217662Y-134085001D01*
X349218197Y-134127678D01*
X349218905Y-134162363D01*
X349219807Y-134190076D01*
X349220928Y-134211837D01*
X349222291Y-134228666D01*
X349223919Y-134241582D01*
X349225834Y-134251606D01*
X349228060Y-134259757D01*
X349229164Y-134263071D01*
X349251691Y-134309610D01*
X349282936Y-134345099D01*
X349322985Y-134369596D01*
X349371922Y-134383155D01*
X349414317Y-134386182D01*
X349448736Y-134385060D01*
X349474848Y-134381007D01*
X349498330Y-134372991D01*
X349506040Y-134369504D01*
X349544135Y-134346389D01*
X349573147Y-134316121D01*
X349595620Y-134276958D01*
X349611873Y-134241681D01*
X349611873Y-133197458D01*
X349595199Y-133160579D01*
X349574676Y-133126332D01*
X349546974Y-133095320D01*
X349515948Y-133071313D01*
X349492253Y-133059982D01*
X349458454Y-133053007D01*
X349417776Y-133050728D01*
X349376661Y-133053178D01*
X349345455Y-133059210D01*
X349305478Y-133077521D01*
X349270105Y-133106952D01*
X349242454Y-133144588D01*
X349233058Y-133164173D01*
X349216762Y-133204514D01*
X349216762Y-133716042D01*
X349058013Y-133716042D01*
X349058026Y-133621474D01*
X349058087Y-133536432D01*
X349058221Y-133463386D01*
X349058452Y-133401278D01*
X349058808Y-133349051D01*
X349059313Y-133305647D01*
X349059994Y-133270009D01*
X349060876Y-133241078D01*
X349061986Y-133217797D01*
X349062954Y-133204514D01*
X349063349Y-133199109D01*
X349064992Y-133183956D01*
D11*
X23630312Y-80444750D03*
X23630312Y-61694750D03*
X397578048Y-61694750D03*
X397578048Y-80444750D03*
X62429818Y-161146960D03*
X358778542Y-161146960D03*
X79618653Y-104302994D03*
X341589707Y-104302994D03*
X206213345Y-104302994D03*
X321438048Y-80444750D03*
X321438048Y-61694750D03*
X206213345Y-166958110D03*
X373371108Y-92373872D03*
X47837252Y-92373872D03*
X206213345Y-92373872D03*
X172991085Y-61694750D03*
X172991085Y-80444750D03*
M02*
