G04 #@! TF.GenerationSoftware,KiCad,Pcbnew,(6.0.5)*
G04 #@! TF.CreationDate,2022-06-28T17:28:25-04:00*
G04 #@! TF.ProjectId,discipline-pcb,64697363-6970-46c6-996e-652d7063622e,rev?*
G04 #@! TF.SameCoordinates,Original*
G04 #@! TF.FileFunction,Profile,NP*
%FSLAX46Y46*%
G04 Gerber Fmt 4.6, Leading zero omitted, Abs format (unit mm)*
G04 Created by KiCad (PCBNEW (6.0.5)) date 2022-06-28 17:28:25*
%MOMM*%
%LPD*%
G01*
G04 APERTURE LIST*
G04 #@! TA.AperFunction,Profile*
%ADD10C,0.150000*%
G04 #@! TD*
G04 #@! TA.AperFunction,Profile*
%ADD11C,0.200000*%
G04 #@! TD*
G04 APERTURE END LIST*
D10*
X398270989Y-185503748D02*
G75*
G03*
X401578048Y-182196730I11J3307048D01*
G01*
X401578012Y-92610847D02*
G75*
G03*
X398270989Y-89303788I-3307012J47D01*
G01*
X398270989Y-185503789D02*
X22937371Y-185503788D01*
X22937371Y-89293788D02*
X398270989Y-89303788D01*
D11*
X42678045Y-111353845D02*
G75*
G03*
X41678045Y-112353789I-45J-999955D01*
G01*
X198840511Y-162453789D02*
G75*
G03*
X199840548Y-163453789I999989J-11D01*
G01*
X317903048Y-112353789D02*
X317903048Y-124353789D01*
X187527894Y-176925403D02*
G75*
G03*
X193819889Y-176537707I2761606J6432203D01*
G01*
X80778047Y-106303789D02*
X92778047Y-106303789D01*
X353183798Y-144403798D02*
G75*
G03*
X352183798Y-145403789I2J-1000002D01*
G01*
X197947602Y-174756402D02*
G75*
G03*
X192904168Y-174756402I-2521717J-4317517D01*
G01*
X188047519Y-174962351D02*
G75*
G03*
X192811202Y-174810700I2241981J4469151D01*
G01*
X61728046Y-130403789D02*
X73728046Y-130403789D01*
X148834298Y-169503789D02*
X148834298Y-181503789D01*
X126021798Y-168503789D02*
X145165548Y-168503789D01*
X23628044Y-130403789D02*
X35628044Y-130403789D01*
X204603048Y-111353848D02*
G75*
G03*
X203603048Y-112353789I-48J-999952D01*
G01*
X385578048Y-182503789D02*
X397578048Y-182503789D01*
X102296297Y-164453789D02*
X102296297Y-164233235D01*
X227128047Y-93303788D02*
X227128047Y-105303789D01*
X269568838Y-175503789D02*
X269568838Y-175503789D01*
X80778047Y-92303847D02*
G75*
G03*
X79778047Y-93303788I-47J-999953D01*
G01*
X289328011Y-105303789D02*
G75*
G03*
X290328048Y-106303789I999989J-11D01*
G01*
X242703048Y-125353789D02*
X254703048Y-125353789D01*
X102209298Y-130403798D02*
G75*
G03*
X101209298Y-131403789I2J-1000002D01*
G01*
X255703011Y-112353789D02*
G75*
G03*
X254703048Y-111353789I-1000011J-11D01*
G01*
X337953048Y-125353789D02*
X349953048Y-125353789D01*
X204603048Y-111353789D02*
X216603048Y-111353789D01*
X293803048Y-112353789D02*
X293803048Y-124353789D01*
X102209298Y-168503789D02*
X116590548Y-168503789D01*
X193790548Y-150453788D02*
X193790548Y-162453789D01*
X266515548Y-144403789D02*
X278515548Y-144403789D01*
X61728046Y-182503790D02*
X73728046Y-182503790D01*
X23628044Y-168503844D02*
G75*
G03*
X22628044Y-169503789I-44J-999956D01*
G01*
X292803048Y-125353848D02*
G75*
G03*
X293803048Y-124353789I-48J1000048D01*
G01*
X376146798Y-145403789D02*
X376146798Y-135610839D01*
X179503011Y-112353789D02*
G75*
G03*
X178503048Y-111353789I-1000011J-11D01*
G01*
X145165548Y-144403848D02*
G75*
G03*
X146165548Y-143403789I-48J1000048D01*
G01*
X80778047Y-149453789D02*
X92778047Y-149453789D01*
X80778047Y-92303788D02*
X92778047Y-92303788D01*
X231890512Y-150453788D02*
G75*
G03*
X230890548Y-149453788I-1000012J-12D01*
G01*
X241511627Y-174928446D02*
G75*
G03*
X246275317Y-174776782I2241973J4469146D01*
G01*
X337953048Y-111353789D02*
X349953048Y-111353789D01*
X112828047Y-93303788D02*
X112828047Y-105303789D01*
X174771798Y-166503798D02*
G75*
G03*
X173771798Y-167503789I2J-1000002D01*
G01*
X117878048Y-93303788D02*
X117878048Y-105303789D01*
X74728046Y-131403789D02*
X74728046Y-143403790D01*
X166503048Y-111353848D02*
G75*
G03*
X165503048Y-112353789I-48J-999952D01*
G01*
X104590548Y-111353789D02*
X116590548Y-111353789D01*
X335665548Y-144403848D02*
G75*
G03*
X336665548Y-143403789I-48J1000048D01*
G01*
X179503048Y-112353789D02*
X179503048Y-124353789D01*
X213128048Y-169503789D02*
X213128048Y-181503789D01*
X240992001Y-176891504D02*
G75*
G03*
X239404737Y-176500815I-1972601J-4594496D01*
G01*
X41678045Y-150453789D02*
X41678045Y-162453790D01*
X261684517Y-174722484D02*
X261777483Y-174776782D01*
X233178048Y-92303788D02*
X245178048Y-92303788D01*
X179771798Y-181503798D02*
G75*
G03*
X180771798Y-180503789I2J999998D01*
G01*
X151215511Y-143403789D02*
G75*
G03*
X152215548Y-144403789I999989J-11D01*
G01*
X365528011Y-181503789D02*
G75*
G03*
X366528048Y-182503789I999989J-11D01*
G01*
X146165548Y-131403789D02*
X146165548Y-143403789D01*
X275040548Y-150453788D02*
X275040548Y-162453789D01*
X328428048Y-92303788D02*
X340428048Y-92303788D01*
X118878048Y-106303788D02*
X130878048Y-106303788D01*
X207065524Y-174264370D02*
G75*
G03*
X208099706Y-174528665I5467376J19238270D01*
G01*
X35628044Y-125353843D02*
G75*
G03*
X36628043Y-124353790I-44J1000043D01*
G01*
X214128048Y-168503848D02*
G75*
G03*
X213128048Y-169503789I-48J-999952D01*
G01*
X179790511Y-162453789D02*
G75*
G03*
X180790548Y-163453789I999989J-11D01*
G01*
X295090548Y-149453789D02*
X307090548Y-149453789D01*
X372441048Y-108303789D02*
X377441048Y-108303789D01*
X117590511Y-112353789D02*
G75*
G03*
X116590548Y-111353789I-1000011J-11D01*
G01*
X385578048Y-144403789D02*
X397578048Y-144403789D01*
X102209298Y-149453789D02*
X135640548Y-149453789D01*
X131878012Y-93303788D02*
G75*
G03*
X130878048Y-92303788I-1000012J-12D01*
G01*
X104590548Y-111353848D02*
G75*
G03*
X103590548Y-112353789I-48J-999952D01*
G01*
X269990512Y-150453788D02*
G75*
G03*
X268990548Y-149453788I-1000012J-12D01*
G01*
X280771811Y-167503789D02*
G75*
G03*
X279771798Y-166503789I-1000011J-11D01*
G01*
X55678011Y-169503789D02*
G75*
G03*
X54678045Y-168503789I-1000011J-11D01*
G01*
X355565048Y-106303788D02*
X370441048Y-106303788D01*
X159478047Y-167503789D02*
X159478047Y-167503789D01*
X327140548Y-150453788D02*
X327140548Y-162453789D01*
X374666382Y-111919634D02*
G75*
G03*
X375357010Y-112463133I900818J434134D01*
G01*
X221365548Y-144403848D02*
G75*
G03*
X222365548Y-143403789I-48J1000048D01*
G01*
X161740548Y-149453848D02*
G75*
G03*
X160740548Y-150453788I-48J-999952D01*
G01*
X128403048Y-111353848D02*
G75*
G03*
X127403048Y-112353789I-48J-999952D01*
G01*
X350953011Y-112353789D02*
G75*
G03*
X349953048Y-111353789I-1000011J-11D01*
G01*
X384578011Y-105303789D02*
G75*
G03*
X385578048Y-106303789I999989J-11D01*
G01*
X347478048Y-168503789D02*
X359478048Y-168503789D01*
X132172298Y-165453798D02*
G75*
G03*
X133172298Y-164453789I2J999998D01*
G01*
X158478048Y-168503848D02*
G75*
G03*
X159478048Y-167503789I-48J1000048D01*
G01*
X197553048Y-125353848D02*
G75*
G03*
X198553048Y-124353789I-48J1000048D01*
G01*
X255990511Y-162453789D02*
G75*
G03*
X256990548Y-163453789I999989J-11D01*
G01*
X102209298Y-130403789D02*
X118971798Y-130403789D01*
X384578048Y-131403789D02*
X384578048Y-143403789D01*
X264228048Y-106303847D02*
G75*
G03*
X265228047Y-105303789I-48J1000047D01*
G01*
X317903011Y-124353789D02*
G75*
G03*
X318903048Y-125353789I999989J-11D01*
G01*
X218890548Y-149453789D02*
X230890548Y-149453789D01*
X36628044Y-112353789D02*
X36628044Y-124353790D01*
X174740512Y-150453788D02*
G75*
G03*
X173740548Y-149453788I-1000012J-12D01*
G01*
X218890548Y-149453848D02*
G75*
G03*
X217890548Y-150453788I-48J-999952D01*
G01*
X384578048Y-150453788D02*
X384578048Y-162453789D01*
X198553048Y-112353789D02*
X198553048Y-124353789D01*
X289328011Y-181503789D02*
G75*
G03*
X290328048Y-182503789I999989J-11D01*
G01*
X149834298Y-168503789D02*
X158478048Y-168503789D01*
X279771798Y-166503789D02*
X274771798Y-166503789D01*
X156978047Y-92303847D02*
G75*
G03*
X155978047Y-93303788I-47J-999953D01*
G01*
X189028012Y-93303788D02*
G75*
G03*
X188028048Y-92303788I-1000012J-12D01*
G01*
X118878048Y-92303788D02*
X130878048Y-92303788D01*
X398578011Y-131403789D02*
G75*
G03*
X397578048Y-130403789I-1000011J-11D01*
G01*
X295090548Y-163453788D02*
X307090548Y-163453788D01*
X236940511Y-162453789D02*
G75*
G03*
X237940548Y-163453789I999989J-11D01*
G01*
X41678010Y-181503790D02*
G75*
G03*
X42678045Y-182503790I999990J-10D01*
G01*
X80778047Y-125353790D02*
X92778047Y-125353790D01*
X276040548Y-149453848D02*
G75*
G03*
X275040548Y-150453788I-48J-999952D01*
G01*
X360478011Y-169503789D02*
G75*
G03*
X359478048Y-168503789I-1000011J-11D01*
G01*
X160453048Y-112353789D02*
X160453048Y-124353789D01*
X92778047Y-125353846D02*
G75*
G03*
X93778046Y-124353790I-47J1000046D01*
G01*
X261753048Y-111353848D02*
G75*
G03*
X260753048Y-112353789I-48J-999952D01*
G01*
X307090548Y-163453848D02*
G75*
G03*
X308090548Y-162453789I-48J1000048D01*
G01*
X41678045Y-131403789D02*
X41678045Y-143403790D01*
X189028048Y-93303788D02*
X189028048Y-105303789D01*
X237940548Y-149453848D02*
G75*
G03*
X236940548Y-150453788I-48J-999952D01*
G01*
X42678045Y-111353789D02*
X54678045Y-111353789D01*
X234271798Y-169503789D02*
X234271798Y-181503789D01*
X366528048Y-149453789D02*
X378528048Y-149453789D01*
X199840548Y-149453789D02*
X211840548Y-149453789D01*
X79778010Y-162453790D02*
G75*
G03*
X80778047Y-163453790I999990J-10D01*
G01*
X217603048Y-112353789D02*
X217603048Y-124353789D01*
X251411717Y-174722484D02*
X251504683Y-174776782D01*
X362146798Y-125353789D02*
X361765547Y-125353789D01*
X250403030Y-176449490D02*
G75*
G03*
X247376969Y-176449490I-1513031J-2590507D01*
G01*
X55678045Y-169503789D02*
X55678045Y-181503790D01*
X101209309Y-162453789D02*
G75*
G03*
X101752798Y-163343512I999991J-11D01*
G01*
X80778047Y-163453790D02*
X92778047Y-163453790D01*
X250403030Y-176449490D02*
X250495996Y-176503789D01*
X152215548Y-130403848D02*
G75*
G03*
X151215548Y-131403789I-48J-999952D01*
G01*
X236940548Y-150453788D02*
X236940548Y-162453789D01*
X232178011Y-105303789D02*
G75*
G03*
X233178048Y-106303789I999989J-11D01*
G01*
X269568811Y-175503789D02*
G75*
G03*
X268568838Y-174503789I-1000011J-11D01*
G01*
X136928048Y-93303788D02*
X136928048Y-105303789D01*
X194078048Y-93303788D02*
X194078048Y-105303789D01*
X103590511Y-124353789D02*
G75*
G03*
X104590548Y-125353789I999989J-11D01*
G01*
X318903048Y-111353789D02*
X330903048Y-111353789D01*
X206702162Y-176246731D02*
G75*
G03*
X207753901Y-176496052I1672438J4712031D01*
G01*
X41678045Y-169503789D02*
X41678045Y-181503790D01*
X385578048Y-168503789D02*
X397578048Y-168503789D01*
X101209311Y-143403789D02*
G75*
G03*
X102209298Y-144403789I999989J-11D01*
G01*
X133165548Y-130403848D02*
G75*
G03*
X132165548Y-131403789I-48J-999952D01*
G01*
X209365548Y-144403789D02*
X221365548Y-144403789D01*
X147453048Y-125353789D02*
X159453048Y-125353789D01*
X147453048Y-111353789D02*
X159453048Y-111353789D01*
X80778047Y-130403789D02*
X92778047Y-130403789D01*
X212840512Y-150453788D02*
G75*
G03*
X211840548Y-149453788I-1000012J-12D01*
G01*
X204185655Y-176483408D02*
X204092689Y-176537706D01*
X222653011Y-124353789D02*
G75*
G03*
X223653048Y-125353789I999989J-11D01*
G01*
X23628044Y-106303788D02*
X35628044Y-106303788D01*
X60728046Y-93303788D02*
X60728046Y-105303789D01*
X102209298Y-144403789D02*
X118971798Y-144403789D01*
X60728010Y-124353790D02*
G75*
G03*
X61728046Y-125353790I999990J-10D01*
G01*
X155978048Y-93303788D02*
X155978048Y-105303789D01*
X233271798Y-182503798D02*
G75*
G03*
X234271798Y-181503789I2J999998D01*
G01*
X314140548Y-163453788D02*
X326140548Y-163453788D01*
X104590548Y-125353789D02*
X116590548Y-125353789D01*
X79778047Y-150453789D02*
X79778047Y-162453790D01*
X233178048Y-92303848D02*
G75*
G03*
X232178048Y-93303788I-48J-999952D01*
G01*
X336953011Y-124353789D02*
G75*
G03*
X337953048Y-125353789I999989J-11D01*
G01*
X180771811Y-167503789D02*
G75*
G03*
X179771798Y-166503789I-1000011J-11D01*
G01*
X93778046Y-169503789D02*
X93778046Y-181503790D01*
X238481798Y-175503789D02*
X238481798Y-175503789D01*
X323665548Y-130403848D02*
G75*
G03*
X322665548Y-131403789I-48J-999952D01*
G01*
X285565548Y-130403789D02*
X297565548Y-130403789D01*
X236653048Y-112353789D02*
X236653048Y-124353789D01*
X298565548Y-131403789D02*
X298565548Y-143403789D01*
X166478011Y-167503789D02*
G75*
G03*
X165478048Y-166503789I-1000011J-11D01*
G01*
X156978047Y-106303788D02*
X168978048Y-106303788D01*
X190315548Y-130403848D02*
G75*
G03*
X189315548Y-131403789I-48J-999952D01*
G01*
X126021798Y-168503798D02*
G75*
G03*
X125021798Y-169503789I2J-1000002D01*
G01*
X189315511Y-143403789D02*
G75*
G03*
X190315548Y-144403789I999989J-11D01*
G01*
X279515548Y-131403789D02*
X279515548Y-143403789D01*
X341428048Y-169503789D02*
X341428048Y-181503789D01*
X154690548Y-163453848D02*
G75*
G03*
X155690548Y-162453789I-48J1000048D01*
G01*
X385578048Y-111353789D02*
X397578048Y-111353789D01*
X80778047Y-111353789D02*
X92778047Y-111353789D01*
X42678045Y-168503845D02*
G75*
G03*
X41678045Y-169503789I-45J-999955D01*
G01*
X246465511Y-143403789D02*
G75*
G03*
X247465548Y-144403789I999989J-11D01*
G01*
X198553011Y-112353789D02*
G75*
G03*
X197553048Y-111353789I-1000011J-11D01*
G01*
X214128048Y-106303788D02*
X226128047Y-106303788D01*
X128403048Y-125353789D02*
X140403048Y-125353789D01*
X235653048Y-125353848D02*
G75*
G03*
X236653048Y-124353789I-48J1000048D01*
G01*
X133165548Y-144403789D02*
X145165548Y-144403789D01*
X60728011Y-105303789D02*
G75*
G03*
X61728046Y-106303789I999989J-11D01*
G01*
X174740548Y-150453788D02*
X174740548Y-162453789D01*
X342715548Y-130403789D02*
X362146798Y-130403789D01*
X55678011Y-131403789D02*
G75*
G03*
X54678045Y-130403789I-1000011J-11D01*
G01*
X112828011Y-93303788D02*
G75*
G03*
X111828048Y-92303789I-1000011J-12D01*
G01*
X398578011Y-169503789D02*
G75*
G03*
X397578048Y-168503789I-1000011J-11D01*
G01*
X136928011Y-105303789D02*
G75*
G03*
X137928048Y-106303789I999989J-11D01*
G01*
X141690511Y-162453789D02*
G75*
G03*
X142690548Y-163453789I999989J-11D01*
G01*
X160740548Y-150453788D02*
X160740548Y-162453789D01*
X207065528Y-174264357D02*
G75*
G03*
X203176968Y-174756402I-1366828J-4809543D01*
G01*
X196938915Y-176483408D02*
G75*
G03*
X193912854Y-176483408I-1513030J-2590507D01*
G01*
X271278048Y-92303788D02*
X283278048Y-92303788D01*
X309378048Y-92303788D02*
X321378048Y-92303788D01*
X355270997Y-93303791D02*
G75*
G03*
X356137022Y-92803788I3J999991D01*
G01*
X199840548Y-149453848D02*
G75*
G03*
X198840548Y-150453788I-48J-999952D01*
G01*
X137928048Y-92303788D02*
X149928048Y-92303788D01*
X223653048Y-111353848D02*
G75*
G03*
X222653048Y-112353789I-48J-999952D01*
G01*
X398578048Y-93303788D02*
X398578048Y-105303789D01*
X298853048Y-112353789D02*
X298853048Y-124353789D01*
X99828047Y-92303788D02*
X111828048Y-92303788D01*
X101209298Y-150453788D02*
X101209298Y-162453789D01*
X241703011Y-124353789D02*
G75*
G03*
X242703048Y-125353789I999989J-11D01*
G01*
X322665548Y-131403789D02*
X322665548Y-143403789D01*
X322378012Y-93303788D02*
G75*
G03*
X321378048Y-92303788I-1000012J-12D01*
G01*
X93778011Y-150453789D02*
G75*
G03*
X92778047Y-149453789I-1000011J-11D01*
G01*
X22628010Y-162453790D02*
G75*
G03*
X23628044Y-163453790I999990J-10D01*
G01*
X247465548Y-144403789D02*
X259465548Y-144403789D01*
X141690548Y-150453788D02*
X141690548Y-162453789D01*
X61728046Y-92303846D02*
G75*
G03*
X60728046Y-93303788I-46J-999954D01*
G01*
X36628044Y-93303788D02*
X36628044Y-105303789D01*
X79778010Y-143403790D02*
G75*
G03*
X80778047Y-144403790I999990J-10D01*
G01*
X385578048Y-149453789D02*
X397578048Y-149453789D01*
X317615548Y-131403789D02*
X317615548Y-143403789D01*
X374666351Y-111919649D02*
G75*
G03*
X373765547Y-111353790I-900851J-434151D01*
G01*
X117878011Y-105303789D02*
G75*
G03*
X118878048Y-106303789I999989J-11D01*
G01*
X165478048Y-181503789D02*
X163566348Y-181503789D01*
X74728012Y-93303788D02*
G75*
G03*
X73728046Y-92303788I-1000012J-12D01*
G01*
X127172298Y-165453788D02*
X132172298Y-165453788D01*
X42678045Y-144403789D02*
X54678045Y-144403789D01*
X165478048Y-166503789D02*
X160478048Y-166503789D01*
X252228048Y-92303788D02*
X264228048Y-92303788D01*
X351183798Y-146403798D02*
G75*
G03*
X352183798Y-145403789I2J999998D01*
G01*
X290328048Y-168503789D02*
X340428048Y-168503789D01*
X217603011Y-112353789D02*
G75*
G03*
X216603048Y-111353789I-1000011J-11D01*
G01*
X369059811Y-145403789D02*
G75*
G03*
X370059798Y-146403789I999989J-11D01*
G01*
X323665548Y-130403789D02*
X335665548Y-130403789D01*
X385578048Y-106303788D02*
X397578048Y-106303788D01*
X55678045Y-93303788D02*
X55678045Y-105303789D01*
X152215548Y-130403789D02*
X164215548Y-130403789D01*
X289328048Y-93303788D02*
X289328048Y-105303789D01*
X173771798Y-180503789D02*
X173771798Y-167503789D01*
X185553048Y-111353848D02*
G75*
G03*
X184553048Y-112353789I-48J-999952D01*
G01*
X322665511Y-143403789D02*
G75*
G03*
X323665548Y-144403789I999989J-11D01*
G01*
X175028011Y-105303789D02*
G75*
G03*
X176028048Y-106303789I999989J-11D01*
G01*
X222653048Y-112353789D02*
X222653048Y-124353789D01*
X239481798Y-174503798D02*
G75*
G03*
X238481798Y-175503789I2J-1000002D01*
G01*
X237940548Y-149453789D02*
X249940548Y-149453789D01*
X192790547Y-163453847D02*
G75*
G03*
X193790547Y-162453789I-47J1000047D01*
G01*
X227415511Y-143403789D02*
G75*
G03*
X228415548Y-144403789I999989J-11D01*
G01*
X185017683Y-175537706D02*
X185017683Y-175537706D01*
X197031881Y-176537706D02*
G75*
G03*
X204092689Y-176537706I3530404J6044521D01*
G01*
X193819889Y-176537706D02*
X193912855Y-176483408D01*
X135640548Y-163453848D02*
G75*
G03*
X136640548Y-162453789I-48J1000048D01*
G01*
X371441011Y-107303789D02*
G75*
G03*
X370441048Y-106303789I-1000011J-11D01*
G01*
X299853048Y-111353848D02*
G75*
G03*
X298853048Y-112353789I-48J-999952D01*
G01*
X23628044Y-92303844D02*
G75*
G03*
X22628044Y-93303788I-44J-999956D01*
G01*
X323665548Y-144403789D02*
X335665548Y-144403789D01*
X298565511Y-131403789D02*
G75*
G03*
X297565548Y-130403789I-1000011J-11D01*
G01*
X166503048Y-125353789D02*
X178503048Y-125353789D01*
X36628011Y-112353789D02*
G75*
G03*
X35628044Y-111353789I-1000011J-11D01*
G01*
X250940548Y-150453788D02*
X250940548Y-162453789D01*
X385578048Y-111353848D02*
G75*
G03*
X384578048Y-112353789I-48J-999952D01*
G01*
X128403048Y-111353789D02*
X140403048Y-111353789D01*
X160740511Y-162453789D02*
G75*
G03*
X161740548Y-163453789I999989J-11D01*
G01*
X302328048Y-106303847D02*
G75*
G03*
X303328047Y-105303789I-48J1000047D01*
G01*
X397578048Y-144403848D02*
G75*
G03*
X398578048Y-143403789I-48J1000048D01*
G01*
X203603011Y-124353789D02*
G75*
G03*
X204603048Y-125353789I999989J-11D01*
G01*
X23628044Y-111353844D02*
G75*
G03*
X22628044Y-112353789I-44J-999956D01*
G01*
X290328048Y-92303788D02*
X302328048Y-92303788D01*
X384578011Y-162453789D02*
G75*
G03*
X385578048Y-163453789I999989J-11D01*
G01*
X317615511Y-131403789D02*
G75*
G03*
X316615548Y-130403789I-1000011J-11D01*
G01*
X186017683Y-174537706D02*
X186253935Y-174537706D01*
X160453011Y-112353789D02*
G75*
G03*
X159453048Y-111353789I-1000011J-11D01*
G01*
X61728046Y-111353846D02*
G75*
G03*
X60728046Y-112353789I-46J-999954D01*
G01*
X398578012Y-150453788D02*
G75*
G03*
X397578048Y-149453788I-1000012J-12D01*
G01*
X313140511Y-162453789D02*
G75*
G03*
X314140548Y-163453789I999989J-11D01*
G01*
X304615548Y-144403789D02*
X316615548Y-144403789D01*
X164215548Y-144403848D02*
G75*
G03*
X165215548Y-143403789I-48J1000048D01*
G01*
X36628012Y-93303788D02*
G75*
G03*
X35628044Y-92303788I-1000012J-12D01*
G01*
X146165511Y-169503789D02*
G75*
G03*
X145165548Y-168503789I-1000011J-11D01*
G01*
X363146798Y-129403789D02*
X363146798Y-126353789D01*
X376146811Y-113440789D02*
G75*
G03*
X375357011Y-112463133I-1000011J-11D01*
G01*
X361765547Y-111353847D02*
G75*
G03*
X360765547Y-112353789I-47J-999953D01*
G01*
X398578048Y-112353789D02*
X398578048Y-124353789D01*
X340334298Y-149453789D02*
X352334298Y-149453789D01*
X42678045Y-92303845D02*
G75*
G03*
X41678045Y-93303788I-45J-999955D01*
G01*
X176028048Y-92303788D02*
X188028048Y-92303788D01*
X22628010Y-143403790D02*
G75*
G03*
X23628044Y-144403790I999990J-10D01*
G01*
X295090548Y-149453848D02*
G75*
G03*
X294090548Y-150453788I-48J-999952D01*
G01*
D10*
X19628044Y-181843789D02*
X19628044Y-92610847D01*
D11*
X93778011Y-131403789D02*
G75*
G03*
X92778047Y-130403789I-1000011J-11D01*
G01*
X146165548Y-169503789D02*
X146165548Y-181503789D01*
X378528048Y-163453848D02*
G75*
G03*
X379528048Y-162453789I-48J1000048D01*
G01*
X36628044Y-150453789D02*
X36628044Y-162453790D01*
X283278048Y-106303847D02*
G75*
G03*
X284278047Y-105303789I-48J1000047D01*
G01*
X103296297Y-165453788D02*
X108296298Y-165453788D01*
X313140548Y-150453788D02*
X313140548Y-162453789D01*
X340428048Y-182503848D02*
G75*
G03*
X341428048Y-181503789I-48J1000048D01*
G01*
X163566348Y-181503836D02*
G75*
G03*
X162700323Y-182003789I-48J-999964D01*
G01*
X214128048Y-168503789D02*
X233271798Y-168503789D01*
X265228048Y-93303788D02*
X265228048Y-105303789D01*
X55678045Y-150453789D02*
X55678045Y-162453790D01*
X23628044Y-111353789D02*
X35628044Y-111353789D01*
X73728046Y-144403845D02*
G75*
G03*
X74728045Y-143403791I-46J1000045D01*
G01*
X369059798Y-145403789D02*
X369059798Y-145403789D01*
X137928048Y-106303788D02*
X149928048Y-106303788D01*
X54678045Y-106303844D02*
G75*
G03*
X55678044Y-105303789I-45J1000044D01*
G01*
X355565048Y-106303847D02*
G75*
G03*
X354565047Y-107303789I-48J-999953D01*
G01*
X314140548Y-149453848D02*
G75*
G03*
X313140548Y-150453788I-48J-999952D01*
G01*
X284278012Y-93303788D02*
G75*
G03*
X283278048Y-92303788I-1000012J-12D01*
G01*
X36628011Y-131403789D02*
G75*
G03*
X35628044Y-130403789I-1000011J-11D01*
G01*
X276040548Y-149453789D02*
X288040548Y-149453789D01*
X279803048Y-112353789D02*
X279803048Y-124353789D01*
X117590548Y-169503789D02*
X117590548Y-181503789D01*
X195078048Y-92303848D02*
G75*
G03*
X194078048Y-93303788I-48J-999952D01*
G01*
X160478048Y-166503848D02*
G75*
G03*
X159478048Y-167503789I-48J-999952D01*
G01*
X348565048Y-93303848D02*
G75*
G03*
X347565048Y-94303789I-48J-999952D01*
G01*
X345183811Y-145403789D02*
G75*
G03*
X346183798Y-146403789I999989J-11D01*
G01*
X74728046Y-150453789D02*
X74728046Y-162453790D01*
X252228048Y-92303848D02*
G75*
G03*
X251228048Y-93303788I-48J-999952D01*
G01*
X341428011Y-169503789D02*
G75*
G03*
X340428048Y-168503789I-1000011J-11D01*
G01*
X146165511Y-131403789D02*
G75*
G03*
X145165548Y-130403789I-1000011J-11D01*
G01*
X384578011Y-181503789D02*
G75*
G03*
X385578048Y-182503789I999989J-11D01*
G01*
X365528048Y-150453788D02*
X365528048Y-162453789D01*
X170265548Y-131403789D02*
X170265548Y-143403789D01*
X233178048Y-106303788D02*
X245178048Y-106303788D01*
X326140548Y-163453848D02*
G75*
G03*
X327140548Y-162453789I-48J1000048D01*
G01*
X173740548Y-163453848D02*
G75*
G03*
X174740548Y-162453789I-48J1000048D01*
G01*
X60728010Y-181503790D02*
G75*
G03*
X61728046Y-182503790I999990J-10D01*
G01*
X101209311Y-181503789D02*
G75*
G03*
X102209298Y-182503789I999989J-11D01*
G01*
X357003048Y-92303788D02*
X369003048Y-92303788D01*
X55678045Y-131403789D02*
X55678045Y-143403790D01*
X255703048Y-112353789D02*
X255703048Y-124353789D01*
X251228011Y-105303789D02*
G75*
G03*
X252228048Y-106303789I999989J-11D01*
G01*
X202315548Y-144403848D02*
G75*
G03*
X203315548Y-143403789I-48J1000048D01*
G01*
X241511619Y-174928464D02*
G75*
G03*
X239718050Y-174503788I-1793619J-3575336D01*
G01*
X366528048Y-168503789D02*
X378528048Y-168503789D01*
X241703048Y-112353789D02*
X241703048Y-124353789D01*
X35628044Y-106303843D02*
G75*
G03*
X36628043Y-105303789I-44J1000043D01*
G01*
X398578048Y-150453788D02*
X398578048Y-162453789D01*
X270278048Y-93303788D02*
X270278048Y-105303789D01*
X273753048Y-125353848D02*
G75*
G03*
X274753048Y-124353789I-48J1000048D01*
G01*
X99828047Y-92303847D02*
G75*
G03*
X98828047Y-93303788I-47J-999953D01*
G01*
X118971798Y-144403798D02*
G75*
G03*
X119971798Y-143403789I2J999998D01*
G01*
X155690548Y-150453788D02*
X155690548Y-162453789D01*
X254703048Y-125353848D02*
G75*
G03*
X255703048Y-124353789I-48J1000048D01*
G01*
X218890548Y-163453788D02*
X230890548Y-163453788D01*
X308090548Y-150453788D02*
X308090548Y-162453789D01*
X197947602Y-174756402D02*
X198040568Y-174810700D01*
X265515548Y-131403789D02*
X265515548Y-143403789D01*
X378441011Y-94303789D02*
G75*
G03*
X377441048Y-93303789I-1000011J-11D01*
G01*
X316615548Y-144403848D02*
G75*
G03*
X317615548Y-143403789I-48J1000048D01*
G01*
X119971798Y-131403789D02*
X119971798Y-143403789D01*
X103590547Y-112353789D02*
X103590547Y-124353789D01*
X155690512Y-150453788D02*
G75*
G03*
X154690548Y-149453788I-1000012J-12D01*
G01*
X93778046Y-93303788D02*
X93778046Y-105303789D01*
X360765547Y-112353789D02*
X360765547Y-124353789D01*
X126172311Y-164453789D02*
G75*
G03*
X127172298Y-165453789I999989J-11D01*
G01*
D10*
X401578048Y-92610847D02*
X401578048Y-182196730D01*
D11*
X23628044Y-163453789D02*
X35628044Y-163453789D01*
X375146798Y-146403798D02*
G75*
G03*
X376146798Y-145403789I2J999998D01*
G01*
X341715548Y-131403789D02*
X341715548Y-143403789D01*
X42678045Y-92303788D02*
X54678045Y-92303788D01*
X294090511Y-162453789D02*
G75*
G03*
X295090548Y-163453789I999989J-11D01*
G01*
X270278011Y-105303789D02*
G75*
G03*
X271278048Y-106303789I999989J-11D01*
G01*
X260675830Y-176449490D02*
X260768796Y-176503789D01*
X327428048Y-93303788D02*
X327428048Y-105303789D01*
X188047506Y-174962378D02*
G75*
G03*
X186253935Y-174537706I-1793606J-3575322D01*
G01*
X260753048Y-112353789D02*
X260753048Y-124353789D01*
X252228048Y-106303788D02*
X264228048Y-106303788D01*
X146453048Y-112353789D02*
X146453048Y-124353789D01*
X184553048Y-112353789D02*
X184553048Y-124353789D01*
X171265548Y-144403789D02*
X183265548Y-144403789D01*
X360765511Y-124353789D02*
G75*
G03*
X361765547Y-125353789I999989J-11D01*
G01*
X73728046Y-163453845D02*
G75*
G03*
X74728045Y-162453791I-46J1000045D01*
G01*
X214128048Y-182503789D02*
X233271798Y-182503789D01*
X331903011Y-112353789D02*
G75*
G03*
X330903048Y-111353789I-1000011J-11D01*
G01*
X223653048Y-125353789D02*
X235653048Y-125353789D01*
X336953048Y-112353789D02*
X336953048Y-124353789D01*
X279803011Y-124353789D02*
G75*
G03*
X280803048Y-125353789I999989J-11D01*
G01*
X117590511Y-169503789D02*
G75*
G03*
X116590548Y-168503789I-1000011J-11D01*
G01*
X61728046Y-125353790D02*
X73728046Y-125353790D01*
X241415511Y-131403789D02*
G75*
G03*
X240415548Y-130403789I-1000011J-11D01*
G01*
X188028048Y-106303847D02*
G75*
G03*
X189028047Y-105303789I-48J1000047D01*
G01*
X92778047Y-144403846D02*
G75*
G03*
X93778046Y-143403790I-47J1000046D01*
G01*
X93778046Y-150453789D02*
X93778046Y-162453790D01*
X347478048Y-168503848D02*
G75*
G03*
X346478048Y-169503789I-48J-999952D01*
G01*
X369869042Y-92803806D02*
G75*
G03*
X369003048Y-92303788I-866042J-499994D01*
G01*
X274753048Y-112353789D02*
X274753048Y-124353789D01*
X347565011Y-107303789D02*
G75*
G03*
X348565048Y-108303789I999989J-11D01*
G01*
X212840548Y-150453788D02*
X212840548Y-162453789D01*
X92778047Y-182503846D02*
G75*
G03*
X93778046Y-181503790I-47J1000046D01*
G01*
X346478048Y-169503789D02*
X346478048Y-181503789D01*
X213128048Y-93303788D02*
X213128048Y-105303789D01*
X327428011Y-105303789D02*
G75*
G03*
X328428048Y-106303789I999989J-11D01*
G01*
X61728046Y-106303789D02*
X73728046Y-106303789D01*
X312853011Y-112353789D02*
G75*
G03*
X311853048Y-111353789I-1000011J-11D01*
G01*
X377146798Y-121878789D02*
X377146798Y-133878789D01*
X22628044Y-169503789D02*
X22628044Y-181503790D01*
X60728010Y-162453790D02*
G75*
G03*
X61728046Y-163453790I999990J-10D01*
G01*
X60728046Y-150453789D02*
X60728046Y-162453790D01*
X217890511Y-162453789D02*
G75*
G03*
X218890548Y-163453789I999989J-11D01*
G01*
X125021811Y-181503789D02*
G75*
G03*
X126021798Y-182503789I999989J-11D01*
G01*
X36628044Y-131403789D02*
X36628044Y-143403790D01*
X168978048Y-106303847D02*
G75*
G03*
X169978047Y-105303789I-48J1000047D01*
G01*
X190315548Y-144403789D02*
X202315548Y-144403789D01*
X93778012Y-93303788D02*
G75*
G03*
X92778047Y-92303788I-1000012J-12D01*
G01*
X366528048Y-168503848D02*
G75*
G03*
X365528048Y-169503789I-48J-999952D01*
G01*
X93778011Y-112353789D02*
G75*
G03*
X92778047Y-111353789I-1000011J-11D01*
G01*
X61728046Y-92303788D02*
X73728046Y-92303788D01*
X397578048Y-106303847D02*
G75*
G03*
X398578047Y-105303789I-48J1000047D01*
G01*
X339334311Y-162453789D02*
G75*
G03*
X340334298Y-163453789I999989J-11D01*
G01*
X336665511Y-131403789D02*
G75*
G03*
X335665548Y-130403789I-1000011J-11D01*
G01*
X54678045Y-163453844D02*
G75*
G03*
X55678044Y-162453790I-45J1000044D01*
G01*
X22628044Y-150453789D02*
X22628044Y-162453790D01*
X74728011Y-150453789D02*
G75*
G03*
X73728046Y-149453789I-1000011J-11D01*
G01*
X80778047Y-144403790D02*
X92778047Y-144403790D01*
X261777483Y-174776781D02*
G75*
G03*
X266541172Y-174928445I2521717J4317481D01*
G01*
X347478048Y-182503789D02*
X359478048Y-182503789D01*
X318903048Y-125353789D02*
X330903048Y-125353789D01*
X180790548Y-163453788D02*
X192790547Y-163453788D01*
X23628044Y-182503789D02*
X35628044Y-182503789D01*
X130878048Y-106303847D02*
G75*
G03*
X131878047Y-105303789I-48J1000047D01*
G01*
X22628010Y-181503790D02*
G75*
G03*
X23628044Y-182503790I999990J-10D01*
G01*
X375059798Y-146403789D02*
X375146798Y-146403789D01*
X298853011Y-124353789D02*
G75*
G03*
X299853048Y-125353789I999989J-11D01*
G01*
X361765547Y-111353789D02*
X373765548Y-111353789D01*
X352334298Y-163453798D02*
G75*
G03*
X353334298Y-162453789I2J999998D01*
G01*
X79778011Y-105303789D02*
G75*
G03*
X80778047Y-106303789I999989J-11D01*
G01*
X195078048Y-92303788D02*
X207078048Y-92303788D01*
X41678010Y-162453790D02*
G75*
G03*
X42678045Y-163453790I999990J-10D01*
G01*
X209365548Y-130403848D02*
G75*
G03*
X208365548Y-131403789I-48J-999952D01*
G01*
X145165548Y-182503848D02*
G75*
G03*
X146165548Y-181503789I-48J1000048D01*
G01*
X74728046Y-169503789D02*
X74728046Y-181503790D01*
X379528048Y-150453788D02*
X379528048Y-162453789D01*
X378441048Y-94303789D02*
X378441048Y-107303789D01*
X23628044Y-149453789D02*
X35628044Y-149453789D01*
X251504683Y-174776782D02*
G75*
G03*
X256548117Y-174776782I2521717J4317517D01*
G01*
X23628044Y-168503789D02*
X35628044Y-168503789D01*
X142690548Y-149453848D02*
G75*
G03*
X141690548Y-150453788I-48J-999952D01*
G01*
X127403011Y-124353789D02*
G75*
G03*
X128403048Y-125353789I999989J-11D01*
G01*
X189315548Y-131403789D02*
X189315548Y-143403789D01*
X93778046Y-112353789D02*
X93778046Y-124353790D01*
X265228012Y-93303788D02*
G75*
G03*
X264228048Y-92303788I-1000012J-12D01*
G01*
X102209298Y-149453798D02*
G75*
G03*
X101209298Y-150453788I2J-1000002D01*
G01*
X345183798Y-145403789D02*
X345183798Y-145403789D01*
X74728046Y-93303788D02*
X74728046Y-105303789D01*
X42678045Y-168503789D02*
X54678045Y-168503789D01*
X61728046Y-163453790D02*
X73728046Y-163453790D01*
X397578048Y-182503848D02*
G75*
G03*
X398578048Y-181503789I-48J1000048D01*
G01*
X173771811Y-180503789D02*
G75*
G03*
X174771798Y-181503789I999989J-11D01*
G01*
X222365548Y-131403789D02*
X222365548Y-143403789D01*
X290328048Y-182503789D02*
X340428048Y-182503789D01*
X242703048Y-111353848D02*
G75*
G03*
X241703048Y-112353789I-48J-999952D01*
G01*
X178503048Y-125353848D02*
G75*
G03*
X179503048Y-124353789I-48J1000048D01*
G01*
X346478011Y-181503789D02*
G75*
G03*
X347478048Y-182503789I999989J-11D01*
G01*
X131878048Y-93303788D02*
X131878048Y-105303789D01*
X79778010Y-124353790D02*
G75*
G03*
X80778047Y-125353790I999990J-10D01*
G01*
X80778047Y-168503789D02*
X92778047Y-168503789D01*
X312853048Y-112353789D02*
X312853048Y-124353789D01*
X385578048Y-92303848D02*
G75*
G03*
X384578048Y-93303788I-48J-999952D01*
G01*
X251411717Y-174722484D02*
G75*
G03*
X246368283Y-174722484I-2521717J-4317517D01*
G01*
X55678045Y-112353789D02*
X55678045Y-124353790D01*
X35628044Y-163453843D02*
G75*
G03*
X36628043Y-162453790I-44J1000043D01*
G01*
X231890548Y-150453788D02*
X231890548Y-162453789D01*
X92778047Y-106303846D02*
G75*
G03*
X93778046Y-105303789I-47J1000046D01*
G01*
X80778047Y-182503790D02*
X92778047Y-182503790D01*
X279515511Y-131403789D02*
G75*
G03*
X278515548Y-130403789I-1000011J-11D01*
G01*
X208878048Y-175503788D02*
X208878048Y-175503788D01*
X185017693Y-175537706D02*
G75*
G03*
X185940623Y-176534732I1000007J6D01*
G01*
X79778047Y-112353789D02*
X79778047Y-124353790D01*
X245178048Y-106303847D02*
G75*
G03*
X246178047Y-105303789I-48J1000047D01*
G01*
X209365548Y-130403789D02*
X221365548Y-130403789D01*
X271278048Y-92303848D02*
G75*
G03*
X270278048Y-93303788I-48J-999952D01*
G01*
X228415548Y-144403789D02*
X240415548Y-144403789D01*
X314140548Y-149453789D02*
X326140548Y-149453789D01*
X35628044Y-182503843D02*
G75*
G03*
X36628043Y-181503790I-44J1000043D01*
G01*
X60728046Y-169503789D02*
X60728046Y-181503790D01*
X328428048Y-106303788D02*
X340428048Y-106303788D01*
X102296311Y-164453789D02*
G75*
G03*
X103296297Y-165453789I999989J-11D01*
G01*
X110296298Y-163453788D02*
X125172298Y-163453788D01*
X289040548Y-150453788D02*
X289040548Y-162453789D01*
X260768797Y-176503787D02*
G75*
G03*
X267061074Y-176891377I3530403J6044487D01*
G01*
X268334750Y-174503789D02*
X268568838Y-174503789D01*
X303615511Y-143403789D02*
G75*
G03*
X304615548Y-144403789I999989J-11D01*
G01*
X134172298Y-163453798D02*
G75*
G03*
X133172298Y-164453789I2J-1000002D01*
G01*
X73728046Y-125353845D02*
G75*
G03*
X74728045Y-124353791I-46J1000045D01*
G01*
X61728046Y-149453846D02*
G75*
G03*
X60728046Y-150453789I-46J-999954D01*
G01*
X176028048Y-92303848D02*
G75*
G03*
X175028048Y-93303788I-48J-999952D01*
G01*
X179771798Y-181503789D02*
X174771798Y-181503789D01*
X322378048Y-93303788D02*
X322378048Y-105303789D01*
X303328048Y-93303788D02*
X303328048Y-105303789D01*
X398578048Y-169503789D02*
X398578048Y-181503789D01*
X363146811Y-126353789D02*
G75*
G03*
X362146798Y-125353789I-1000011J-11D01*
G01*
X284278048Y-93303788D02*
X284278048Y-105303789D01*
X98828047Y-93303788D02*
X98828047Y-105303789D01*
X273771811Y-180503789D02*
G75*
G03*
X274771798Y-181503789I999989J-11D01*
G01*
X35628044Y-144403843D02*
G75*
G03*
X36628043Y-143403790I-44J1000043D01*
G01*
X133172298Y-164453789D02*
X133172298Y-164453789D01*
X266515548Y-130403789D02*
X278515548Y-130403789D01*
X214128048Y-92303788D02*
X226128047Y-92303788D01*
X342715548Y-130403848D02*
G75*
G03*
X341715548Y-131403789I-48J-999952D01*
G01*
X74728011Y-112353789D02*
G75*
G03*
X73728046Y-111353789I-1000011J-11D01*
G01*
X294090548Y-150453788D02*
X294090548Y-162453789D01*
X259465548Y-144403848D02*
G75*
G03*
X260465548Y-143403789I-48J1000048D01*
G01*
X370059798Y-146403789D02*
X375059798Y-146403789D01*
X42678045Y-149453845D02*
G75*
G03*
X41678045Y-150453789I-45J-999955D01*
G01*
X60728046Y-131403789D02*
X60728046Y-143403790D01*
X311853048Y-125353848D02*
G75*
G03*
X312853048Y-124353789I-48J1000048D01*
G01*
X384578011Y-124353789D02*
G75*
G03*
X385578048Y-125353789I999989J-11D01*
G01*
X118878048Y-92303848D02*
G75*
G03*
X117878048Y-93303788I-48J-999952D01*
G01*
X331903048Y-112353789D02*
X331903048Y-124353789D01*
X385578048Y-149453848D02*
G75*
G03*
X384578048Y-150453788I-48J-999952D01*
G01*
X60728010Y-143403790D02*
G75*
G03*
X61728046Y-144403790I999990J-10D01*
G01*
X365528011Y-162453789D02*
G75*
G03*
X366528048Y-163453789I999989J-11D01*
G01*
X150928048Y-93303788D02*
X150928048Y-105303789D01*
X303328012Y-93303788D02*
G75*
G03*
X302328048Y-92303788I-1000012J-12D01*
G01*
X22628044Y-93303788D02*
X22628044Y-105303789D01*
X213128011Y-105303789D02*
G75*
G03*
X214128048Y-106303789I999989J-11D01*
G01*
X398578048Y-131403789D02*
X398578048Y-143403789D01*
X23628044Y-144403789D02*
X35628044Y-144403789D01*
X256990548Y-149453789D02*
X268990548Y-149453789D01*
X217890548Y-150453788D02*
X217890548Y-162453789D01*
X184265548Y-131403789D02*
X184265548Y-143403789D01*
X198840548Y-150453788D02*
X198840548Y-162453789D01*
X190315548Y-130403789D02*
X202315548Y-130403789D01*
X250495996Y-176503788D02*
G75*
G03*
X257556804Y-176503788I3530404J6044521D01*
G01*
X199840548Y-163453788D02*
X211840548Y-163453788D01*
X61728046Y-130403846D02*
G75*
G03*
X60728046Y-131403789I-46J-999954D01*
G01*
X260753011Y-124353789D02*
G75*
G03*
X261753048Y-125353789I999989J-11D01*
G01*
X132165511Y-143403789D02*
G75*
G03*
X133165548Y-144403789I999989J-11D01*
G01*
X377441048Y-93303789D02*
X370735098Y-93303788D01*
X226128047Y-106303846D02*
G75*
G03*
X227128046Y-105303789I-47J1000046D01*
G01*
X268646339Y-176500798D02*
G75*
G03*
X267061073Y-176891378I387461J-4985002D01*
G01*
X180790548Y-149453848D02*
G75*
G03*
X179790548Y-150453788I-48J-999952D01*
G01*
X293803011Y-112353789D02*
G75*
G03*
X292803048Y-111353789I-1000011J-11D01*
G01*
X80778047Y-149453847D02*
G75*
G03*
X79778047Y-150453789I-47J-999953D01*
G01*
X169978012Y-93303788D02*
G75*
G03*
X168978048Y-92303788I-1000012J-12D01*
G01*
X204603048Y-125353789D02*
X216603048Y-125353789D01*
X299853048Y-111353789D02*
X311853048Y-111353789D01*
X341428012Y-93303788D02*
G75*
G03*
X340428048Y-92303788I-1000012J-12D01*
G01*
X80778047Y-168503847D02*
G75*
G03*
X79778047Y-169503789I-47J-999953D01*
G01*
X261753048Y-125353789D02*
X273753048Y-125353789D01*
X289040512Y-150453788D02*
G75*
G03*
X288040548Y-149453788I-1000012J-12D01*
G01*
X211840548Y-163453848D02*
G75*
G03*
X212840548Y-162453789I-48J1000048D01*
G01*
D10*
X19628007Y-181833787D02*
G75*
G03*
X22937371Y-185503788I3440893J-224313D01*
G01*
D11*
X22628010Y-124353790D02*
G75*
G03*
X23628044Y-125353790I999990J-10D01*
G01*
X354565048Y-107303789D02*
X354565048Y-107303789D01*
X102296268Y-164233235D02*
G75*
G03*
X101752798Y-163343512I-999968J35D01*
G01*
X55678011Y-112353789D02*
G75*
G03*
X54678045Y-111353789I-1000011J-11D01*
G01*
X280771798Y-180503789D02*
X280771798Y-167503789D01*
X149834298Y-168503798D02*
G75*
G03*
X148834298Y-169503789I2J-1000002D01*
G01*
X328428048Y-92303848D02*
G75*
G03*
X327428048Y-93303788I-48J-999952D01*
G01*
X246465548Y-131403789D02*
X246465548Y-143403789D01*
X227128012Y-93303788D02*
G75*
G03*
X226128047Y-92303788I-1000012J-12D01*
G01*
X170265511Y-143403789D02*
G75*
G03*
X171265548Y-144403789I999989J-11D01*
G01*
X136640548Y-150453788D02*
X136640548Y-162453789D01*
X61728046Y-144403790D02*
X73728046Y-144403790D01*
X366528048Y-182503789D02*
X378528048Y-182503789D01*
X93778011Y-169503789D02*
G75*
G03*
X92778047Y-168503789I-1000011J-11D01*
G01*
X61728046Y-168503789D02*
X73728046Y-168503789D01*
X134172298Y-163453788D02*
X135640548Y-163453788D01*
X161740548Y-149453789D02*
X173740548Y-149453789D01*
X376146798Y-113440789D02*
X376146798Y-120146738D01*
X116590548Y-125353848D02*
G75*
G03*
X117590548Y-124353789I-48J1000048D01*
G01*
X379528048Y-169503789D02*
X379528048Y-181503789D01*
X378528048Y-182503848D02*
G75*
G03*
X379528048Y-181503789I-48J1000048D01*
G01*
X192811202Y-174810700D02*
X192904168Y-174756402D01*
X79778047Y-131403789D02*
X79778047Y-143403790D01*
X98828011Y-105303789D02*
G75*
G03*
X99828047Y-106303789I999989J-11D01*
G01*
X74728011Y-169503789D02*
G75*
G03*
X73728046Y-168503789I-1000011J-11D01*
G01*
X349953048Y-125353848D02*
G75*
G03*
X350953048Y-124353789I-48J1000048D01*
G01*
X165215511Y-131403789D02*
G75*
G03*
X164215548Y-130403789I-1000011J-11D01*
G01*
X133165548Y-130403789D02*
X145165548Y-130403789D01*
X23628044Y-149453844D02*
G75*
G03*
X22628044Y-150453789I-44J-999956D01*
G01*
X228415548Y-130403848D02*
G75*
G03*
X227415548Y-131403789I-48J-999952D01*
G01*
X101209298Y-169503789D02*
X101209298Y-181503789D01*
X280803048Y-111353789D02*
X292803048Y-111353789D01*
X336665548Y-131403789D02*
X336665548Y-143403789D01*
X242703048Y-111353789D02*
X254703048Y-111353789D01*
X179790548Y-150453788D02*
X179790548Y-162453789D01*
X261753048Y-111353789D02*
X273753048Y-111353789D01*
X74728046Y-112353789D02*
X74728046Y-124353790D01*
X171265548Y-130403848D02*
G75*
G03*
X170265548Y-131403789I-48J-999952D01*
G01*
X207753893Y-176496117D02*
G75*
G03*
X208878048Y-175503789I124107J992317D01*
G01*
X285565548Y-130403848D02*
G75*
G03*
X284565548Y-131403789I-48J-999952D01*
G01*
X269990548Y-150453788D02*
X269990548Y-162453789D01*
X376646802Y-134744822D02*
G75*
G03*
X377146798Y-133878789I-500002J866022D01*
G01*
X377441048Y-108303848D02*
G75*
G03*
X378441048Y-107303789I-48J1000048D01*
G01*
X165478048Y-181503848D02*
G75*
G03*
X166478048Y-180503789I-48J1000048D01*
G01*
X279771798Y-181503798D02*
G75*
G03*
X280771798Y-180503789I2J999998D01*
G01*
X278515548Y-144403848D02*
G75*
G03*
X279515548Y-143403789I-48J1000048D01*
G01*
X377146808Y-121878789D02*
G75*
G03*
X376646798Y-121012764I-1000008J-11D01*
G01*
X165215548Y-131403789D02*
X165215548Y-143403789D01*
X247465548Y-130403789D02*
X259465548Y-130403789D01*
X247465548Y-130403848D02*
G75*
G03*
X246465548Y-131403789I-48J-999952D01*
G01*
X284565548Y-131403789D02*
X284565548Y-143403789D01*
X125021798Y-169503789D02*
X125021798Y-181503789D01*
X384578011Y-143403789D02*
G75*
G03*
X385578048Y-144403789I999989J-11D01*
G01*
X147453048Y-111353848D02*
G75*
G03*
X146453048Y-112353789I-48J-999952D01*
G01*
X117590548Y-112353789D02*
X117590548Y-124353789D01*
X341428048Y-93303788D02*
X341428048Y-105303789D01*
X185553048Y-111353789D02*
X197553048Y-111353789D01*
X304615548Y-130403789D02*
X316615548Y-130403789D01*
X41678011Y-105303789D02*
G75*
G03*
X42678045Y-106303789I999989J-11D01*
G01*
X362146798Y-130403798D02*
G75*
G03*
X363146798Y-129403789I2J999998D01*
G01*
X22628011Y-105303789D02*
G75*
G03*
X23628044Y-106303789I999989J-11D01*
G01*
X255990548Y-150453788D02*
X255990548Y-162453789D01*
X23628044Y-130403844D02*
G75*
G03*
X22628044Y-131403789I-44J-999956D01*
G01*
X42678045Y-149453789D02*
X54678045Y-149453789D01*
X230890548Y-163453848D02*
G75*
G03*
X231890548Y-162453789I-48J1000048D01*
G01*
X321378048Y-106303847D02*
G75*
G03*
X322378047Y-105303789I-48J1000047D01*
G01*
X385578048Y-130403848D02*
G75*
G03*
X384578048Y-131403789I-48J-999952D01*
G01*
X376646780Y-134744784D02*
G75*
G03*
X376146798Y-135610839I500020J-866016D01*
G01*
X340334298Y-163453788D02*
X352334298Y-163453788D01*
X36628044Y-169503789D02*
X36628044Y-181503790D01*
X247284004Y-176503789D02*
X247376970Y-176449490D01*
X227415548Y-131403789D02*
X227415548Y-143403789D01*
X246178048Y-93303788D02*
X246178048Y-105303789D01*
X385578048Y-130403789D02*
X397578048Y-130403789D01*
X42678045Y-163453789D02*
X54678045Y-163453789D01*
X353183798Y-144403789D02*
X368059798Y-144403789D01*
X353565048Y-108303848D02*
G75*
G03*
X354565048Y-107303789I-48J1000048D01*
G01*
X366528048Y-163453788D02*
X378528048Y-163453788D01*
X232178048Y-93303788D02*
X232178048Y-105303789D01*
X73728046Y-182503845D02*
G75*
G03*
X74728045Y-181503791I-46J1000045D01*
G01*
X208365548Y-131403789D02*
X208365548Y-143403789D01*
X268646342Y-176500827D02*
G75*
G03*
X269568838Y-175503789I-77542J997027D01*
G01*
X176028048Y-106303788D02*
X188028048Y-106303788D01*
X369869079Y-92803784D02*
G75*
G03*
X370735098Y-93303788I866021J499984D01*
G01*
X308378048Y-93303788D02*
X308378048Y-105303789D01*
X339334298Y-150453788D02*
X339334298Y-162453789D01*
X213128011Y-181503789D02*
G75*
G03*
X214128048Y-182503789I999989J-11D01*
G01*
X203315511Y-131403789D02*
G75*
G03*
X202315548Y-130403789I-1000011J-11D01*
G01*
X140403048Y-125353848D02*
G75*
G03*
X141403048Y-124353789I-48J1000048D01*
G01*
X102209298Y-182503789D02*
X116590548Y-182503789D01*
X151215548Y-131403789D02*
X151215548Y-143403789D01*
X352183798Y-145403789D02*
X352183798Y-145403789D01*
X309378048Y-92303848D02*
G75*
G03*
X308378048Y-93303788I-48J-999952D01*
G01*
X261684517Y-174722484D02*
G75*
G03*
X256641083Y-174722484I-2521717J-4317517D01*
G01*
X290328048Y-92303848D02*
G75*
G03*
X289328048Y-93303788I-48J-999952D01*
G01*
X318903048Y-111353848D02*
G75*
G03*
X317903048Y-112353789I-48J-999952D01*
G01*
X193790512Y-150453788D02*
G75*
G03*
X192790547Y-149453788I-1000012J-12D01*
G01*
X274771798Y-166503798D02*
G75*
G03*
X273771798Y-167503789I2J-1000002D01*
G01*
X61728046Y-149453789D02*
X73728046Y-149453789D01*
X223653048Y-111353789D02*
X235653048Y-111353789D01*
X216603048Y-125353848D02*
G75*
G03*
X217603048Y-124353789I-48J1000048D01*
G01*
X384578048Y-93303788D02*
X384578048Y-105303789D01*
X384578048Y-112353789D02*
X384578048Y-124353789D01*
X208365511Y-143403789D02*
G75*
G03*
X209365548Y-144403789I999989J-11D01*
G01*
X353334312Y-150453788D02*
G75*
G03*
X352334298Y-149453788I-1000012J-12D01*
G01*
X357003048Y-92303836D02*
G75*
G03*
X356137023Y-92803788I-48J-999964D01*
G01*
X288040548Y-163453848D02*
G75*
G03*
X289040548Y-162453789I-48J1000048D01*
G01*
X299853048Y-125353789D02*
X311853048Y-125353789D01*
X234271811Y-169503789D02*
G75*
G03*
X233271798Y-168503789I-1000011J-11D01*
G01*
X266515548Y-130403848D02*
G75*
G03*
X265515548Y-131403789I-48J-999952D01*
G01*
X256990548Y-149453848D02*
G75*
G03*
X255990548Y-150453788I-48J-999952D01*
G01*
X398578012Y-93303788D02*
G75*
G03*
X397578048Y-92303788I-1000012J-12D01*
G01*
X379528011Y-169503789D02*
G75*
G03*
X378528048Y-168503789I-1000011J-11D01*
G01*
X161740548Y-163453788D02*
X173740548Y-163453788D01*
X161834298Y-182503792D02*
G75*
G03*
X162700323Y-182003789I2J999992D01*
G01*
X23628044Y-92303788D02*
X35628044Y-92303788D01*
X184553011Y-124353789D02*
G75*
G03*
X185553048Y-125353789I999989J-11D01*
G01*
X239481798Y-174503789D02*
X239718050Y-174503789D01*
X150928012Y-93303788D02*
G75*
G03*
X149928048Y-92303788I-1000012J-12D01*
G01*
X183265548Y-144403848D02*
G75*
G03*
X184265548Y-143403789I-48J1000048D01*
G01*
X206702170Y-176246709D02*
G75*
G03*
X204185654Y-176483408I-1003470J-2827191D01*
G01*
X60728046Y-112353789D02*
X60728046Y-124353790D01*
X180771798Y-180503789D02*
X180771798Y-167503789D01*
X184265511Y-131403789D02*
G75*
G03*
X183265548Y-130403789I-1000011J-11D01*
G01*
X397578048Y-125353848D02*
G75*
G03*
X398578048Y-124353789I-48J1000048D01*
G01*
X327140512Y-150453788D02*
G75*
G03*
X326140548Y-149453788I-1000012J-12D01*
G01*
X119971811Y-131403789D02*
G75*
G03*
X118971798Y-130403789I-1000011J-11D01*
G01*
X280803048Y-125353789D02*
X292803048Y-125353789D01*
X284565511Y-143403789D02*
G75*
G03*
X285565548Y-144403789I999989J-11D01*
G01*
X337953048Y-111353848D02*
G75*
G03*
X336953048Y-112353789I-48J-999952D01*
G01*
X79778010Y-181503790D02*
G75*
G03*
X80778047Y-182503790I999990J-10D01*
G01*
X99828047Y-106303788D02*
X111828048Y-106303788D01*
X348565048Y-108303789D02*
X353565048Y-108303789D01*
X166478048Y-180503789D02*
X166478048Y-167503789D01*
X187527885Y-176925425D02*
G75*
G03*
X185940622Y-176534733I-1972585J-4594375D01*
G01*
X111828048Y-106303847D02*
G75*
G03*
X112828047Y-105303789I-48J1000047D01*
G01*
X246178012Y-93303788D02*
G75*
G03*
X245178048Y-92303788I-1000012J-12D01*
G01*
X308378011Y-105303789D02*
G75*
G03*
X309378048Y-106303789I999989J-11D01*
G01*
X222365511Y-131403789D02*
G75*
G03*
X221365548Y-130403789I-1000011J-11D01*
G01*
X256548117Y-174776782D02*
X256641083Y-174722484D01*
X23628044Y-125353789D02*
X35628044Y-125353789D01*
X365528048Y-169503789D02*
X365528048Y-181503789D01*
X55678011Y-150453789D02*
G75*
G03*
X54678045Y-149453789I-1000011J-11D01*
G01*
X241415548Y-131403789D02*
X241415548Y-143403789D01*
X350953048Y-112353789D02*
X350953048Y-124353789D01*
X385578048Y-163453788D02*
X397578048Y-163453788D01*
X132165548Y-131403789D02*
X132165548Y-143403789D01*
X256990548Y-163453788D02*
X268990548Y-163453788D01*
X340428048Y-106303847D02*
G75*
G03*
X341428047Y-105303789I-48J1000047D01*
G01*
X366528048Y-149453848D02*
G75*
G03*
X365528048Y-150453788I-48J-999952D01*
G01*
X175028048Y-93303788D02*
X175028048Y-105303789D01*
X109296298Y-164453789D02*
X109296298Y-164453789D01*
X289328048Y-169503789D02*
X289328048Y-181503789D01*
X196938915Y-176483408D02*
X197031881Y-176537706D01*
X61728046Y-168503846D02*
G75*
G03*
X60728046Y-169503789I-46J-999954D01*
G01*
X285565548Y-144403789D02*
X297565548Y-144403789D01*
X371441011Y-107303789D02*
G75*
G03*
X372441048Y-108303789I999989J-11D01*
G01*
X275040511Y-162453789D02*
G75*
G03*
X276040548Y-163453789I999989J-11D01*
G01*
X303615548Y-131403789D02*
X303615548Y-143403789D01*
X250940512Y-150453788D02*
G75*
G03*
X249940548Y-149453788I-1000012J-12D01*
G01*
X126021798Y-182503789D02*
X145165548Y-182503789D01*
X214128048Y-92303848D02*
G75*
G03*
X213128048Y-93303788I-48J-999952D01*
G01*
X240415548Y-144403848D02*
G75*
G03*
X241415548Y-143403789I-48J1000048D01*
G01*
X237940548Y-163453788D02*
X249940548Y-163453788D01*
X54678045Y-125353844D02*
G75*
G03*
X55678044Y-124353790I-45J1000044D01*
G01*
X61728046Y-111353789D02*
X73728046Y-111353789D01*
X73728046Y-106303845D02*
G75*
G03*
X74728045Y-105303790I-46J1000045D01*
G01*
X238481811Y-175503789D02*
G75*
G03*
X239404738Y-176500815I999989J-11D01*
G01*
X268334750Y-174503768D02*
G75*
G03*
X266541172Y-174928446I50J-4000032D01*
G01*
X93778046Y-131403789D02*
X93778046Y-143403790D01*
X385578048Y-125353789D02*
X397578048Y-125353789D01*
X42678045Y-125353789D02*
X54678045Y-125353789D01*
X208078048Y-93303788D02*
X208078048Y-105303789D01*
X398578011Y-112353789D02*
G75*
G03*
X397578048Y-111353789I-1000011J-11D01*
G01*
X142690548Y-149453789D02*
X154690548Y-149453789D01*
X149928048Y-106303847D02*
G75*
G03*
X150928047Y-105303789I-48J1000047D01*
G01*
X186017683Y-174537683D02*
G75*
G03*
X185017683Y-175537706I17J-1000017D01*
G01*
X152215548Y-144403789D02*
X164215548Y-144403789D01*
X22628044Y-131403789D02*
X22628044Y-143403790D01*
X136640512Y-150453788D02*
G75*
G03*
X135640548Y-149453788I-1000012J-12D01*
G01*
X179771798Y-166503789D02*
X174771798Y-166503789D01*
X141403011Y-112353789D02*
G75*
G03*
X140403048Y-111353789I-1000011J-11D01*
G01*
X92778047Y-163453846D02*
G75*
G03*
X93778046Y-162453790I-47J1000046D01*
G01*
X397578048Y-163453848D02*
G75*
G03*
X398578048Y-162453789I-48J1000048D01*
G01*
X340334298Y-149453798D02*
G75*
G03*
X339334298Y-150453788I2J-1000002D01*
G01*
X195078048Y-106303788D02*
X207078048Y-106303788D01*
X345183811Y-145403789D02*
G75*
G03*
X344183798Y-144403789I-1000011J-11D01*
G01*
X309378048Y-106303788D02*
X321378048Y-106303788D01*
X330903048Y-125353848D02*
G75*
G03*
X331903048Y-124353789I-48J1000048D01*
G01*
X240992003Y-176891499D02*
G75*
G03*
X247284004Y-176503789I2761597J6432199D01*
G01*
X359478048Y-182503848D02*
G75*
G03*
X360478048Y-181503789I-48J1000048D01*
G01*
X290328048Y-106303788D02*
X302328048Y-106303788D01*
X251228048Y-93303788D02*
X251228048Y-105303789D01*
X126172311Y-164453789D02*
G75*
G03*
X125172298Y-163453789I-1000011J-11D01*
G01*
X41678045Y-112353789D02*
X41678045Y-124353790D01*
X246275317Y-174776782D02*
X246368283Y-174722484D01*
X194078011Y-105303789D02*
G75*
G03*
X195078048Y-106303789I999989J-11D01*
G01*
X159453048Y-125353848D02*
G75*
G03*
X160453048Y-124353789I-48J1000048D01*
G01*
X42678045Y-130403845D02*
G75*
G03*
X41678045Y-131403789I-45J-999955D01*
G01*
X108296298Y-165453798D02*
G75*
G03*
X109296298Y-164453789I2J999998D01*
G01*
X165503048Y-112353789D02*
X165503048Y-124353789D01*
X185553048Y-125353789D02*
X197553048Y-125353789D01*
X348565048Y-93303789D02*
X355270997Y-93303788D01*
X155978011Y-105303789D02*
G75*
G03*
X156978047Y-106303789I999989J-11D01*
G01*
X142690548Y-163453788D02*
X154690548Y-163453788D01*
X156978047Y-92303788D02*
X168978048Y-92303788D01*
X208878022Y-175503789D02*
G75*
G03*
X208099708Y-174528664I-1000022J-11D01*
G01*
X347565048Y-94303789D02*
X347565048Y-107303789D01*
X22628044Y-112353789D02*
X22628044Y-124353790D01*
X171265548Y-130403789D02*
X183265548Y-130403789D01*
X80778047Y-111353847D02*
G75*
G03*
X79778047Y-112353789I-47J-999953D01*
G01*
X79778047Y-169503789D02*
X79778047Y-181503790D01*
X55678012Y-93303788D02*
G75*
G03*
X54678045Y-92303788I-1000012J-12D01*
G01*
X41678045Y-93303788D02*
X41678045Y-105303789D01*
X41678010Y-124353790D02*
G75*
G03*
X42678045Y-125353790I999990J-10D01*
G01*
X304615548Y-130403848D02*
G75*
G03*
X303615548Y-131403789I-48J-999952D01*
G01*
X116590548Y-182503848D02*
G75*
G03*
X117590548Y-181503789I-48J1000048D01*
G01*
X371441048Y-107303789D02*
X371441048Y-107303789D01*
X180790548Y-149453789D02*
X192790547Y-149453789D01*
X110296298Y-163453798D02*
G75*
G03*
X109296298Y-164453789I2J-1000002D01*
G01*
X54678045Y-182503844D02*
G75*
G03*
X55678044Y-181503790I-45J1000044D01*
G01*
X203603048Y-112353789D02*
X203603048Y-124353789D01*
X342715548Y-144403789D02*
X344183798Y-144403789D01*
X208078012Y-93303788D02*
G75*
G03*
X207078048Y-92303788I-1000012J-12D01*
G01*
X385578048Y-168503848D02*
G75*
G03*
X384578048Y-169503789I-48J-999952D01*
G01*
X148834311Y-181503789D02*
G75*
G03*
X149834298Y-182503789I999989J-11D01*
G01*
X42678045Y-106303788D02*
X54678045Y-106303788D01*
X127403048Y-112353789D02*
X127403048Y-124353789D01*
X274753011Y-112353789D02*
G75*
G03*
X273753048Y-111353789I-1000011J-11D01*
G01*
X42678045Y-182503789D02*
X54678045Y-182503789D01*
D10*
X22937371Y-89293792D02*
G75*
G03*
X19630312Y-92600847I-1J-3307058D01*
G01*
D11*
X271278048Y-106303788D02*
X283278048Y-106303788D01*
X273771798Y-180503789D02*
X273771798Y-167503789D01*
X165503011Y-124353789D02*
G75*
G03*
X166503048Y-125353789I999989J-11D01*
G01*
X137928048Y-92303848D02*
G75*
G03*
X136928048Y-93303788I-48J-999952D01*
G01*
X346183798Y-146403789D02*
X351183798Y-146403789D01*
X297565548Y-144403848D02*
G75*
G03*
X298565548Y-143403789I-48J1000048D01*
G01*
X308090512Y-150453788D02*
G75*
G03*
X307090548Y-149453788I-1000012J-12D01*
G01*
X385578048Y-92303788D02*
X397578048Y-92303788D01*
X149834298Y-182503789D02*
X161834298Y-182503789D01*
X257649770Y-176449490D02*
X257556804Y-176503789D01*
X279771798Y-181503789D02*
X274771798Y-181503789D01*
X290328048Y-168503848D02*
G75*
G03*
X289328048Y-169503789I-48J-999952D01*
G01*
X376146766Y-120146738D02*
G75*
G03*
X376646798Y-121012763I1000034J38D01*
G01*
X74728011Y-131403789D02*
G75*
G03*
X73728046Y-130403789I-1000011J-11D01*
G01*
X198040568Y-174810700D02*
G75*
G03*
X203084002Y-174810700I2521717J4317517D01*
G01*
X384578048Y-169503789D02*
X384578048Y-181503789D01*
X101209298Y-131403789D02*
X101209298Y-143403789D01*
X166503048Y-111353789D02*
X178503048Y-111353789D01*
X236653011Y-112353789D02*
G75*
G03*
X235653048Y-111353789I-1000011J-11D01*
G01*
X79778047Y-93303788D02*
X79778047Y-105303789D01*
X207078048Y-106303847D02*
G75*
G03*
X208078047Y-105303789I-48J1000047D01*
G01*
X203315548Y-131403789D02*
X203315548Y-143403789D01*
X249940548Y-163453848D02*
G75*
G03*
X250940548Y-162453789I-48J1000048D01*
G01*
X280803048Y-111353848D02*
G75*
G03*
X279803048Y-112353789I-48J-999952D01*
G01*
X36628011Y-150453789D02*
G75*
G03*
X35628044Y-149453789I-1000011J-11D01*
G01*
X260465548Y-131403789D02*
X260465548Y-143403789D01*
X126172298Y-164453789D02*
X126172298Y-164453789D01*
X228415548Y-130403789D02*
X240415548Y-130403789D01*
X80778047Y-130403847D02*
G75*
G03*
X79778047Y-131403789I-47J-999953D01*
G01*
X146453011Y-124353789D02*
G75*
G03*
X147453048Y-125353789I999989J-11D01*
G01*
X268990548Y-163453848D02*
G75*
G03*
X269990548Y-162453789I-48J1000048D01*
G01*
X36628011Y-169503789D02*
G75*
G03*
X35628044Y-168503789I-1000011J-11D01*
G01*
X369059811Y-145403789D02*
G75*
G03*
X368059798Y-144403789I-1000011J-11D01*
G01*
X141403048Y-112353789D02*
X141403048Y-124353789D01*
X260675830Y-176449490D02*
G75*
G03*
X257649769Y-176449490I-1513030J-2590507D01*
G01*
X341715511Y-143403789D02*
G75*
G03*
X342715548Y-144403789I999989J-11D01*
G01*
X41678010Y-143403790D02*
G75*
G03*
X42678045Y-144403790I999990J-10D01*
G01*
X360478048Y-169503789D02*
X360478048Y-181503789D01*
X265515511Y-143403789D02*
G75*
G03*
X266515548Y-144403789I999989J-11D01*
G01*
X276040548Y-163453788D02*
X288040548Y-163453788D01*
X379528012Y-150453788D02*
G75*
G03*
X378528048Y-149453788I-1000012J-12D01*
G01*
X203084002Y-174810700D02*
X203176968Y-174756402D01*
X260465511Y-131403789D02*
G75*
G03*
X259465548Y-130403789I-1000011J-11D01*
G01*
X42678045Y-130403789D02*
X54678045Y-130403789D01*
X169978047Y-93303788D02*
X169978047Y-105303789D01*
X102209298Y-168503798D02*
G75*
G03*
X101209298Y-169503789I2J-1000002D01*
G01*
X54678045Y-144403844D02*
G75*
G03*
X55678044Y-143403790I-45J1000044D01*
G01*
X353334298Y-150453788D02*
X353334298Y-162453789D01*
M02*
