G04 #@! TF.GenerationSoftware,KiCad,Pcbnew,(6.0.5)*
G04 #@! TF.CreationDate,2022-06-28T17:28:24-04:00*
G04 #@! TF.ProjectId,discipline-pcb,64697363-6970-46c6-996e-652d7063622e,rev?*
G04 #@! TF.SameCoordinates,Original*
G04 #@! TF.FileFunction,Soldermask,Top*
G04 #@! TF.FilePolarity,Negative*
%FSLAX46Y46*%
G04 Gerber Fmt 4.6, Leading zero omitted, Abs format (unit mm)*
G04 Created by KiCad (PCBNEW (6.0.5)) date 2022-06-28 17:28:24*
%MOMM*%
%LPD*%
G01*
G04 APERTURE LIST*
%ADD10C,0.400000*%
%ADD11C,0.010000*%
G04 APERTURE END LIST*
D10*
X242881798Y-172086894D02*
X265181798Y-172086894D01*
X242901798Y-165406894D02*
X265181798Y-165406894D01*
X265171798Y-172086894D02*
G75*
G03*
X265171798Y-165406894I0J3340000D01*
G01*
X242871798Y-165406894D02*
G75*
G03*
X242871798Y-172086894I0J-3340000D01*
G01*
G36*
X252999716Y-169578976D02*
G01*
X252884424Y-169578976D01*
X252803537Y-169568425D01*
X252755929Y-169542547D01*
X252753319Y-169537769D01*
X252749563Y-169495635D01*
X252746718Y-169396806D01*
X252744847Y-169249878D01*
X252744011Y-169063445D01*
X252744273Y-168846102D01*
X252745694Y-168606445D01*
X252746182Y-168550173D01*
X252754857Y-167603783D01*
X252877286Y-167593651D01*
X252999716Y-167583518D01*
X252999716Y-169578976D01*
G37*
D11*
X252999716Y-169578976D02*
X252884424Y-169578976D01*
X252803537Y-169568425D01*
X252755929Y-169542547D01*
X252753319Y-169537769D01*
X252749563Y-169495635D01*
X252746718Y-169396806D01*
X252744847Y-169249878D01*
X252744011Y-169063445D01*
X252744273Y-168846102D01*
X252745694Y-168606445D01*
X252746182Y-168550173D01*
X252754857Y-167603783D01*
X252877286Y-167593651D01*
X252999716Y-167583518D01*
X252999716Y-169578976D01*
G36*
X248902962Y-167582834D02*
G01*
X249026033Y-167616980D01*
X249118522Y-167661238D01*
X249160748Y-167706075D01*
X249178614Y-167790447D01*
X249171831Y-167864279D01*
X249152102Y-167894629D01*
X249108443Y-167891600D01*
X249031758Y-167863584D01*
X248998284Y-167847585D01*
X248840355Y-167790935D01*
X248691271Y-167780248D01*
X248561939Y-167811658D01*
X248463265Y-167881301D01*
X248406156Y-167985313D01*
X248396374Y-168060853D01*
X248419763Y-168173681D01*
X248493635Y-168272842D01*
X248623546Y-168364143D01*
X248742962Y-168423038D01*
X248970176Y-168538982D01*
X249133494Y-168657454D01*
X249216862Y-168752533D01*
X249259061Y-168860516D01*
X249276767Y-169001451D01*
X249269288Y-169147484D01*
X249235931Y-169270762D01*
X249230066Y-169282878D01*
X249120692Y-169426453D01*
X248967099Y-169531074D01*
X248780086Y-169592949D01*
X248570453Y-169608287D01*
X248380050Y-169581304D01*
X248263461Y-169542779D01*
X248161313Y-169491277D01*
X248097515Y-169439035D01*
X248094881Y-169435336D01*
X248073572Y-169369857D01*
X248074194Y-169293741D01*
X248095798Y-169241043D01*
X248100392Y-169237504D01*
X248145057Y-169240219D01*
X248223455Y-169268619D01*
X248267150Y-169289679D01*
X248441321Y-169356771D01*
X248608970Y-169378740D01*
X248760113Y-169358870D01*
X248884767Y-169300445D01*
X248972949Y-169206748D01*
X249014675Y-169081062D01*
X249016682Y-169043154D01*
X248995195Y-168953944D01*
X248927211Y-168864774D01*
X248807447Y-168770728D01*
X248630620Y-168666890D01*
X248588659Y-168644885D01*
X248404721Y-168541111D01*
X248275618Y-168444141D01*
X248193143Y-168343779D01*
X248149087Y-168229828D01*
X248135241Y-168092093D01*
X248135191Y-168081614D01*
X248160865Y-167894483D01*
X248237520Y-167748020D01*
X248364603Y-167642791D01*
X248541562Y-167579365D01*
X248637820Y-167564561D01*
X248767496Y-167563720D01*
X248902962Y-167582834D01*
G37*
X248902962Y-167582834D02*
X249026033Y-167616980D01*
X249118522Y-167661238D01*
X249160748Y-167706075D01*
X249178614Y-167790447D01*
X249171831Y-167864279D01*
X249152102Y-167894629D01*
X249108443Y-167891600D01*
X249031758Y-167863584D01*
X248998284Y-167847585D01*
X248840355Y-167790935D01*
X248691271Y-167780248D01*
X248561939Y-167811658D01*
X248463265Y-167881301D01*
X248406156Y-167985313D01*
X248396374Y-168060853D01*
X248419763Y-168173681D01*
X248493635Y-168272842D01*
X248623546Y-168364143D01*
X248742962Y-168423038D01*
X248970176Y-168538982D01*
X249133494Y-168657454D01*
X249216862Y-168752533D01*
X249259061Y-168860516D01*
X249276767Y-169001451D01*
X249269288Y-169147484D01*
X249235931Y-169270762D01*
X249230066Y-169282878D01*
X249120692Y-169426453D01*
X248967099Y-169531074D01*
X248780086Y-169592949D01*
X248570453Y-169608287D01*
X248380050Y-169581304D01*
X248263461Y-169542779D01*
X248161313Y-169491277D01*
X248097515Y-169439035D01*
X248094881Y-169435336D01*
X248073572Y-169369857D01*
X248074194Y-169293741D01*
X248095798Y-169241043D01*
X248100392Y-169237504D01*
X248145057Y-169240219D01*
X248223455Y-169268619D01*
X248267150Y-169289679D01*
X248441321Y-169356771D01*
X248608970Y-169378740D01*
X248760113Y-169358870D01*
X248884767Y-169300445D01*
X248972949Y-169206748D01*
X249014675Y-169081062D01*
X249016682Y-169043154D01*
X248995195Y-168953944D01*
X248927211Y-168864774D01*
X248807447Y-168770728D01*
X248630620Y-168666890D01*
X248588659Y-168644885D01*
X248404721Y-168541111D01*
X248275618Y-168444141D01*
X248193143Y-168343779D01*
X248149087Y-168229828D01*
X248135241Y-168092093D01*
X248135191Y-168081614D01*
X248160865Y-167894483D01*
X248237520Y-167748020D01*
X248364603Y-167642791D01*
X248541562Y-167579365D01*
X248637820Y-167564561D01*
X248767496Y-167563720D01*
X248902962Y-167582834D01*
G36*
X244689134Y-167596215D02*
G01*
X244902243Y-167620318D01*
X245078837Y-167669141D01*
X245231769Y-167745141D01*
X245238922Y-167749634D01*
X245390535Y-167883219D01*
X245504387Y-168062834D01*
X245577322Y-168279137D01*
X245606182Y-168522785D01*
X245588073Y-168782786D01*
X245525754Y-169030851D01*
X245424290Y-169229155D01*
X245280342Y-169382543D01*
X245098944Y-169492098D01*
X245007768Y-169520899D01*
X244879701Y-169544924D01*
X244728559Y-169563485D01*
X244568161Y-169575896D01*
X244412324Y-169581469D01*
X244274865Y-169579518D01*
X244169601Y-169569355D01*
X244110351Y-169550294D01*
X244103124Y-169541615D01*
X244098989Y-169498464D01*
X244095801Y-169398664D01*
X244095095Y-169350442D01*
X244348045Y-169350442D01*
X244602309Y-169350442D01*
X244759517Y-169345030D01*
X244876977Y-169325747D01*
X244979569Y-169288025D01*
X245002245Y-169276984D01*
X245140135Y-169179275D01*
X245237205Y-169042621D01*
X245296830Y-168860548D01*
X245320494Y-168667019D01*
X245319313Y-168435601D01*
X245284077Y-168249562D01*
X245211677Y-168096784D01*
X245155214Y-168022913D01*
X245048533Y-167922507D01*
X244929314Y-167858719D01*
X244780611Y-167825302D01*
X244593952Y-167815994D01*
X244348045Y-167815994D01*
X244348045Y-169350442D01*
X244095095Y-169350442D01*
X244093637Y-169250855D01*
X244092570Y-169063676D01*
X244092677Y-168845770D01*
X244094031Y-168605776D01*
X244094511Y-168550173D01*
X244101240Y-167815994D01*
X244103186Y-167603783D01*
X244426658Y-167594377D01*
X244689134Y-167596215D01*
G37*
X244689134Y-167596215D02*
X244902243Y-167620318D01*
X245078837Y-167669141D01*
X245231769Y-167745141D01*
X245238922Y-167749634D01*
X245390535Y-167883219D01*
X245504387Y-168062834D01*
X245577322Y-168279137D01*
X245606182Y-168522785D01*
X245588073Y-168782786D01*
X245525754Y-169030851D01*
X245424290Y-169229155D01*
X245280342Y-169382543D01*
X245098944Y-169492098D01*
X245007768Y-169520899D01*
X244879701Y-169544924D01*
X244728559Y-169563485D01*
X244568161Y-169575896D01*
X244412324Y-169581469D01*
X244274865Y-169579518D01*
X244169601Y-169569355D01*
X244110351Y-169550294D01*
X244103124Y-169541615D01*
X244098989Y-169498464D01*
X244095801Y-169398664D01*
X244095095Y-169350442D01*
X244348045Y-169350442D01*
X244602309Y-169350442D01*
X244759517Y-169345030D01*
X244876977Y-169325747D01*
X244979569Y-169288025D01*
X245002245Y-169276984D01*
X245140135Y-169179275D01*
X245237205Y-169042621D01*
X245296830Y-168860548D01*
X245320494Y-168667019D01*
X245319313Y-168435601D01*
X245284077Y-168249562D01*
X245211677Y-168096784D01*
X245155214Y-168022913D01*
X245048533Y-167922507D01*
X244929314Y-167858719D01*
X244780611Y-167825302D01*
X244593952Y-167815994D01*
X244348045Y-167815994D01*
X244348045Y-169350442D01*
X244095095Y-169350442D01*
X244093637Y-169250855D01*
X244092570Y-169063676D01*
X244092677Y-168845770D01*
X244094031Y-168605776D01*
X244094511Y-168550173D01*
X244101240Y-167815994D01*
X244103186Y-167603783D01*
X244426658Y-167594377D01*
X244689134Y-167596215D01*
G36*
X261578411Y-168572952D02*
G01*
X261569767Y-169562652D01*
X261455500Y-169572267D01*
X261361943Y-169567250D01*
X261289819Y-169542022D01*
X261286501Y-169539620D01*
X261256839Y-169500816D01*
X261200539Y-169412467D01*
X261122202Y-169282362D01*
X261026434Y-169118292D01*
X260917837Y-168928046D01*
X260801016Y-168719416D01*
X260789198Y-168698093D01*
X260346627Y-167898830D01*
X260337888Y-168730741D01*
X260329150Y-169562652D01*
X260222563Y-169572919D01*
X260115976Y-169583185D01*
X260124619Y-168593484D01*
X260133263Y-167603783D01*
X260284681Y-167593982D01*
X260385471Y-167593423D01*
X260447848Y-167613963D01*
X260496892Y-167663256D01*
X260529041Y-167713245D01*
X260587177Y-167811832D01*
X260666268Y-167950154D01*
X260761286Y-168119350D01*
X260867201Y-168310556D01*
X260949459Y-168460683D01*
X261341232Y-169179035D01*
X261373880Y-167603783D01*
X261480467Y-167593517D01*
X261587055Y-167583251D01*
X261578411Y-168572952D01*
G37*
X261578411Y-168572952D02*
X261569767Y-169562652D01*
X261455500Y-169572267D01*
X261361943Y-169567250D01*
X261289819Y-169542022D01*
X261286501Y-169539620D01*
X261256839Y-169500816D01*
X261200539Y-169412467D01*
X261122202Y-169282362D01*
X261026434Y-169118292D01*
X260917837Y-168928046D01*
X260801016Y-168719416D01*
X260789198Y-168698093D01*
X260346627Y-167898830D01*
X260337888Y-168730741D01*
X260329150Y-169562652D01*
X260222563Y-169572919D01*
X260115976Y-169583185D01*
X260124619Y-168593484D01*
X260133263Y-167603783D01*
X260284681Y-167593982D01*
X260385471Y-167593423D01*
X260447848Y-167613963D01*
X260496892Y-167663256D01*
X260529041Y-167713245D01*
X260587177Y-167811832D01*
X260666268Y-167950154D01*
X260761286Y-168119350D01*
X260867201Y-168310556D01*
X260949459Y-168460683D01*
X261341232Y-169179035D01*
X261373880Y-167603783D01*
X261480467Y-167593517D01*
X261587055Y-167583251D01*
X261578411Y-168572952D01*
G36*
X256713405Y-167593651D02*
G01*
X256835834Y-167603783D01*
X256853220Y-169348313D01*
X257586734Y-169366765D01*
X257586734Y-169562652D01*
X257111456Y-169571651D01*
X256941450Y-169573366D01*
X256795150Y-169571999D01*
X256684742Y-169567883D01*
X256622412Y-169561352D01*
X256613577Y-169558048D01*
X256607892Y-169520889D01*
X256602730Y-169426678D01*
X256598280Y-169283658D01*
X256594727Y-169100071D01*
X256592258Y-168884162D01*
X256591060Y-168644172D01*
X256590975Y-168559482D01*
X256590975Y-167583518D01*
X256713405Y-167593651D01*
G37*
X256713405Y-167593651D02*
X256835834Y-167603783D01*
X256853220Y-169348313D01*
X257586734Y-169366765D01*
X257586734Y-169562652D01*
X257111456Y-169571651D01*
X256941450Y-169573366D01*
X256795150Y-169571999D01*
X256684742Y-169567883D01*
X256622412Y-169561352D01*
X256613577Y-169558048D01*
X256607892Y-169520889D01*
X256602730Y-169426678D01*
X256598280Y-169283658D01*
X256594727Y-169100071D01*
X256592258Y-168884162D01*
X256591060Y-168644172D01*
X256590975Y-168559482D01*
X256590975Y-167583518D01*
X256713405Y-167593651D01*
G36*
X263593414Y-167588052D02*
G01*
X263729113Y-167590609D01*
X263819421Y-167596298D01*
X263874287Y-167606291D01*
X263903661Y-167621754D01*
X263917493Y-167643858D01*
X263918950Y-167648156D01*
X263925363Y-167727203D01*
X263917657Y-167762423D01*
X263900352Y-167785150D01*
X263861884Y-167800519D01*
X263791504Y-167809881D01*
X263678464Y-167814586D01*
X263512016Y-167815984D01*
X263491270Y-167815994D01*
X263085440Y-167815994D01*
X263094827Y-168117987D01*
X263104214Y-168419979D01*
X263455178Y-168429245D01*
X263806142Y-168438512D01*
X263806142Y-168632190D01*
X263087890Y-168632190D01*
X263087890Y-169348491D01*
X263920410Y-169366765D01*
X263920410Y-169562652D01*
X263413528Y-169571606D01*
X263198073Y-169573631D01*
X263041443Y-169570743D01*
X262937327Y-169562584D01*
X262879414Y-169548795D01*
X262866677Y-169540591D01*
X262854310Y-169496266D01*
X262844037Y-169396989D01*
X262835864Y-169253068D01*
X262829794Y-169074808D01*
X262825832Y-168872518D01*
X262823981Y-168656502D01*
X262824247Y-168437070D01*
X262826633Y-168224526D01*
X262831144Y-168029179D01*
X262837784Y-167861335D01*
X262846556Y-167731300D01*
X262857467Y-167649383D01*
X262865885Y-167626637D01*
X262912140Y-167609249D01*
X263013034Y-167597093D01*
X263172024Y-167589915D01*
X263392566Y-167587463D01*
X263402374Y-167587460D01*
X263593414Y-167588052D01*
G37*
X263593414Y-167588052D02*
X263729113Y-167590609D01*
X263819421Y-167596298D01*
X263874287Y-167606291D01*
X263903661Y-167621754D01*
X263917493Y-167643858D01*
X263918950Y-167648156D01*
X263925363Y-167727203D01*
X263917657Y-167762423D01*
X263900352Y-167785150D01*
X263861884Y-167800519D01*
X263791504Y-167809881D01*
X263678464Y-167814586D01*
X263512016Y-167815984D01*
X263491270Y-167815994D01*
X263085440Y-167815994D01*
X263094827Y-168117987D01*
X263104214Y-168419979D01*
X263455178Y-168429245D01*
X263806142Y-168438512D01*
X263806142Y-168632190D01*
X263087890Y-168632190D01*
X263087890Y-169348491D01*
X263920410Y-169366765D01*
X263920410Y-169562652D01*
X263413528Y-169571606D01*
X263198073Y-169573631D01*
X263041443Y-169570743D01*
X262937327Y-169562584D01*
X262879414Y-169548795D01*
X262866677Y-169540591D01*
X262854310Y-169496266D01*
X262844037Y-169396989D01*
X262835864Y-169253068D01*
X262829794Y-169074808D01*
X262825832Y-168872518D01*
X262823981Y-168656502D01*
X262824247Y-168437070D01*
X262826633Y-168224526D01*
X262831144Y-168029179D01*
X262837784Y-167861335D01*
X262846556Y-167731300D01*
X262857467Y-167649383D01*
X262865885Y-167626637D01*
X262912140Y-167609249D01*
X263013034Y-167597093D01*
X263172024Y-167589915D01*
X263392566Y-167587463D01*
X263402374Y-167587460D01*
X263593414Y-167588052D01*
G36*
X246976194Y-169562652D02*
G01*
X246869864Y-169572900D01*
X246783864Y-169567839D01*
X246746921Y-169539854D01*
X246742960Y-169497169D01*
X246739929Y-169397814D01*
X246737899Y-169250408D01*
X246736938Y-169063571D01*
X246737115Y-168845922D01*
X246738501Y-168606082D01*
X246738984Y-168550173D01*
X246747659Y-167603783D01*
X246976194Y-167603783D01*
X246976194Y-169562652D01*
G37*
X246976194Y-169562652D02*
X246869864Y-169572900D01*
X246783864Y-169567839D01*
X246746921Y-169539854D01*
X246742960Y-169497169D01*
X246739929Y-169397814D01*
X246737899Y-169250408D01*
X246736938Y-169063571D01*
X246737115Y-168845922D01*
X246738501Y-168606082D01*
X246738984Y-168550173D01*
X246747659Y-167603783D01*
X246976194Y-167603783D01*
X246976194Y-169562652D01*
G36*
X258737569Y-167593651D02*
G01*
X258859998Y-167603783D01*
X258859998Y-169562652D01*
X258615140Y-169582918D01*
X258615140Y-167583518D01*
X258737569Y-167593651D01*
G37*
X258737569Y-167593651D02*
X258859998Y-167603783D01*
X258859998Y-169562652D01*
X258615140Y-169582918D01*
X258615140Y-167583518D01*
X258737569Y-167593651D01*
G36*
X251252728Y-167568643D02*
G01*
X251465586Y-167622803D01*
X251524304Y-167649562D01*
X251628829Y-167717028D01*
X251681098Y-167793300D01*
X251693803Y-167882033D01*
X251678831Y-167945377D01*
X251631071Y-167959196D01*
X251546263Y-167923715D01*
X251496107Y-167892542D01*
X251357932Y-167823842D01*
X251197283Y-167793487D01*
X251176648Y-167792028D01*
X250987404Y-167804870D01*
X250833925Y-167871231D01*
X250710729Y-167994249D01*
X250650991Y-168092795D01*
X250612407Y-168175099D01*
X250587832Y-168252990D01*
X250574219Y-168344954D01*
X250568523Y-168469477D01*
X250567616Y-168598836D01*
X250569659Y-168762942D01*
X250577415Y-168879380D01*
X250593599Y-168965705D01*
X250620927Y-169039477D01*
X250642390Y-169082378D01*
X250752875Y-169225993D01*
X250899142Y-169323046D01*
X251068947Y-169371211D01*
X251250045Y-169368163D01*
X251430191Y-169311575D01*
X251532160Y-169251361D01*
X251603778Y-169207346D01*
X251655722Y-169187318D01*
X251658033Y-169187203D01*
X251688831Y-169212970D01*
X251694258Y-169275770D01*
X251677363Y-169353850D01*
X251641198Y-169425460D01*
X251621464Y-169447940D01*
X251500789Y-169523938D01*
X251337592Y-169576643D01*
X251151547Y-169602643D01*
X250962324Y-169598531D01*
X250856654Y-169580480D01*
X250669143Y-169503864D01*
X250513213Y-169374574D01*
X250392186Y-169198801D01*
X250309381Y-168982734D01*
X250268120Y-168732562D01*
X250269101Y-168485274D01*
X250310706Y-168232772D01*
X250391819Y-168010752D01*
X250507583Y-167829762D01*
X250620426Y-167722663D01*
X250812287Y-167620017D01*
X251029008Y-167568196D01*
X251252728Y-167568643D01*
G37*
X251252728Y-167568643D02*
X251465586Y-167622803D01*
X251524304Y-167649562D01*
X251628829Y-167717028D01*
X251681098Y-167793300D01*
X251693803Y-167882033D01*
X251678831Y-167945377D01*
X251631071Y-167959196D01*
X251546263Y-167923715D01*
X251496107Y-167892542D01*
X251357932Y-167823842D01*
X251197283Y-167793487D01*
X251176648Y-167792028D01*
X250987404Y-167804870D01*
X250833925Y-167871231D01*
X250710729Y-167994249D01*
X250650991Y-168092795D01*
X250612407Y-168175099D01*
X250587832Y-168252990D01*
X250574219Y-168344954D01*
X250568523Y-168469477D01*
X250567616Y-168598836D01*
X250569659Y-168762942D01*
X250577415Y-168879380D01*
X250593599Y-168965705D01*
X250620927Y-169039477D01*
X250642390Y-169082378D01*
X250752875Y-169225993D01*
X250899142Y-169323046D01*
X251068947Y-169371211D01*
X251250045Y-169368163D01*
X251430191Y-169311575D01*
X251532160Y-169251361D01*
X251603778Y-169207346D01*
X251655722Y-169187318D01*
X251658033Y-169187203D01*
X251688831Y-169212970D01*
X251694258Y-169275770D01*
X251677363Y-169353850D01*
X251641198Y-169425460D01*
X251621464Y-169447940D01*
X251500789Y-169523938D01*
X251337592Y-169576643D01*
X251151547Y-169602643D01*
X250962324Y-169598531D01*
X250856654Y-169580480D01*
X250669143Y-169503864D01*
X250513213Y-169374574D01*
X250392186Y-169198801D01*
X250309381Y-168982734D01*
X250268120Y-168732562D01*
X250269101Y-168485274D01*
X250310706Y-168232772D01*
X250391819Y-168010752D01*
X250507583Y-167829762D01*
X250620426Y-167722663D01*
X250812287Y-167620017D01*
X251029008Y-167568196D01*
X251252728Y-167568643D01*
G36*
X254707992Y-167593395D02*
G01*
X254878135Y-167601699D01*
X254998682Y-167613209D01*
X255085335Y-167630805D01*
X255153793Y-167657368D01*
X255200945Y-167683859D01*
X255327534Y-167783870D01*
X255405545Y-167904129D01*
X255442318Y-168059255D01*
X255447643Y-168175120D01*
X255423933Y-168386661D01*
X255352788Y-168555078D01*
X255232814Y-168681678D01*
X255062614Y-168767764D01*
X254840795Y-168814644D01*
X254756717Y-168821693D01*
X254501515Y-168836466D01*
X254501515Y-169578976D01*
X254392689Y-169578976D01*
X254312019Y-169573003D01*
X254263572Y-169558496D01*
X254262098Y-169557211D01*
X254256516Y-169520182D01*
X254251463Y-169426270D01*
X254247131Y-169283887D01*
X254243710Y-169101444D01*
X254241391Y-168887352D01*
X254240366Y-168650024D01*
X254240333Y-168598098D01*
X254240770Y-168320093D01*
X254241598Y-168202327D01*
X254501515Y-168202327D01*
X254503256Y-168355052D01*
X254507992Y-168483132D01*
X254514995Y-168572891D01*
X254523280Y-168610424D01*
X254575280Y-168627370D01*
X254668717Y-168630977D01*
X254781252Y-168621907D01*
X254890543Y-168600821D01*
X254895713Y-168599409D01*
X255034645Y-168535219D01*
X255126023Y-168430279D01*
X255173846Y-168279327D01*
X255180234Y-168225061D01*
X255185810Y-168118245D01*
X255173968Y-168048718D01*
X255135339Y-167988974D01*
X255080100Y-167930980D01*
X255015721Y-167870640D01*
X254959446Y-167836221D01*
X254889412Y-167820474D01*
X254783758Y-167816150D01*
X254733315Y-167815994D01*
X254501515Y-167815994D01*
X254501515Y-168202327D01*
X254241598Y-168202327D01*
X254242314Y-168100405D01*
X254245316Y-167932063D01*
X254249818Y-167815994D01*
X254250125Y-167808092D01*
X254257091Y-167721520D01*
X254266565Y-167665374D01*
X254278897Y-167632680D01*
X254289432Y-167620002D01*
X254337560Y-167600934D01*
X254429787Y-167590954D01*
X254573813Y-167589571D01*
X254707992Y-167593395D01*
G37*
X254707992Y-167593395D02*
X254878135Y-167601699D01*
X254998682Y-167613209D01*
X255085335Y-167630805D01*
X255153793Y-167657368D01*
X255200945Y-167683859D01*
X255327534Y-167783870D01*
X255405545Y-167904129D01*
X255442318Y-168059255D01*
X255447643Y-168175120D01*
X255423933Y-168386661D01*
X255352788Y-168555078D01*
X255232814Y-168681678D01*
X255062614Y-168767764D01*
X254840795Y-168814644D01*
X254756717Y-168821693D01*
X254501515Y-168836466D01*
X254501515Y-169578976D01*
X254392689Y-169578976D01*
X254312019Y-169573003D01*
X254263572Y-169558496D01*
X254262098Y-169557211D01*
X254256516Y-169520182D01*
X254251463Y-169426270D01*
X254247131Y-169283887D01*
X254243710Y-169101444D01*
X254241391Y-168887352D01*
X254240366Y-168650024D01*
X254240333Y-168598098D01*
X254240770Y-168320093D01*
X254241598Y-168202327D01*
X254501515Y-168202327D01*
X254503256Y-168355052D01*
X254507992Y-168483132D01*
X254514995Y-168572891D01*
X254523280Y-168610424D01*
X254575280Y-168627370D01*
X254668717Y-168630977D01*
X254781252Y-168621907D01*
X254890543Y-168600821D01*
X254895713Y-168599409D01*
X255034645Y-168535219D01*
X255126023Y-168430279D01*
X255173846Y-168279327D01*
X255180234Y-168225061D01*
X255185810Y-168118245D01*
X255173968Y-168048718D01*
X255135339Y-167988974D01*
X255080100Y-167930980D01*
X255015721Y-167870640D01*
X254959446Y-167836221D01*
X254889412Y-167820474D01*
X254783758Y-167816150D01*
X254733315Y-167815994D01*
X254501515Y-167815994D01*
X254501515Y-168202327D01*
X254241598Y-168202327D01*
X254242314Y-168100405D01*
X254245316Y-167932063D01*
X254249818Y-167815994D01*
X254250125Y-167808092D01*
X254257091Y-167721520D01*
X254266565Y-167665374D01*
X254278897Y-167632680D01*
X254289432Y-167620002D01*
X254337560Y-167600934D01*
X254429787Y-167590954D01*
X254573813Y-167589571D01*
X254707992Y-167593395D01*
D10*
X242881798Y-172086894D02*
X265181798Y-172086894D01*
X242901798Y-165406894D02*
X265181798Y-165406894D01*
X265171798Y-172086894D02*
G75*
G03*
X265171798Y-165406894I0J3340000D01*
G01*
X242871798Y-165406894D02*
G75*
G03*
X242871798Y-172086894I0J-3340000D01*
G01*
G36*
X252999716Y-169578976D02*
G01*
X252884424Y-169578976D01*
X252803537Y-169568425D01*
X252755929Y-169542547D01*
X252753319Y-169537769D01*
X252749563Y-169495635D01*
X252746718Y-169396806D01*
X252744847Y-169249878D01*
X252744011Y-169063445D01*
X252744273Y-168846102D01*
X252745694Y-168606445D01*
X252746182Y-168550173D01*
X252754857Y-167603783D01*
X252877286Y-167593651D01*
X252999716Y-167583518D01*
X252999716Y-169578976D01*
G37*
D11*
X252999716Y-169578976D02*
X252884424Y-169578976D01*
X252803537Y-169568425D01*
X252755929Y-169542547D01*
X252753319Y-169537769D01*
X252749563Y-169495635D01*
X252746718Y-169396806D01*
X252744847Y-169249878D01*
X252744011Y-169063445D01*
X252744273Y-168846102D01*
X252745694Y-168606445D01*
X252746182Y-168550173D01*
X252754857Y-167603783D01*
X252877286Y-167593651D01*
X252999716Y-167583518D01*
X252999716Y-169578976D01*
G36*
X248902962Y-167582834D02*
G01*
X249026033Y-167616980D01*
X249118522Y-167661238D01*
X249160748Y-167706075D01*
X249178614Y-167790447D01*
X249171831Y-167864279D01*
X249152102Y-167894629D01*
X249108443Y-167891600D01*
X249031758Y-167863584D01*
X248998284Y-167847585D01*
X248840355Y-167790935D01*
X248691271Y-167780248D01*
X248561939Y-167811658D01*
X248463265Y-167881301D01*
X248406156Y-167985313D01*
X248396374Y-168060853D01*
X248419763Y-168173681D01*
X248493635Y-168272842D01*
X248623546Y-168364143D01*
X248742962Y-168423038D01*
X248970176Y-168538982D01*
X249133494Y-168657454D01*
X249216862Y-168752533D01*
X249259061Y-168860516D01*
X249276767Y-169001451D01*
X249269288Y-169147484D01*
X249235931Y-169270762D01*
X249230066Y-169282878D01*
X249120692Y-169426453D01*
X248967099Y-169531074D01*
X248780086Y-169592949D01*
X248570453Y-169608287D01*
X248380050Y-169581304D01*
X248263461Y-169542779D01*
X248161313Y-169491277D01*
X248097515Y-169439035D01*
X248094881Y-169435336D01*
X248073572Y-169369857D01*
X248074194Y-169293741D01*
X248095798Y-169241043D01*
X248100392Y-169237504D01*
X248145057Y-169240219D01*
X248223455Y-169268619D01*
X248267150Y-169289679D01*
X248441321Y-169356771D01*
X248608970Y-169378740D01*
X248760113Y-169358870D01*
X248884767Y-169300445D01*
X248972949Y-169206748D01*
X249014675Y-169081062D01*
X249016682Y-169043154D01*
X248995195Y-168953944D01*
X248927211Y-168864774D01*
X248807447Y-168770728D01*
X248630620Y-168666890D01*
X248588659Y-168644885D01*
X248404721Y-168541111D01*
X248275618Y-168444141D01*
X248193143Y-168343779D01*
X248149087Y-168229828D01*
X248135241Y-168092093D01*
X248135191Y-168081614D01*
X248160865Y-167894483D01*
X248237520Y-167748020D01*
X248364603Y-167642791D01*
X248541562Y-167579365D01*
X248637820Y-167564561D01*
X248767496Y-167563720D01*
X248902962Y-167582834D01*
G37*
X248902962Y-167582834D02*
X249026033Y-167616980D01*
X249118522Y-167661238D01*
X249160748Y-167706075D01*
X249178614Y-167790447D01*
X249171831Y-167864279D01*
X249152102Y-167894629D01*
X249108443Y-167891600D01*
X249031758Y-167863584D01*
X248998284Y-167847585D01*
X248840355Y-167790935D01*
X248691271Y-167780248D01*
X248561939Y-167811658D01*
X248463265Y-167881301D01*
X248406156Y-167985313D01*
X248396374Y-168060853D01*
X248419763Y-168173681D01*
X248493635Y-168272842D01*
X248623546Y-168364143D01*
X248742962Y-168423038D01*
X248970176Y-168538982D01*
X249133494Y-168657454D01*
X249216862Y-168752533D01*
X249259061Y-168860516D01*
X249276767Y-169001451D01*
X249269288Y-169147484D01*
X249235931Y-169270762D01*
X249230066Y-169282878D01*
X249120692Y-169426453D01*
X248967099Y-169531074D01*
X248780086Y-169592949D01*
X248570453Y-169608287D01*
X248380050Y-169581304D01*
X248263461Y-169542779D01*
X248161313Y-169491277D01*
X248097515Y-169439035D01*
X248094881Y-169435336D01*
X248073572Y-169369857D01*
X248074194Y-169293741D01*
X248095798Y-169241043D01*
X248100392Y-169237504D01*
X248145057Y-169240219D01*
X248223455Y-169268619D01*
X248267150Y-169289679D01*
X248441321Y-169356771D01*
X248608970Y-169378740D01*
X248760113Y-169358870D01*
X248884767Y-169300445D01*
X248972949Y-169206748D01*
X249014675Y-169081062D01*
X249016682Y-169043154D01*
X248995195Y-168953944D01*
X248927211Y-168864774D01*
X248807447Y-168770728D01*
X248630620Y-168666890D01*
X248588659Y-168644885D01*
X248404721Y-168541111D01*
X248275618Y-168444141D01*
X248193143Y-168343779D01*
X248149087Y-168229828D01*
X248135241Y-168092093D01*
X248135191Y-168081614D01*
X248160865Y-167894483D01*
X248237520Y-167748020D01*
X248364603Y-167642791D01*
X248541562Y-167579365D01*
X248637820Y-167564561D01*
X248767496Y-167563720D01*
X248902962Y-167582834D01*
G36*
X244689134Y-167596215D02*
G01*
X244902243Y-167620318D01*
X245078837Y-167669141D01*
X245231769Y-167745141D01*
X245238922Y-167749634D01*
X245390535Y-167883219D01*
X245504387Y-168062834D01*
X245577322Y-168279137D01*
X245606182Y-168522785D01*
X245588073Y-168782786D01*
X245525754Y-169030851D01*
X245424290Y-169229155D01*
X245280342Y-169382543D01*
X245098944Y-169492098D01*
X245007768Y-169520899D01*
X244879701Y-169544924D01*
X244728559Y-169563485D01*
X244568161Y-169575896D01*
X244412324Y-169581469D01*
X244274865Y-169579518D01*
X244169601Y-169569355D01*
X244110351Y-169550294D01*
X244103124Y-169541615D01*
X244098989Y-169498464D01*
X244095801Y-169398664D01*
X244095095Y-169350442D01*
X244348045Y-169350442D01*
X244602309Y-169350442D01*
X244759517Y-169345030D01*
X244876977Y-169325747D01*
X244979569Y-169288025D01*
X245002245Y-169276984D01*
X245140135Y-169179275D01*
X245237205Y-169042621D01*
X245296830Y-168860548D01*
X245320494Y-168667019D01*
X245319313Y-168435601D01*
X245284077Y-168249562D01*
X245211677Y-168096784D01*
X245155214Y-168022913D01*
X245048533Y-167922507D01*
X244929314Y-167858719D01*
X244780611Y-167825302D01*
X244593952Y-167815994D01*
X244348045Y-167815994D01*
X244348045Y-169350442D01*
X244095095Y-169350442D01*
X244093637Y-169250855D01*
X244092570Y-169063676D01*
X244092677Y-168845770D01*
X244094031Y-168605776D01*
X244094511Y-168550173D01*
X244101240Y-167815994D01*
X244103186Y-167603783D01*
X244426658Y-167594377D01*
X244689134Y-167596215D01*
G37*
X244689134Y-167596215D02*
X244902243Y-167620318D01*
X245078837Y-167669141D01*
X245231769Y-167745141D01*
X245238922Y-167749634D01*
X245390535Y-167883219D01*
X245504387Y-168062834D01*
X245577322Y-168279137D01*
X245606182Y-168522785D01*
X245588073Y-168782786D01*
X245525754Y-169030851D01*
X245424290Y-169229155D01*
X245280342Y-169382543D01*
X245098944Y-169492098D01*
X245007768Y-169520899D01*
X244879701Y-169544924D01*
X244728559Y-169563485D01*
X244568161Y-169575896D01*
X244412324Y-169581469D01*
X244274865Y-169579518D01*
X244169601Y-169569355D01*
X244110351Y-169550294D01*
X244103124Y-169541615D01*
X244098989Y-169498464D01*
X244095801Y-169398664D01*
X244095095Y-169350442D01*
X244348045Y-169350442D01*
X244602309Y-169350442D01*
X244759517Y-169345030D01*
X244876977Y-169325747D01*
X244979569Y-169288025D01*
X245002245Y-169276984D01*
X245140135Y-169179275D01*
X245237205Y-169042621D01*
X245296830Y-168860548D01*
X245320494Y-168667019D01*
X245319313Y-168435601D01*
X245284077Y-168249562D01*
X245211677Y-168096784D01*
X245155214Y-168022913D01*
X245048533Y-167922507D01*
X244929314Y-167858719D01*
X244780611Y-167825302D01*
X244593952Y-167815994D01*
X244348045Y-167815994D01*
X244348045Y-169350442D01*
X244095095Y-169350442D01*
X244093637Y-169250855D01*
X244092570Y-169063676D01*
X244092677Y-168845770D01*
X244094031Y-168605776D01*
X244094511Y-168550173D01*
X244101240Y-167815994D01*
X244103186Y-167603783D01*
X244426658Y-167594377D01*
X244689134Y-167596215D01*
G36*
X261578411Y-168572952D02*
G01*
X261569767Y-169562652D01*
X261455500Y-169572267D01*
X261361943Y-169567250D01*
X261289819Y-169542022D01*
X261286501Y-169539620D01*
X261256839Y-169500816D01*
X261200539Y-169412467D01*
X261122202Y-169282362D01*
X261026434Y-169118292D01*
X260917837Y-168928046D01*
X260801016Y-168719416D01*
X260789198Y-168698093D01*
X260346627Y-167898830D01*
X260337888Y-168730741D01*
X260329150Y-169562652D01*
X260222563Y-169572919D01*
X260115976Y-169583185D01*
X260124619Y-168593484D01*
X260133263Y-167603783D01*
X260284681Y-167593982D01*
X260385471Y-167593423D01*
X260447848Y-167613963D01*
X260496892Y-167663256D01*
X260529041Y-167713245D01*
X260587177Y-167811832D01*
X260666268Y-167950154D01*
X260761286Y-168119350D01*
X260867201Y-168310556D01*
X260949459Y-168460683D01*
X261341232Y-169179035D01*
X261373880Y-167603783D01*
X261480467Y-167593517D01*
X261587055Y-167583251D01*
X261578411Y-168572952D01*
G37*
X261578411Y-168572952D02*
X261569767Y-169562652D01*
X261455500Y-169572267D01*
X261361943Y-169567250D01*
X261289819Y-169542022D01*
X261286501Y-169539620D01*
X261256839Y-169500816D01*
X261200539Y-169412467D01*
X261122202Y-169282362D01*
X261026434Y-169118292D01*
X260917837Y-168928046D01*
X260801016Y-168719416D01*
X260789198Y-168698093D01*
X260346627Y-167898830D01*
X260337888Y-168730741D01*
X260329150Y-169562652D01*
X260222563Y-169572919D01*
X260115976Y-169583185D01*
X260124619Y-168593484D01*
X260133263Y-167603783D01*
X260284681Y-167593982D01*
X260385471Y-167593423D01*
X260447848Y-167613963D01*
X260496892Y-167663256D01*
X260529041Y-167713245D01*
X260587177Y-167811832D01*
X260666268Y-167950154D01*
X260761286Y-168119350D01*
X260867201Y-168310556D01*
X260949459Y-168460683D01*
X261341232Y-169179035D01*
X261373880Y-167603783D01*
X261480467Y-167593517D01*
X261587055Y-167583251D01*
X261578411Y-168572952D01*
G36*
X256713405Y-167593651D02*
G01*
X256835834Y-167603783D01*
X256853220Y-169348313D01*
X257586734Y-169366765D01*
X257586734Y-169562652D01*
X257111456Y-169571651D01*
X256941450Y-169573366D01*
X256795150Y-169571999D01*
X256684742Y-169567883D01*
X256622412Y-169561352D01*
X256613577Y-169558048D01*
X256607892Y-169520889D01*
X256602730Y-169426678D01*
X256598280Y-169283658D01*
X256594727Y-169100071D01*
X256592258Y-168884162D01*
X256591060Y-168644172D01*
X256590975Y-168559482D01*
X256590975Y-167583518D01*
X256713405Y-167593651D01*
G37*
X256713405Y-167593651D02*
X256835834Y-167603783D01*
X256853220Y-169348313D01*
X257586734Y-169366765D01*
X257586734Y-169562652D01*
X257111456Y-169571651D01*
X256941450Y-169573366D01*
X256795150Y-169571999D01*
X256684742Y-169567883D01*
X256622412Y-169561352D01*
X256613577Y-169558048D01*
X256607892Y-169520889D01*
X256602730Y-169426678D01*
X256598280Y-169283658D01*
X256594727Y-169100071D01*
X256592258Y-168884162D01*
X256591060Y-168644172D01*
X256590975Y-168559482D01*
X256590975Y-167583518D01*
X256713405Y-167593651D01*
G36*
X263593414Y-167588052D02*
G01*
X263729113Y-167590609D01*
X263819421Y-167596298D01*
X263874287Y-167606291D01*
X263903661Y-167621754D01*
X263917493Y-167643858D01*
X263918950Y-167648156D01*
X263925363Y-167727203D01*
X263917657Y-167762423D01*
X263900352Y-167785150D01*
X263861884Y-167800519D01*
X263791504Y-167809881D01*
X263678464Y-167814586D01*
X263512016Y-167815984D01*
X263491270Y-167815994D01*
X263085440Y-167815994D01*
X263094827Y-168117987D01*
X263104214Y-168419979D01*
X263455178Y-168429245D01*
X263806142Y-168438512D01*
X263806142Y-168632190D01*
X263087890Y-168632190D01*
X263087890Y-169348491D01*
X263920410Y-169366765D01*
X263920410Y-169562652D01*
X263413528Y-169571606D01*
X263198073Y-169573631D01*
X263041443Y-169570743D01*
X262937327Y-169562584D01*
X262879414Y-169548795D01*
X262866677Y-169540591D01*
X262854310Y-169496266D01*
X262844037Y-169396989D01*
X262835864Y-169253068D01*
X262829794Y-169074808D01*
X262825832Y-168872518D01*
X262823981Y-168656502D01*
X262824247Y-168437070D01*
X262826633Y-168224526D01*
X262831144Y-168029179D01*
X262837784Y-167861335D01*
X262846556Y-167731300D01*
X262857467Y-167649383D01*
X262865885Y-167626637D01*
X262912140Y-167609249D01*
X263013034Y-167597093D01*
X263172024Y-167589915D01*
X263392566Y-167587463D01*
X263402374Y-167587460D01*
X263593414Y-167588052D01*
G37*
X263593414Y-167588052D02*
X263729113Y-167590609D01*
X263819421Y-167596298D01*
X263874287Y-167606291D01*
X263903661Y-167621754D01*
X263917493Y-167643858D01*
X263918950Y-167648156D01*
X263925363Y-167727203D01*
X263917657Y-167762423D01*
X263900352Y-167785150D01*
X263861884Y-167800519D01*
X263791504Y-167809881D01*
X263678464Y-167814586D01*
X263512016Y-167815984D01*
X263491270Y-167815994D01*
X263085440Y-167815994D01*
X263094827Y-168117987D01*
X263104214Y-168419979D01*
X263455178Y-168429245D01*
X263806142Y-168438512D01*
X263806142Y-168632190D01*
X263087890Y-168632190D01*
X263087890Y-169348491D01*
X263920410Y-169366765D01*
X263920410Y-169562652D01*
X263413528Y-169571606D01*
X263198073Y-169573631D01*
X263041443Y-169570743D01*
X262937327Y-169562584D01*
X262879414Y-169548795D01*
X262866677Y-169540591D01*
X262854310Y-169496266D01*
X262844037Y-169396989D01*
X262835864Y-169253068D01*
X262829794Y-169074808D01*
X262825832Y-168872518D01*
X262823981Y-168656502D01*
X262824247Y-168437070D01*
X262826633Y-168224526D01*
X262831144Y-168029179D01*
X262837784Y-167861335D01*
X262846556Y-167731300D01*
X262857467Y-167649383D01*
X262865885Y-167626637D01*
X262912140Y-167609249D01*
X263013034Y-167597093D01*
X263172024Y-167589915D01*
X263392566Y-167587463D01*
X263402374Y-167587460D01*
X263593414Y-167588052D01*
G36*
X246976194Y-169562652D02*
G01*
X246869864Y-169572900D01*
X246783864Y-169567839D01*
X246746921Y-169539854D01*
X246742960Y-169497169D01*
X246739929Y-169397814D01*
X246737899Y-169250408D01*
X246736938Y-169063571D01*
X246737115Y-168845922D01*
X246738501Y-168606082D01*
X246738984Y-168550173D01*
X246747659Y-167603783D01*
X246976194Y-167603783D01*
X246976194Y-169562652D01*
G37*
X246976194Y-169562652D02*
X246869864Y-169572900D01*
X246783864Y-169567839D01*
X246746921Y-169539854D01*
X246742960Y-169497169D01*
X246739929Y-169397814D01*
X246737899Y-169250408D01*
X246736938Y-169063571D01*
X246737115Y-168845922D01*
X246738501Y-168606082D01*
X246738984Y-168550173D01*
X246747659Y-167603783D01*
X246976194Y-167603783D01*
X246976194Y-169562652D01*
G36*
X258737569Y-167593651D02*
G01*
X258859998Y-167603783D01*
X258859998Y-169562652D01*
X258615140Y-169582918D01*
X258615140Y-167583518D01*
X258737569Y-167593651D01*
G37*
X258737569Y-167593651D02*
X258859998Y-167603783D01*
X258859998Y-169562652D01*
X258615140Y-169582918D01*
X258615140Y-167583518D01*
X258737569Y-167593651D01*
G36*
X251252728Y-167568643D02*
G01*
X251465586Y-167622803D01*
X251524304Y-167649562D01*
X251628829Y-167717028D01*
X251681098Y-167793300D01*
X251693803Y-167882033D01*
X251678831Y-167945377D01*
X251631071Y-167959196D01*
X251546263Y-167923715D01*
X251496107Y-167892542D01*
X251357932Y-167823842D01*
X251197283Y-167793487D01*
X251176648Y-167792028D01*
X250987404Y-167804870D01*
X250833925Y-167871231D01*
X250710729Y-167994249D01*
X250650991Y-168092795D01*
X250612407Y-168175099D01*
X250587832Y-168252990D01*
X250574219Y-168344954D01*
X250568523Y-168469477D01*
X250567616Y-168598836D01*
X250569659Y-168762942D01*
X250577415Y-168879380D01*
X250593599Y-168965705D01*
X250620927Y-169039477D01*
X250642390Y-169082378D01*
X250752875Y-169225993D01*
X250899142Y-169323046D01*
X251068947Y-169371211D01*
X251250045Y-169368163D01*
X251430191Y-169311575D01*
X251532160Y-169251361D01*
X251603778Y-169207346D01*
X251655722Y-169187318D01*
X251658033Y-169187203D01*
X251688831Y-169212970D01*
X251694258Y-169275770D01*
X251677363Y-169353850D01*
X251641198Y-169425460D01*
X251621464Y-169447940D01*
X251500789Y-169523938D01*
X251337592Y-169576643D01*
X251151547Y-169602643D01*
X250962324Y-169598531D01*
X250856654Y-169580480D01*
X250669143Y-169503864D01*
X250513213Y-169374574D01*
X250392186Y-169198801D01*
X250309381Y-168982734D01*
X250268120Y-168732562D01*
X250269101Y-168485274D01*
X250310706Y-168232772D01*
X250391819Y-168010752D01*
X250507583Y-167829762D01*
X250620426Y-167722663D01*
X250812287Y-167620017D01*
X251029008Y-167568196D01*
X251252728Y-167568643D01*
G37*
X251252728Y-167568643D02*
X251465586Y-167622803D01*
X251524304Y-167649562D01*
X251628829Y-167717028D01*
X251681098Y-167793300D01*
X251693803Y-167882033D01*
X251678831Y-167945377D01*
X251631071Y-167959196D01*
X251546263Y-167923715D01*
X251496107Y-167892542D01*
X251357932Y-167823842D01*
X251197283Y-167793487D01*
X251176648Y-167792028D01*
X250987404Y-167804870D01*
X250833925Y-167871231D01*
X250710729Y-167994249D01*
X250650991Y-168092795D01*
X250612407Y-168175099D01*
X250587832Y-168252990D01*
X250574219Y-168344954D01*
X250568523Y-168469477D01*
X250567616Y-168598836D01*
X250569659Y-168762942D01*
X250577415Y-168879380D01*
X250593599Y-168965705D01*
X250620927Y-169039477D01*
X250642390Y-169082378D01*
X250752875Y-169225993D01*
X250899142Y-169323046D01*
X251068947Y-169371211D01*
X251250045Y-169368163D01*
X251430191Y-169311575D01*
X251532160Y-169251361D01*
X251603778Y-169207346D01*
X251655722Y-169187318D01*
X251658033Y-169187203D01*
X251688831Y-169212970D01*
X251694258Y-169275770D01*
X251677363Y-169353850D01*
X251641198Y-169425460D01*
X251621464Y-169447940D01*
X251500789Y-169523938D01*
X251337592Y-169576643D01*
X251151547Y-169602643D01*
X250962324Y-169598531D01*
X250856654Y-169580480D01*
X250669143Y-169503864D01*
X250513213Y-169374574D01*
X250392186Y-169198801D01*
X250309381Y-168982734D01*
X250268120Y-168732562D01*
X250269101Y-168485274D01*
X250310706Y-168232772D01*
X250391819Y-168010752D01*
X250507583Y-167829762D01*
X250620426Y-167722663D01*
X250812287Y-167620017D01*
X251029008Y-167568196D01*
X251252728Y-167568643D01*
G36*
X254707992Y-167593395D02*
G01*
X254878135Y-167601699D01*
X254998682Y-167613209D01*
X255085335Y-167630805D01*
X255153793Y-167657368D01*
X255200945Y-167683859D01*
X255327534Y-167783870D01*
X255405545Y-167904129D01*
X255442318Y-168059255D01*
X255447643Y-168175120D01*
X255423933Y-168386661D01*
X255352788Y-168555078D01*
X255232814Y-168681678D01*
X255062614Y-168767764D01*
X254840795Y-168814644D01*
X254756717Y-168821693D01*
X254501515Y-168836466D01*
X254501515Y-169578976D01*
X254392689Y-169578976D01*
X254312019Y-169573003D01*
X254263572Y-169558496D01*
X254262098Y-169557211D01*
X254256516Y-169520182D01*
X254251463Y-169426270D01*
X254247131Y-169283887D01*
X254243710Y-169101444D01*
X254241391Y-168887352D01*
X254240366Y-168650024D01*
X254240333Y-168598098D01*
X254240770Y-168320093D01*
X254241598Y-168202327D01*
X254501515Y-168202327D01*
X254503256Y-168355052D01*
X254507992Y-168483132D01*
X254514995Y-168572891D01*
X254523280Y-168610424D01*
X254575280Y-168627370D01*
X254668717Y-168630977D01*
X254781252Y-168621907D01*
X254890543Y-168600821D01*
X254895713Y-168599409D01*
X255034645Y-168535219D01*
X255126023Y-168430279D01*
X255173846Y-168279327D01*
X255180234Y-168225061D01*
X255185810Y-168118245D01*
X255173968Y-168048718D01*
X255135339Y-167988974D01*
X255080100Y-167930980D01*
X255015721Y-167870640D01*
X254959446Y-167836221D01*
X254889412Y-167820474D01*
X254783758Y-167816150D01*
X254733315Y-167815994D01*
X254501515Y-167815994D01*
X254501515Y-168202327D01*
X254241598Y-168202327D01*
X254242314Y-168100405D01*
X254245316Y-167932063D01*
X254249818Y-167815994D01*
X254250125Y-167808092D01*
X254257091Y-167721520D01*
X254266565Y-167665374D01*
X254278897Y-167632680D01*
X254289432Y-167620002D01*
X254337560Y-167600934D01*
X254429787Y-167590954D01*
X254573813Y-167589571D01*
X254707992Y-167593395D01*
G37*
X254707992Y-167593395D02*
X254878135Y-167601699D01*
X254998682Y-167613209D01*
X255085335Y-167630805D01*
X255153793Y-167657368D01*
X255200945Y-167683859D01*
X255327534Y-167783870D01*
X255405545Y-167904129D01*
X255442318Y-168059255D01*
X255447643Y-168175120D01*
X255423933Y-168386661D01*
X255352788Y-168555078D01*
X255232814Y-168681678D01*
X255062614Y-168767764D01*
X254840795Y-168814644D01*
X254756717Y-168821693D01*
X254501515Y-168836466D01*
X254501515Y-169578976D01*
X254392689Y-169578976D01*
X254312019Y-169573003D01*
X254263572Y-169558496D01*
X254262098Y-169557211D01*
X254256516Y-169520182D01*
X254251463Y-169426270D01*
X254247131Y-169283887D01*
X254243710Y-169101444D01*
X254241391Y-168887352D01*
X254240366Y-168650024D01*
X254240333Y-168598098D01*
X254240770Y-168320093D01*
X254241598Y-168202327D01*
X254501515Y-168202327D01*
X254503256Y-168355052D01*
X254507992Y-168483132D01*
X254514995Y-168572891D01*
X254523280Y-168610424D01*
X254575280Y-168627370D01*
X254668717Y-168630977D01*
X254781252Y-168621907D01*
X254890543Y-168600821D01*
X254895713Y-168599409D01*
X255034645Y-168535219D01*
X255126023Y-168430279D01*
X255173846Y-168279327D01*
X255180234Y-168225061D01*
X255185810Y-168118245D01*
X255173968Y-168048718D01*
X255135339Y-167988974D01*
X255080100Y-167930980D01*
X255015721Y-167870640D01*
X254959446Y-167836221D01*
X254889412Y-167820474D01*
X254783758Y-167816150D01*
X254733315Y-167815994D01*
X254501515Y-167815994D01*
X254501515Y-168202327D01*
X254241598Y-168202327D01*
X254242314Y-168100405D01*
X254245316Y-167932063D01*
X254249818Y-167815994D01*
X254250125Y-167808092D01*
X254257091Y-167721520D01*
X254266565Y-167665374D01*
X254278897Y-167632680D01*
X254289432Y-167620002D01*
X254337560Y-167600934D01*
X254429787Y-167590954D01*
X254573813Y-167589571D01*
X254707992Y-167593395D01*
M02*
